<?xml version="1.0" encoding="UTF-8"?><svg xmlns="http://www.w3.org/2000/svg" viewBox="0 0 99.26 92.7"><defs><style>.cls-1{opacity:.05;}.cls-2{opacity:.07;}.cls-3{opacity:.1;}.cls-4{fill:#00dfbf;}.cls-5{fill:#f5f5f5;}.cls-6,.cls-7,.cls-8,.cls-9{fill:#fff;}.cls-10{fill:#ffbea7;}.cls-11{fill:#ff9a79;}.cls-12{fill:#fafafa;}.cls-13{fill:#ffaaa8;}.cls-14{fill:#ff9090;}.cls-15{fill:#b0494c;}.cls-16{fill:#c76668;}.cls-17{fill:#e1e1e1;}.cls-18{fill:#375a64;}.cls-19{fill:#1a2e35;}.cls-20{fill:#2b454e;}.cls-7,.cls-21{opacity:.2;}.cls-22{opacity:.15;}.cls-23,.cls-8{opacity:.3;}.cls-24{opacity:.35;}.cls-25{opacity:.6;}.cls-26{fill:none;stroke:#ececec;stroke-linecap:round;stroke-linejoin:round;stroke-width:.65px;}.cls-27{isolation:isolate;}.cls-28{mix-blend-mode:multiply;opacity:.5;}.cls-9{opacity:.4;}</style></defs><g class="cls-27"><g id="Camada_1"><g><ellipse id="Floor" class="cls-5" cx="49.06" cy="69.33" rx="42.25" ry="23.37"/><path id="Shadow" class="cls-17" d="M30.81,88.54l-11.62-6.71c-.23-.13-.23-.35,0-.48l49.04-28.31c.23-.13,.6-.13,.83,0l11.62,6.71c.23,.13,.23,.35,0,.48l-15.51,8.96c-.23,.13-.23,.35,0,.48l.73,.42c.23,.13,.23,.35,0,.48l-16.36,9.44c-.23,.13-.6,.14-.83,0l-.75-.42c-.23-.13-.6-.13-.83,0l-15.48,8.94c-.23,.13-.6,.13-.83,0Z"/><g id="Shadows"><path class="cls-17" d="M69.89,84.58c-.2,0-.39-.04-.56-.11l-2.88-1.24c-.07-.03-.16-.05-.26-.05-.05,0-.1,0-.15,.01l-3.4,.67c-.1,.02-.2,.03-.3,.03-.44,0-.82-.18-.98-.47-.12-.2-.11-.43,0-.64l1.1-1.87-2.1-1.62c-.25-.19-.34-.47-.25-.74,.12-.35,.54-.58,1.04-.58l3.6,.03c.16,0,.28-.04,.33-.08l2.07-1.69c.2-.16,.49-.25,.8-.25,.36,0,.81,.13,1,.48l1.07,1.98s.06,.04,.18,.07l3.43,.61c.45,.08,.76,.35,.8,.69,.03,.24-.1,.57-.53,.74l-2.93,1.2s-.04,.02-.05,.03l.04,2.01c0,.17-.07,.34-.2,.48-.19,.2-.52,.32-.88,.32Z"/><path class="cls-17" d="M53.35,88.32c-.15,0-.3-.03-.43-.08l-1.93-.83s-.08-.02-.12-.02c-.03,0-.05,0-.07,0l-2.28,.45c-.07,.01-.15,.02-.22,.02-.34,0-.64-.14-.77-.38-.1-.17-.1-.38,0-.55l.68-1.16-1.32-1.02c-.21-.16-.29-.41-.21-.64,.1-.29,.42-.48,.82-.48,0,0,2.41,.02,2.41,.02,.08,0,.13-.02,.14-.03l1.39-1.13c.16-.13,.38-.2,.62-.2,.35,0,.65,.15,.78,.39l.7,1.29s.03,.01,.05,.01l2.3,.41c.36,.07,.61,.29,.64,.58,.02,.21-.08,.48-.43,.63l-1.92,.78,.03,1.26c0,.15-.06,.3-.17,.41-.15,.16-.41,.25-.68,.25Z"/><path class="cls-17" d="M79.02,73.65c-.14,0-.27-.03-.39-.08l-1.68-.73s-.05-.01-.09-.01c-.02,0-.04,0-.06,0l-1.99,.39c-.07,.01-.14,.02-.2,.02-.32,0-.59-.14-.71-.35-.1-.17-.09-.36,0-.53l.57-.97-1.12-.86c-.2-.15-.28-.39-.2-.61,.09-.27,.39-.45,.76-.45l2.11,.02c.05,0,.09-.01,.1-.02l1.21-.99c.15-.12,.35-.18,.57-.18,.32,0,.6,.14,.72,.36l.6,1.11s.01,0,.02,0l2.01,.36c.34,.06,.57,.27,.6,.55,.02,.2-.07,.46-.41,.6l-1.64,.67,.02,1.07c0,.15-.05,.28-.16,.39-.14,.15-.38,.23-.63,.23Z"/></g><g id="Plants"><g><path class="cls-4" d="M22.35,76.4c-.05-.25-.63-6.42-3.25-10.09-3.24-4.55-5.86-5.06-7.34-3.38-1.33,1.51,.63,3.36,2.97,5.25,2.78,2.24,4.86,4.8,5.68,8.19l1.93,.03Z"/><path class="cls-21" d="M22.35,76.4c-.05-.25-.63-6.42-3.25-10.09-3.24-4.55-5.86-5.06-7.34-3.38-1.33,1.51,.63,3.36,2.97,5.25,2.78,2.24,4.86,4.8,5.68,8.19l1.93,.03Z"/><path class="cls-6" d="M21.15,75.99c-.07,0-.13-.04-.14-.11-1.04-7.22-6.52-11.45-7.93-12.18-.07-.03-.09-.12-.06-.18,.03-.07,.11-.09,.18-.06,1.44,.75,7.02,5.04,8.08,12.38,.01,.07-.04,.14-.11,.15,0,0,0,0,0,0Z"/></g><g><path class="cls-4" d="M17.53,81.85c-.19-.01-.37-.03-.56-.05-.61-.07-1.25-.18-1.74-.56-.49-.38-.77-1.1-.46-1.63,.15-.27,.43-.46,.54-.75,.16-.42-.11-.9-.48-1.16-.37-.26-.82-.35-1.26-.48-.58-.18-1.16-.45-1.55-.91-.39-.47-.56-1.16-.28-1.7,.2-.39,.62-.7,.61-1.14-.01-.41-.4-.7-.65-.97-.33-.35-.7-.66-.94-1.08-.23-.42-.32-.96-.09-1.39,.19-.35,.54-.57,.91-.72,.76-.3,1.6-.34,2.4-.2,.8,.14,1.57,.44,2.29,.81,1.41,.71,2.72,1.66,3.71,2.89,.72,.88,1.27,1.91,1.55,3.02,.3,1.15,.51,2.37,.46,3.57-.04,.81-.15,1.57-.97,1.96-1.08,.53-2.32,.59-3.5,.5Z"/><g class="cls-23"><path class="cls-6" d="M17.53,81.85c-.19-.01-.37-.03-.56-.05-.61-.07-1.25-.18-1.74-.56-.49-.38-.77-1.1-.46-1.63,.15-.27,.43-.46,.54-.75,.16-.42-.11-.9-.48-1.16-.37-.26-.82-.35-1.26-.48-.58-.18-1.16-.45-1.55-.91-.39-.47-.56-1.16-.28-1.7,.2-.39,.62-.7,.61-1.14-.01-.41-.4-.7-.65-.97-.33-.35-.7-.66-.94-1.08-.23-.42-.32-.96-.09-1.39,.19-.35,.54-.57,.91-.72,.76-.3,1.6-.34,2.4-.2,.8,.14,1.57,.44,2.29,.81,1.41,.71,2.72,1.66,3.71,2.89,.72,.88,1.27,1.91,1.55,3.02,.3,1.15,.51,2.37,.46,3.57-.04,.81-.15,1.57-.97,1.96-1.08,.53-2.32,.59-3.5,.5Z"/></g><path class="cls-12" d="M21.46,80.4s.02,0,.04,0c.06-.02,.09-.09,.07-.15-2.78-7.97-9.12-9.85-9.19-9.87-.06-.02-.12,.02-.14,.08-.02,.06,.02,.12,.08,.14,1.74,.49,6.75,3.2,9.03,9.72,.02,.05,.06,.08,.11,.08Z"/><path class="cls-12" d="M18.84,75.5s.07-.02,.09-.05c.04-.05,.02-.12-.03-.16-1.66-1.17-4.41-.92-5.84-.36-.06,.02-.09,.09-.07,.15,.02,.06,.09,.09,.15,.07,1.38-.53,4.04-.78,5.63,.34,.02,.01,.04,.02,.07,.02Z"/></g></g><g id="Plants-2"><g id="Plant"><g><path class="cls-4" d="M76.86,53.6c.06,.25,.15,.49,.24,.73,.27,.69,.62,1.37,.71,2.11,.04,.34,.04,.71,.21,1.01,.4,.69,.87,.18,1.14-.24,.66-1.02,1.32-2.01,2.46-2.53,.56-.26,1.16-.46,1.67-.83s.91-.95,.85-1.56c-.03-.37-.22-.73-.18-1.1,.05-.47,.45-.82,.87-1.03,.42-.21,.88-.33,1.27-.59,.39-.26,.7-.72,.58-1.18-.17-.64-1.09-.92-1.13-1.58-.05-.72,.99-1.18,.91-1.89-.16-1.31-2.07-.77-2.76-.38-.61,.35-1.17,.79-1.83,1.01-.84,.28-1.86,.24-2.45,.89-.68,.75-.39,1.94-.73,2.89-.39,1.07-1.55,1.74-1.87,2.83-.13,.47-.09,.97,.03,1.45Z"/><path class="cls-21" d="M76.86,53.6c.06,.25,.15,.49,.24,.73,.27,.69,.62,1.37,.71,2.11,.04,.34,.04,.71,.21,1.01,.4,.69,.87,.18,1.14-.24,.66-1.02,1.32-2.01,2.46-2.53,.56-.26,1.16-.46,1.67-.83s.91-.95,.85-1.56c-.03-.37-.22-.73-.18-1.1,.05-.47,.45-.82,.87-1.03,.42-.21,.88-.33,1.27-.59,.39-.26,.7-.72,.58-1.18-.17-.64-1.09-.92-1.13-1.58-.05-.72,.99-1.18,.91-1.89-.16-1.31-2.07-.77-2.76-.38-.61,.35-1.17,.79-1.83,1.01-.84,.28-1.86,.24-2.45,.89-.68,.75-.39,1.94-.73,2.89-.39,1.07-1.55,1.74-1.87,2.83-.13,.47-.09,.97,.03,1.45Z"/><path class="cls-6" d="M78.26,56.47s0,0,0,0c-.05,0-.09-.05-.09-.1,.35-5.4,4.38-10.08,6.46-11.39,.05-.03,.11-.01,.13,.03,.03,.05,.01,.11-.03,.13-2.05,1.29-6.03,5.91-6.37,11.24,0,.05-.05,.09-.1,.09Z"/></g></g><g id="Plant-2"><path class="cls-4" d="M79.09,60.52c1.16-4.07,5.32-6.01,9.13-7.18,2.3-.7,2.15-2.52,1.36-3.12-1.21-.91-4.77-.81-7.34,1.29-2.57,2.1-3.56,5.54-3.59,7.81l.43,1.19Z"/><path class="cls-8" d="M79.09,60.52c1.16-4.07,5.32-6.01,9.13-7.18,2.3-.7,2.15-2.52,1.36-3.12-1.21-.91-4.77-.81-7.34,1.29-2.57,2.1-3.56,5.54-3.59,7.81l.43,1.19Z"/><path class="cls-6" d="M78.99,58.88s-.02,0-.03,0c-.05-.01-.08-.07-.07-.12,1.51-5.42,6.81-8.14,9.35-8.14,.05,0,.1,.04,.1,.1s-.04,.1-.1,.1c-2.49,0-7.68,2.67-9.16,8-.01,.04-.05,.07-.09,.07Z"/></g></g><g id="Stars"><g id="Star"><path class="cls-4" d="M61.17,76.26c-.4,0-.68,.18-.7,.38-.04,.07,0,1.85,0,1.91,0,.07,.05,.14,.14,.2l1.71,1.07-.62,1.05s-.03,.07-.03,.1h0s0,0,0,0c0,0,0,0,0,.01,0,.17,0,1.84,0,1.89,.02,.25,.46,.45,.91,.36l3.4-.67c.21-.04,.45-.02,.63,.06l2.88,1.24c.46,.2,1.11,0,1.1-.32v-2.07c0-.13,.11-.25,.29-.33l2.88-1.2c.22-.09,.31-.23,.29-.36-.02-.13,.04-1.51,0-1.82,0-.02,0-.04,0-.07h0s0,0,0,0c-.04-.14-.2-.27-.48-.32l-3.43-.61c-.22-.04-.39-.14-.45-.26l-1.07-1.98c-.17-.31-.89-.38-1.22-.11l-2.07,1.69c-.13,.11-.34,.17-.57,.17l-3.59-.03Z"/><path class="cls-21" d="M61.17,76.26c-.4,0-.68,.18-.7,.38-.04,.07,0,1.85,0,1.91,0,.07,.05,.14,.14,.2l1.71,1.07-.62,1.05s-.03,.07-.03,.1h0s0,0,0,0c0,0,0,0,0,.01,0,.17,0,1.84,0,1.89,.02,.25,.46,.45,.91,.36l3.4-.67c.21-.04,.45-.02,.63,.06l2.88,1.24c.46,.2,1.11,0,1.1-.32v-2.07c0-.13,.11-.25,.29-.33l2.88-1.2c.22-.09,.31-.23,.29-.36-.02-.13,.04-1.51,0-1.82,0-.02,0-.04,0-.07h0s0,0,0,0c-.04-.14-.2-.27-.48-.32l-3.43-.61c-.22-.04-.39-.14-.45-.26l-1.07-1.98c-.17-.31-.89-.38-1.22-.11l-2.07,1.69c-.13,.11-.34,.17-.57,.17l-3.59-.03Z"/><path class="cls-4" d="M61.67,81.05c.05,.24,.47,.41,.91,.33l3.4-.66c.13-.03,.27-.03,.4,0l.02,1.88c-.14-.03-.28-.03-.42,0l-3.4,.66c-.45,.09-.89-.11-.91-.36,0-.04,.02-1.51,0-1.84Z"/><path class="cls-3" d="M61.67,81.05c.05,.24,.47,.41,.91,.33l3.4-.66c.13-.03,.27-.03,.4,0l.02,1.88c-.14-.03-.28-.03-.42,0l-3.4,.66c-.45,.09-.89-.11-.91-.36,0-.04,.02-1.51,0-1.84Z"/><path class="cls-4" d="M61.7,80.88l1.15-1.96c.07-.12,.04-.26-.1-.36l-2.15-1.66c-.34-.26-.01-.64,.56-.63l3.59,.03c.23,0,.44-.06,.57-.17l2.07-1.69c.33-.27,1.05-.2,1.22,.11l1.07,1.98c.07,.12,.24,.22,.45,.26l3.43,.61c.54,.1,.66,.51,.19,.7l-2.93,1.2c-.18,.08-.29,.2-.29,.33l.05,2.07c0,.33-.64,.52-1.1,.32l-2.88-1.24c-.18-.08-.42-.1-.63-.06l-3.4,.67c-.54,.11-1.06-.19-.87-.5Z"/><path class="cls-4" d="M70.68,79.37h0c-.09,.07-.14,.16-.14,.25l.05,2.07c0,.16-.14,.28-.35,.35v1.86c.21-.07,.35-.19,.35-.34v-2.07c0-.07,.03-.13,.08-.19h0s.08-.07,.13-.1c.03-.02,.05-.03,.08-.04l2.88-1.2c.22-.09,.31-.23,.29-.36-.02-.13,.03-1.54,0-1.83,0,.12-.08,.25-.29,.33l-2.93,1.2s-.04,.02-.06,.03h0c-.05,.04-.08,.05-.08,.05Z"/><path class="cls-3" d="M70.68,79.37h0c-.09,.07-.14,.16-.14,.25l.05,2.07c0,.16-.14,.28-.35,.35v1.86c.21-.07,.35-.19,.35-.34v-2.07c0-.07,.03-.13,.08-.19h0s.08-.07,.13-.1c.03-.02,.05-.03,.08-.04l2.88-1.2c.22-.09,.31-.23,.29-.36-.02-.13,.03-1.54,0-1.83,0,.12-.08,.25-.29,.33l-2.93,1.2s-.04,.02-.06,.03h0c-.05,.04-.08,.05-.08,.05Z"/></g><g id="Star-2"><path class="cls-4" d="M47.51,82.49c-.27,0-.46,.12-.47,.26-.02,.05,0,1.24,0,1.28,0,.05,.04,.09,.09,.14l1.15,.72-.41,.7s-.02,.05-.02,.07h0s0,0,0,0c0,0,0,0,0,0,0,.11,0,1.24,0,1.27,.01,.17,.31,.3,.61,.24l2.28-.45c.14-.03,.3-.01,.42,.04l1.93,.83c.31,.13,.74,0,.74-.22v-1.39c0-.09,.07-.17,.2-.22l1.93-.8c.15-.06,.21-.15,.19-.24-.02-.09,.03-1.02,0-1.22,0-.01,0-.03,0-.04h0s0,0,0,0c-.03-.09-.14-.18-.32-.21l-2.3-.41c-.14-.03-.26-.09-.3-.18l-.71-1.33c-.11-.21-.6-.25-.82-.07l-1.39,1.13c-.09,.07-.23,.11-.38,.11l-2.41-.02Z"/><path class="cls-21" d="M47.51,82.49c-.27,0-.46,.12-.47,.26-.02,.05,0,1.24,0,1.28,0,.05,.04,.09,.09,.14l1.15,.72-.41,.7s-.02,.05-.02,.07h0s0,0,0,0c0,0,0,0,0,0,0,.11,0,1.24,0,1.27,.01,.17,.31,.3,.61,.24l2.28-.45c.14-.03,.3-.01,.42,.04l1.93,.83c.31,.13,.74,0,.74-.22v-1.39c0-.09,.07-.17,.2-.22l1.93-.8c.15-.06,.21-.15,.19-.24-.02-.09,.03-1.02,0-1.22,0-.01,0-.03,0-.04h0s0,0,0,0c-.03-.09-.14-.18-.32-.21l-2.3-.41c-.14-.03-.26-.09-.3-.18l-.71-1.33c-.11-.21-.6-.25-.82-.07l-1.39,1.13c-.09,.07-.23,.11-.38,.11l-2.41-.02Z"/><path class="cls-4" d="M47.84,85.71c.03,.16,.31,.28,.61,.22l2.28-.45c.09-.02,.18-.02,.27,0v1.26c-.08-.02-.17-.02-.27,0l-2.28,.45c-.3,.06-.6-.07-.61-.24,0-.03,.01-1.01,0-1.23Z"/><path class="cls-3" d="M47.84,85.71c.03,.16,.31,.28,.61,.22l2.28-.45c.09-.02,.18-.02,.27,0v1.26c-.08-.02-.17-.02-.27,0l-2.28,.45c-.3,.06-.6-.07-.61-.24,0-.03,.01-1.01,0-1.23Z"/><path class="cls-4" d="M47.87,85.59l.77-1.32c.05-.08,.02-.17-.07-.24l-1.44-1.11c-.23-.18,0-.43,.38-.43l2.41,.02c.15,0,.29-.04,.38-.11l1.39-1.13c.22-.18,.7-.14,.82,.07l.71,1.33c.05,.08,.16,.15,.3,.18l2.3,.41c.36,.07,.44,.34,.13,.47l-1.96,.8c-.12,.05-.2,.13-.19,.22l.03,1.39c0,.22-.43,.35-.74,.22l-1.93-.83c-.12-.05-.28-.07-.42-.04l-2.28,.45c-.36,.07-.71-.13-.58-.34Z"/><path class="cls-4" d="M53.88,84.58h0c-.06,.05-.1,.1-.09,.16l.03,1.39c0,.11-.1,.19-.23,.23v1.25c.14-.05,.24-.13,.23-.23v-1.39s.02-.09,.06-.13h0s.05-.05,.08-.07c.02-.01,.04-.02,.06-.03l1.93-.8c.15-.06,.21-.15,.19-.24-.02-.09,.02-1.04,0-1.23,0,.08-.06,.17-.19,.22l-1.96,.8s-.03,.01-.04,.02h0s-.05,.04-.05,.04Z"/><path class="cls-3" d="M53.88,84.58h0c-.06,.05-.1,.1-.09,.16l.03,1.39c0,.11-.1,.19-.23,.23v1.25c.14-.05,.24-.13,.23-.23v-1.39s.02-.09,.06-.13h0s.05-.05,.08-.07c.02-.01,.04-.02,.06-.03l1.93-.8c.15-.06,.21-.15,.19-.24-.02-.09,.02-1.04,0-1.23,0,.08-.06,.17-.19,.22l-1.96,.8s-.03,.01-.04,.02h0s-.05,.04-.05,.04Z"/></g><g id="Star-3"><path class="cls-4" d="M73.92,68.51c-.23,0-.4,.11-.41,.22-.02,.04,0,1.09,0,1.12,0,.04,.03,.08,.08,.12l1,.63-.36,.61s-.02,.04-.02,.06h0s0,0,0,0c0,0,0,0,0,0,0,.1,0,1.08,0,1.11,.01,.15,.27,.26,.53,.21l1.99-.39c.13-.02,.26-.01,.37,.03l1.68,.73c.27,.12,.65,0,.64-.19v-1.21c0-.08,.06-.15,.17-.19l1.69-.7c.13-.05,.18-.13,.17-.21-.01-.08,.02-.89,0-1.07,0-.01,0-.03,0-.04h0s0,0,0,0c-.02-.08-.12-.16-.28-.19l-2.01-.36c-.13-.02-.23-.08-.27-.15l-.62-1.16c-.1-.18-.52-.22-.71-.07l-1.21,.99c-.08,.06-.2,.1-.33,.1l-2.1-.02Z"/><path class="cls-21" d="M73.92,68.51c-.23,0-.4,.11-.41,.22-.02,.04,0,1.09,0,1.12,0,.04,.03,.08,.08,.12l1,.63-.36,.61s-.02,.04-.02,.06h0s0,0,0,0c0,0,0,0,0,0,0,.1,0,1.08,0,1.11,.01,.15,.27,.26,.53,.21l1.99-.39c.13-.02,.26-.01,.37,.03l1.68,.73c.27,.12,.65,0,.64-.19v-1.21c0-.08,.06-.15,.17-.19l1.69-.7c.13-.05,.18-.13,.17-.21-.01-.08,.02-.89,0-1.07,0-.01,0-.03,0-.04h0s0,0,0,0c-.02-.08-.12-.16-.28-.19l-2.01-.36c-.13-.02-.23-.08-.27-.15l-.62-1.16c-.1-.18-.52-.22-.71-.07l-1.21,.99c-.08,.06-.2,.1-.33,.1l-2.1-.02Z"/><path class="cls-4" d="M74.21,71.32c.03,.14,.27,.24,.53,.19l1.99-.39c.08-.02,.16-.02,.23,0v1.1c-.07-.02-.15-.02-.23,0l-1.99,.39c-.27,.05-.52-.06-.53-.21,0-.02,.01-.88,0-1.08Z"/><path class="cls-3" d="M74.21,71.32c.03,.14,.27,.24,.53,.19l1.99-.39c.08-.02,.16-.02,.23,0v1.1c-.07-.02-.15-.02-.23,0l-1.99,.39c-.27,.05-.52-.06-.53-.21,0-.02,.01-.88,0-1.08Z"/><path class="cls-4" d="M74.23,71.22l.67-1.15c.04-.07,.02-.15-.06-.21l-1.26-.97c-.2-.15,0-.37,.33-.37l2.1,.02c.13,0,.26-.04,.33-.1l1.21-.99c.19-.16,.61-.12,.71,.07l.62,1.16c.04,.07,.14,.13,.27,.15l2.01,.36c.32,.06,.39,.3,.11,.41l-1.72,.7c-.11,.04-.17,.12-.17,.19l.03,1.21c0,.19-.38,.3-.64,.19l-1.68-.73c-.11-.05-.24-.06-.37-.03l-1.99,.39c-.32,.06-.62-.11-.51-.29Z"/><path class="cls-4" d="M79.49,70.34h0c-.05,.04-.08,.09-.08,.14l.03,1.21c0,.09-.08,.17-.21,.2v1.09c.12-.04,.21-.11,.2-.2v-1.21s.02-.08,.05-.11h0s.04-.04,.07-.06c.02,0,.03-.02,.05-.02l1.69-.7c.13-.05,.18-.14,.17-.21-.01-.08,.02-.9,0-1.07,0,.07-.05,.15-.17,.19l-1.72,.7s-.03,.01-.04,.02h0s-.05,.03-.05,.03Z"/><path class="cls-3" d="M79.49,70.34h0c-.05,.04-.08,.09-.08,.14l.03,1.21c0,.09-.08,.17-.21,.2v1.09c.12-.04,.21-.11,.2-.2v-1.21s.02-.08,.05-.11h0s.04-.04,.07-.06c.02,0,.03-.02,.05-.02l1.69-.7c.13-.05,.18-.14,.17-.21-.01-.08,.02-.9,0-1.07,0,.07-.05,.15-.17,.19l-1.72,.7s-.03,.01-.04,.02h0s-.05,.03-.05,.03Z"/></g></g><g id="Podium"><polygon class="cls-4" points="63.94 69.22 63.94 65.34 79.08 56.6 79.08 60.48 63.94 69.22"/><polygon class="cls-23" points="63.94 69.22 63.94 65.34 79.08 56.6 79.08 60.48 63.94 69.22"/><path class="cls-22" d="M79.08,58.32v-1.73l-15.13,8.74-10.93-6.31v1.73l10.48,6.05c.12,.07,.29,.11,.45,.11,.16,0,.32-.04,.45-.11l14.68-8.48Z"/><path class="cls-4" d="M79.26,55.37c0-.09-.06-.19-.19-.26l-11.71-6.76c-.25-.14-.65-.14-.9,0l-14.68,8.48c-.12,.07-.19,.17-.19,.26v1.94c0,.09,.06,.19,.19,.26l11.71,6.76c.25,.14,.65,.14,.9,0l14.68-8.48c.12-.07,.19-.16,.19-.26,0-.09,0-1.85,0-1.94Z"/><path class="cls-21" d="M79.26,55.37c0-.09-.06-.19-.19-.26l-11.71-6.76c-.25-.14-.65-.14-.9,0l-14.68,8.48c-.12,.07-.19,.17-.19,.26v1.94c0,.09,.06,.19,.19,.26l11.71,6.76c.25,.14,.65,.14,.9,0l14.68-8.48c.12-.07,.19-.16,.19-.26,0-.09,0-1.85,0-1.94Z"/><path class="cls-4" d="M79.08,55.11l-11.71-6.76c-.25-.14-.65-.14-.9,0l-14.68,8.48c-.25,.14-.25,.37,0,.52l11.71,6.76c.25,.14,.65,.14,.9,0l14.68-8.48c.25-.14,.25-.37,0-.52Z"/><path class="cls-3" d="M79.08,55.11l-11.71-6.76c-.25-.14-.65-.14-.9,0l-14.68,8.48c-.25,.14-.25,.37,0,.52l11.71,6.76c.25,.14,.65,.14,.9,0l14.68-8.48c.25-.14,.25-.37,0-.52Z"/></g><ellipse id="Shadow-2" class="cls-2" cx="68.64" cy="55.44" rx="6.77" ry="3.91"/><g id="Character"><g><path class="cls-10" d="M65.85,47.37l-2.8-.05c.04,1.87,.34,3.94,.39,5.7,0,.33,0,2.56,.12,3.24,.19,1.02,1.4,.88,1.46,.27,.06-.61-.08-3.22-.07-3.49-.01-1.12,.52-3.02,.79-5.04,.01-.1,.1-.53,.12-.63Z"/><path class="cls-19" d="M65.47,56.95c.03,.6-.03,1-.2,1.37-.18,.37-.56,.52-.98,.46-.41-.06-.96-.28-1.13-.79-.17-.5-.18-.86-.14-1.42l2.45,.37Z"/><path class="cls-18" d="M63.43,52.8c-.17,.03-.13,.84-.15,1.65-.02,.87-.24,1.25-.26,1.96-.02,.82,.05,1.17,.39,1.63,.33,.46,1.38,.83,1.8,.09,.34-.61,.3-1.24,.18-2.04-.12-.83-.21-1.41-.24-2.04-.03-.61-.05-1.19-.2-1.25,0,.09,0,.2,0,.29,0,.07,.01,.4-.08,.41-.02-.08-.02-.15-.02-.23,0-.07-.02-.14-.07-.19-.05-.05-.12-.06-.19-.06-.17-.02-.33-.03-.5-.03-.08,0-.17,0-.25,.01-.07,0-.15,.02-.21,.05-.04,.02-.07,.05-.08,.09,0,.03,0,.06,0,.09,0,.06,0,.11,0,.17,0,.02-.02,.06-.04,.05-.02,0-.03-.03-.03-.05-.01-.1,0-.17-.01-.28,0-.05,0-.12,0-.18,0-.05,0-.1-.01-.16Z"/><path class="cls-20" d="M63.04,56.17c0,.12-.03,.9,.2,1.01,.24,.13,.31-.49,.31-.49,0,0,.51-.22,1.32,.04-.03,.13,.13,.53,.34,.42,.2-.11,.2-1,.2-1.01,.11,.77,.14,1.38-.19,1.97-.42,.75-1.47,.37-1.8-.09-.33-.46-.41-.81-.39-1.63,0-.08,0-.16,.01-.23Z"/><path class="cls-19" d="M63.61,56.74c.03,.29-.27,.22-.32-.19-.05-.41,.07-1.41,0-2.11,.02-.81-.02-1.62,.15-1.65,0,0,0,.02,0,.03l.02,.41c0,.06,0,.11,0,.18,.06,.59,.09,1.75,.09,2.3,0,.55,.03,.75,.06,1.04Z"/><path class="cls-19" d="M64.77,56.74c.03-.29,.05-.49,.06-1.04,0-.54,.03-1.68,.09-2.28,.03-.1,.02-.29,.02-.34,0-.08,0-.19,0-.27,0,0,0-.01,0-.02,.11,.04,.15,.36,.17,.77,0,.23,0,.53-.02,.88-.07,.71,.06,1.71,0,2.12-.05,.41-.35,.47-.33,.18Z"/><path class="cls-10" d="M71.02,51.06c-.02-.58,.37-5.95,.37-5.95l-2.65,1.68c.57,3.4,.69,4.2,.7,4.75h0s-.02,.06-.01,.14c0,.66,.75,1.02,1.33,1.46,.23,.17,.9,.69,1.57,1.03,.42,.21,1.28,.23,1.39-.04-.71-.54-1.74-1.35-2.3-1.96-.27-.29-.37-.52-.39-1.1Z"/><path class="cls-19" d="M74.92,54.83s.08,.36-.12,.53c-.23,.2-.88,.53-1.76,.42-.88-.11-1.36-.36-1.71-.66-.35-.3-.85-.71-1.25-.8-.37-.08-.77-.25-.89-.36-.12-.11-.1-.62-.1-.62l5.83,1.5Z"/><path class="cls-18" d="M69.44,51.38s-.11,0-.13,.12c-.03,.14-.06,.55-.11,.78-.08,.32-.14,.98-.09,1.24,.05,.26,.65,.44,1.04,.59,.39,.15,.85,.46,1.25,.79,.41,.34,1.29,.7,1.86,.69,.68,0,1.45-.22,1.62-.54,.22-.39,.05-.62-.96-1.08-.19-.09-.86-.49-1.09-.63-.62-.39-1.23-.93-1.51-1.62-.03-.08-.07-.17-.14-.21-.06-.03-.13-.03-.2-.02-.17,.02-.33,.07-.49,.15-.14,.06-.33,.14-.32,.31,0,.06,.02,.12,.04,.18,.01,.04,.02,.08,0,.1-.03,.02-.07,0-.09-.03-.11-.09-.18-.22-.27-.33-.05-.06-.1-.12-.16-.16-.05-.04-.12-.06-.17-.11-.06-.06-.05-.14-.05-.22Z"/><path class="cls-20" d="M71.39,54.89c-.18-.15-.36-.29-.55-.41h0s1.19,.72,1.66,.39c.31-.21,.16-.47,.15-.55s.75-.43,1.05-.47h0c.08,.05,.15,.08,.2,.1,1.01,.47,1.18,.69,.96,1.08-.18,.32-.73,.56-1.61,.56-.57,0-1.46-.37-1.87-.71Z"/><path class="cls-19" d="M72.58,54.09c.63,.25,.36,.37,.18,.39s-1.23-.59-1.87-1.1c-.67-.53-1.09-1.11-1.34-1.31-.09-.07-.19-.16-.28-.25,.02-.14,.03-.26,.04-.33,.02-.12,.13-.12,.13-.12,0,.08-.01,.16,.05,.22,.05,.05,.12,.07,.17,.11,.06,.05,.11,.1,.16,.16,.09,.11,.17,.23,.27,.33,.55,.69,1.86,1.64,2.49,1.89Z"/><g><path class="cls-26" d="M72.71,54.32c.16-.19,.64-.48,1.09-.43"/><path class="cls-26" d="M72.17,53.99c.16-.19,.64-.48,1.09-.43"/><path class="cls-26" d="M71.62,53.67c.16-.19,.64-.48,1.09-.43"/><path class="cls-26" d="M71.11,53.31c.16-.19,.64-.48,1.09-.43"/><path class="cls-26" d="M70.62,52.94c.22-.28,.75-.48,1.2-.44"/></g><path class="cls-4" d="M65.27,27.52c-.38,.81-1.44,2.13-1.78,3.04-.7,1.86-.36,3.2-.16,5.65,.22,2.62,.42,4.69,.42,4.69-.04,.47-.69,1.37-.77,3.43-.08,1.92,.13,4.37,.13,4.37,0,0,1.45,.8,2.53,0,0,0,1.04-4.95,1.34-7.35,.26-2.1,.57-3.8,.57-3.8l.82,3.91s-.06,1.05-.15,1.95c-.14,1.42,.65,4.2,.65,4.2,0,0,1.5,.45,2.42-.36,0,0,.36-4.06,.32-6.07-.04-2.29-.44-9.97-.72-13.24l-5.61-.4Z"/><path class="cls-8" d="M65.27,27.52c-.38,.81-1.44,2.13-1.78,3.04-.7,1.86-.36,3.2-.16,5.65,.22,2.62,.42,4.69,.42,4.69-.04,.47-.69,1.37-.77,3.43-.08,1.92,.13,4.37,.13,4.37,0,0,1.45,.8,2.53,0,0,0,1.04-4.95,1.34-7.35,.26-2.1,.57-3.8,.57-3.8l.82,3.91s-.06,1.05-.15,1.95c-.14,1.42,.65,4.2,.65,4.2,0,0,1.5,.45,2.42-.36,0,0,.36-4.06,.32-6.07-.04-2.29-.44-9.97-.72-13.24l-5.61-.4Z"/><path class="cls-21" d="M67.54,37.54l.5-4.05s1.16-.1,2.09-1.19c0,0-.28,.97-1.62,1.49l-.65,3.59,.5,4.07-.82-3.91Z"/><g><path class="cls-26" d="M64.88,56.7s-.66-.26-1.34,0"/><path class="cls-26" d="M64.96,56.06s-.73-.26-1.49,0"/><path class="cls-26" d="M64.95,55.44s-.78-.31-1.48,0"/><path class="cls-26" d="M64.96,54.86s-.73-.35-1.51,.02"/><path class="cls-26" d="M64.96,54.24s-.8-.36-1.52,0"/></g></g><path class="cls-20" d="M67.85,18.93c-.22,0-.44-.03-.67-.04-.89-.06-1.73-.48-2.31-1.16-.51-.6-.8-1.38-.8-2.17,0-1.97,1.59-3.56,3.56-3.56,.38,0,.76,.06,1.12,.18,.16,.05,.32,.15,.48,.2,.14,.04,.3,.05,.44,.09,.6,.19,1.12,.66,1.35,1.25,.27,.7,.16,1.48-.07,2.19-.23,.74-.59,1.46-1.12,2.03-.37,.39-.82,.71-1.32,.89-.23,.08-.44,.11-.66,.1Z"/><path class="cls-20" d="M65.84,18.45c-.04,.36-.06,.89-.69,1.14,0,0,.3,.74-.44,1.03,0,0,.22,.73-.4,1,0,0,.2,.55-.35,.97,0,0,.39,.71-.08,1.12,0,0,.22,.23,.24,.55,.02,.32-.19,.74-.5,.8,0,0,.23-.26,.04-.49-.19-.23-.38-.5-.09-.82,0,0-.57-.34-.12-1.2,0,0-.45-.68,.21-1.11,0,0-.38-.77,.38-1.08,0,0-.37-.53,.21-1.12,0,0-.68-1.08,.48-1.86l1.11,1.08Z"/><g><path class="cls-10" d="M69.44,19.92l.69,3.01s2.22,2.85,2.85,3.36c.33,.27,1.09,.63,1.79-.4,.81-1.19,2.62-4.75,2.77-4.99,.14-.22,.25-.44,.4-.65,.16-.23,.3-.46,.43-.71,.18-.37,.31-.77,.3-1.18,0-.41-.15-.83-.44-1.11-.12-.12-.27-.22-.36-.36-.04-.06-.06-.12-.11-.17-.12-.15-.33-.07-.41,.08-.04,.08-.05,.16-.06,.25-.08,.59-.28,1.17-.58,1.69-.02,.04-.05,.08-.09,.1-.09,.05-.13-.04-.14-.11-.02-.13-.07-.26-.13-.38-.07-.14-.17-.27-.3-.36-.04-.02-.08-.04-.13-.05-.18,0-.11,.19-.09,.3,.02,.19,.04,.37,.06,.56,.04,.41,.09,.86,.03,1.27-.05,.29-.18,.66-.65,1.37-.39,.58-1.6,2.34-1.6,2.34,0,0-.22-.38-1.38-2.14-1.16-1.77-1.87-1.84-2.86-1.71"/><path class="cls-18" d="M71.15,25.59c1.16-1.08,.83-2.26,.41-3.13-.84-1.74-1.74-2.54-2.12-2.54h-2.38c-1.14,.13-1.94,.18-2.22,.24-.7,.15-.79,.67-.83,1.42-.04,.81,.02,1.01,.21,2.36l.66,1.45c.29,.63,.24,1.26,.01,1.91-.1,.28-.2,.46-.44,.85-.51,.85-1.02,2.12-1.27,3.16,0,0,1,0,1.67-.77,0,0,.9,1.36,3.15,1.48s3.35-1.88,3.35-1.88l-.48-2.58c.1-.46,.21-1.33,.28-1.96Z"/><path class="cls-3" d="M66.38,24.96s.45,1.03,1.75,1c1.19-.02,1.68-1.02,1.68-1.02,0,0-.07,1.37-1.68,1.35-1.61-.02-1.75-1.33-1.75-1.33Z"/></g><g><path class="cls-10" d="M69.76,13.43c.4,.22,.9,1.19,.9,3.24,0,1.74-.55,2.19-.83,2.32-.28,.13-.83,.07-1.36,0l.03,1.04s1.51,1.57,.29,1.75c-.61,.09-1.39-.27-1.91-.67-.54-.41-.7-1.08-.7-1.08l-.04-2.27s-.31,.31-.85-.14c-.45-.37-.61-1.01-.28-1.37,.33-.35,.97-.28,1.22,.21,0,0,.31,.02,.61-.57,0,0,.8,.06,1.65-.31,1.39-.61,1.44-1.7,1.28-2.16Z"/><path class="cls-19" d="M68.4,16.18c0,.13-.08,.23-.2,.24-.12,0-.23-.09-.24-.21,0-.13,.08-.23,.2-.24,.12,0,.23,.09,.24,.21Z"/><g class="cls-28"><path class="cls-11" d="M68.56,17.66l.71,.21c-.05,.2-.26,.32-.45,.26-.2-.06-.31-.27-.26-.47Z"/></g><path class="cls-19" d="M70.36,15.45l-.45-.3c.08-.13,.24-.17,.37-.08,.12,.08,.16,.25,.08,.38Z"/><path class="cls-19" d="M68.15,15.28l-.5,.21c-.06-.14,0-.29,.14-.35,.14-.06,.3,0,.36,.14Z"/><path class="cls-19" d="M70.26,16.08c0,.13-.08,.23-.2,.24-.12,0-.23-.09-.24-.21,0-.13,.08-.23,.2-.24,.12,0,.23,.09,.24,.21Z"/><g class="cls-28"><polygon class="cls-11" points="69.2 15.98 69.27 17.3 69.96 17.07 69.2 15.98"/></g><g class="cls-28"><path class="cls-11" d="M68.47,18.98c-.56-.06-1.72-.36-1.91-.81,0,0,.07,.28,.42,.57,.35,.29,1.5,.59,1.5,.59v-.35Z"/></g><path class="cls-20" d="M66.22,16.46l.02,.92h0c.34,0,.62-.29,.61-.64l-.02-.85-.61,.57Z"/></g><g><g id="Trophy"><g><g><path class="cls-19" d="M68.22,33.02v1.46s.02,.07,.07,.09l2.65,1.53s.1,.04,.16,.04v-4.83l-2.8,1.62s-.07,.06-.07,.09Z"/><path class="cls-20" d="M71.24,36.11l2.94-1.7s.07-.06,.07-.09v-1.46s-.02-.07-.07-.09l-2.65-1.53c-.09-.05-.23-.05-.32,0l-.14,.08v4.83c.06,0,.11-.01,.16-.04Z"/></g><path class="cls-18" d="M70.93,34.64l-2.65-1.53c-.09-.05-.09-.13,0-.18l2.94-1.7c.09-.05,.23-.05,.32,0l2.65,1.53c.09,.05,.09,.13,0,.18l-2.94,1.7c-.09,.05-.23,.05-.32,0Z"/></g><g><path class="cls-4" d="M72.75,33.28s.03-.05,.04-.07c0,0,0-.01,.01-.02,.01-.02,.02-.04,.03-.06,0,0,0-.01,0-.02,0-.03,.02-.05,.02-.08,0,0,0,0,0,0,0-.03,0-.06,0-.08,0,0,0-.02,0-.02,0-.02,0-.04,0-.06,0,0,0-.02,0-.03,0-.02,0-.04-.01-.06,0,0,0-.02,0-.03,0-.03-.02-.05-.03-.08,0,0,0-.02-.01-.02-.01-.02-.02-.04-.03-.05,0-.01-.02-.02-.02-.03,0,0-.01-.02-.02-.02,0,0-.02-.02-.03-.03,0,0,0-.01-.02-.02-.35-.4-.86-.54-1.44-.54s-1.09,.13-1.44,.54c0,0,0,0-.01,.01,0,.01-.02,.02-.03,.03,0,0-.01,.02-.02,.02,0,0-.01,.02-.02,.03-.01,.02-.02,.04-.04,.06,0,0,0,.01-.01,.02-.01,.03-.02,.05-.03,.08,0,0,0,.02,0,.02,0,.02-.01,.04-.01,.06,0,0,0,.02,0,.03,0,.02,0,.04,0,.06,0,0,0,.01,0,.02,0,.06,0,.11,.03,.17,0,0,0,.01,0,.02,0,.02,.02,.04,.03,.07,0,0,0,.01,0,.02,.01,.03,.03,.05,.05,.08,0,0,0,0,0,0,.02,.03,.04,.06,.07,.08,0,0,0,0,0,0,.02,.02,.05,.05,.07,.07,0,0,.01,.01,.02,.02,.02,.02,.05,.04,.07,.06,0,0,.01,0,.02,.01,.03,.02,.07,.05,.11,.07,.64,.37,1.67,.37,2.31,0,.04-.02,.07-.04,.1-.07,0,0,.01-.01,.02-.02,.03-.02,.05-.04,.07-.06,0,0,.01-.01,.02-.02,.02-.02,.05-.04,.07-.07,0,0,0,0,0,0,.02-.03,.05-.05,.06-.08,0,0,0,0,0,0Z"/><g class="cls-22"><path d="M72.75,33.28s.03-.05,.04-.07c0,0,0-.01,.01-.02,.01-.02,.02-.04,.03-.06,0,0,0-.01,0-.02,0-.03,.02-.05,.02-.08,0,0,0,0,0,0,0-.03,0-.06,0-.08,0,0,0-.02,0-.02,0-.02,0-.04,0-.06,0,0,0-.02,0-.03,0-.02,0-.04-.01-.06,0,0,0-.02,0-.03,0-.03-.02-.05-.03-.08,0,0,0-.02-.01-.02-.01-.02-.02-.04-.03-.05,0-.01-.02-.02-.02-.03,0,0-.01-.02-.02-.02,0,0-.02-.02-.03-.03,0,0,0-.01-.02-.02-.35-.4-.86-.54-1.44-.54s-1.09,.13-1.44,.54c0,0,0,0-.01,.01,0,.01-.02,.02-.03,.03,0,0-.01,.02-.02,.02,0,0-.01,.02-.02,.03-.01,.02-.02,.04-.04,.06,0,0,0,.01-.01,.02-.01,.03-.02,.05-.03,.08,0,0,0,.02,0,.02,0,.02-.01,.04-.01,.06,0,0,0,.02,0,.03,0,.02,0,.04,0,.06,0,0,0,.01,0,.02,0,.06,0,.11,.03,.17,0,0,0,.01,0,.02,0,.02,.02,.04,.03,.07,0,0,0,.01,0,.02,.01,.03,.03,.05,.05,.08,0,0,0,0,0,0,.02,.03,.04,.06,.07,.08,0,0,0,0,0,0,.02,.02,.05,.05,.07,.07,0,0,.01,.01,.02,.02,.02,.02,.05,.04,.07,.06,0,0,.01,0,.02,.01,.03,.02,.07,.05,.11,.07,.64,.37,1.67,.37,2.31,0,.04-.02,.07-.04,.1-.07,0,0,.01-.01,.02-.02,.03-.02,.05-.04,.07-.06,0,0,.01-.01,.02-.02,.02-.02,.05-.04,.07-.07,0,0,0,0,0,0,.02-.03,.05-.05,.06-.08,0,0,0,0,0,0Z"/></g><g><path class="cls-4" d="M71.23,32.37s-.05,0-.07,0c-.06,0-.11,.03-.13,.08-.13,.33-.25,.68-.35,1.04-.02,.08,.03,.16,.11,.18,.1,.02,.25,.04,.44,.04s.34-.02,.44-.04c.08-.02,.14-.1,.11-.18-.1-.36-.22-.71-.35-1.04-.02-.05-.08-.09-.13-.08-.02,0-.04,0-.07,0Z"/><path class="cls-4" d="M71.55,32.48c.13,.3,.25,.62,.35,.97,.02,.08,.11,.13,.19,.1,.12-.05,.28-.12,.42-.24,.07-.05,.07-.17,.02-.24-.2-.27-.46-.51-.77-.72-.07-.05-.16-.06-.2-.04-.04,.02-.05,.09-.01,.17Z"/><path class="cls-4" d="M71.82,32.3c.3,.19,.56,.42,.77,.67,.05,.07,.13,.06,.15-.02,0-.04,.01-.08,.01-.12,0-.09-.08-.2-.14-.26-.23-.19-.5-.34-.75-.41-.08-.02-.15-.01-.16,.01s.04,.07,.11,.12Z"/><path class="cls-4" d="M71.68,32.06s.02-.04,.08-.04c.03,0,.07,0,.11,0,.1,0,.34,.08,.55,.24,.07,.05,.17,.14,.22,.2,.05,.06,.02,.07-.04,.02-.18-.15-.46-.3-.74-.36-.08-.02-.16-.04-.17-.06Z"/><path class="cls-4" d="M70.92,32.48c-.13,.3-.25,.62-.35,.97-.02,.08-.11,.13-.19,.1-.12-.05-.28-.12-.42-.24-.07-.05-.07-.17-.02-.24,.2-.27,.46-.51,.77-.72,.07-.05,.16-.06,.2-.04,.04,.02,.05,.09,.01,.17Z"/><path class="cls-4" d="M70.65,32.3c-.3,.19-.56,.42-.77,.67-.05,.07-.13,.06-.15-.02,0-.04-.01-.08-.01-.12,0-.09,.08-.2,.14-.26,.23-.19,.5-.34,.75-.41,.08-.02,.15-.01,.16,.01s-.04,.07-.11,.12Z"/><path class="cls-4" d="M70.79,32.06s-.02-.04-.08-.04c-.03,0-.07,0-.11,0-.1,0-.34,.08-.55,.24-.07,.05-.17,.14-.22,.2-.05,.06-.02,.07,.04,.02,.18-.15,.46-.3,.74-.36,.08-.02,.16-.04,.17-.06Z"/></g></g><path class="cls-4" d="M72.61,29.59s0,0-.01,0c-.12,0-.27-.09-.29-.31-.02-.22,.03-.8,1.01-1.58,.84-.66,1.53-1.28,1.57-2.14,.02-.32-.1-.57-.29-.64-.2-.07-.46,.09-.69,.43-.15,.22-.18,.49-.15,.56,0,0,.02,0,.03-.01,.07-.03,.15,0,.18,.06,.03,.07,0,.15-.06,.18-.2,.1-.31,0-.35-.05-.16-.19-.07-.62,.12-.9,.44-.63,.85-.58,1-.53,.31,.11,.5,.46,.48,.91-.05,.97-.79,1.64-1.68,2.34-.72,.57-.94,1.06-.91,1.34,0,.03,.01,.07,.04,.07,.04,0,.13-.05,.15-.16,.01-.07,.08-.12,.16-.11,.07,.01,.12,.08,.11,.16-.04,.22-.22,.38-.41,.38Z"/><g class="cls-21"><path d="M72.61,29.59s0,0-.01,0c-.12,0-.27-.09-.29-.31-.02-.22,.03-.8,1.01-1.58,.84-.66,1.53-1.28,1.57-2.14,.02-.32-.1-.57-.29-.64-.2-.07-.46,.09-.69,.43-.15,.22-.18,.49-.15,.56,0,0,.02,0,.03-.01,.07-.03,.15,0,.18,.06,.03,.07,0,.15-.06,.18-.2,.1-.31,0-.35-.05-.16-.19-.07-.62,.12-.9,.44-.63,.85-.58,1-.53,.31,.11,.5,.46,.48,.91-.05,.97-.79,1.64-1.68,2.34-.72,.57-.94,1.06-.91,1.34,0,.03,.01,.07,.04,.07,.04,0,.13-.05,.15-.16,.01-.07,.08-.12,.16-.11,.07,.01,.12,.08,.11,.16-.04,.22-.22,.38-.41,.38Z"/></g><g><path class="cls-4" d="M68.22,26.41c0,1.48,.51,2.23,1.1,3.13,.7,1.06,1.63,1.8,1.67,2.54,0,.04,.02,.07,.07,.1,.1,.06,.25,.06,.35,0,.05-.03,.07-.06,.07-.1h0c.02-.75,.97-1.48,1.67-2.54,.59-.89,1.1-1.64,1.1-3.13h-6.03Z"/><path class="cls-3" d="M68.22,26.43c0,1.46,.51,2.22,1.1,3.11,.7,1.06,1.63,1.8,1.67,2.54,0,.04,.02,.07,.07,.1,.02,.01,.05,.02,.07,.03-.02-.72-.26-1.54-.77-2.25-.54-.74-1-1.77-1-3.04,0,0-.65-.38-.94-.51h-.19s0,.01,0,.02Z"/><path class="cls-4" d="M69.1,27.64c1.18,.68,3.09,.68,4.26,0,1.18-.68,1.18-1.78,0-2.46-1.18-.68-3.09-.68-4.26,0s-1.18,1.78,0,2.46Z"/><path class="cls-9" d="M69.1,27.64c1.18,.68,3.09,.68,4.26,0,1.18-.68,1.18-1.78,0-2.46-1.18-.68-3.09-.68-4.26,0s-1.18,1.78,0,2.46Z"/><path class="cls-4" d="M69.51,27.41c.95,.55,2.5,.55,3.46,0,.95-.55,.95-1.44,0-2-.95-.55-2.5-.55-3.46,0s-.95,1.44,0,2Z"/><path class="cls-21" d="M69.51,27.41c.95,.55,2.5,.55,3.46,0,.95-.55,.95-1.44,0-2-.95-.55-2.5-.55-3.46,0s-.95,1.44,0,2Z"/><path class="cls-21" d="M70.24,25.12c-.27,.07-.52,.17-.74,.29-.95,.55-.95,1.44,0,2,.17,.1,.37,.18,.57,.24-.68-1.16-.29-2.29,.17-2.53Z"/></g><path class="cls-4" d="M69.94,31.14c-.1,0-.19-.07-.21-.18-.02-.07,.03-.15,.1-.16,.06-.01,.11,.01,.14,.05,.07-.05,.19-.2,.2-.37,0-.09,0-.2-.08-.26-.07-.05-.25-.11-.71,.05-.62,.23-1.16,.39-1.51,.16-.18-.12-.28-.34-.3-.65-.03-.57,.32-1.34,.75-1.69,.22-.17,.44-.23,.66-.17,.14,.04,.24,.17,.27,.36,.04,.23-.04,.53-.29,.7-.06,.04-.15,.02-.19-.04-.04-.06-.02-.15,.04-.19,.15-.1,.2-.29,.17-.43-.01-.07-.04-.13-.08-.14-.13-.04-.27,0-.41,.12-.36,.29-.67,.99-.65,1.46,.01,.22,.07,.36,.18,.44,.24,.16,.76,0,1.27-.19,.44-.16,.77-.17,.96-.01,.14,.11,.2,.28,.18,.5-.03,.31-.27,.62-.49,.64,0,0-.01,0-.02,0Z"/><g class="cls-23"><path d="M69.94,31.14c-.1,0-.19-.07-.21-.18-.02-.07,.03-.15,.1-.16,.06-.01,.11,.01,.14,.05,.07-.05,.19-.2,.2-.37,0-.09,0-.2-.08-.26-.07-.05-.25-.11-.71,.05-.62,.23-1.16,.39-1.51,.16-.18-.12-.28-.34-.3-.65-.03-.57,.32-1.34,.75-1.69,.22-.17,.44-.23,.66-.17,.14,.04,.24,.17,.27,.36,.04,.23-.04,.53-.29,.7-.06,.04-.15,.02-.19-.04-.04-.06-.02-.15,.04-.19,.15-.1,.2-.29,.17-.43-.01-.07-.04-.13-.08-.14-.13-.04-.27,0-.41,.12-.36,.29-.67,.99-.65,1.46,.01,.22,.07,.36,.18,.44,.24,.16,.76,0,1.27-.19,.44-.16,.77-.17,.96-.01,.14,.11,.2,.28,.18,.5-.03,.31-.27,.62-.49,.64,0,0-.01,0-.02,0Z"/></g></g><path class="cls-10" d="M64.96,20.14c-1.2,0-1.6,.45-2,1.43-.38,.94-1.63,4.4-1.89,5.28-.26,.9-.06,1.09,.55,1.43,.41,.23,1,.48,1.52,.7,.21,.09,1.43,.58,1.85,.75,.42,.17,.71,.39,1.04,.6,.39,.23,.71,.59,1.15,.7,.15,.04,.33,0,.49-.03,.32-.07,.55-.15,.75-.35,.23-.21,.25-.62,.29-.91,.03-.22,.03-.46-.06-.66-.07-.15-.18-.26-.28-.38-.03-.04-.08-.1-.13-.09,0,0-.06,.09-.08,.12-.03,.05-.08,.14-.11,.21-.02,.05-.04,.11-.1,.13-.07,.03-.15-.01-.18-.08-.03-.06,0-.13,.04-.2,.03-.06,.05-.11,.08-.16,.03-.04,.12-.19,.12-.19-.04-.02-.1-.03-.12-.03-.3-.03-.54,.04-.84,.11-.09,.02-.21,.07-.3,.06-.06,0-.13-.03-.2-.05-.17-.05-.34-.13-.5-.21-.59-.31-2.46-1.54-2.46-1.54l1.61-3.57s.55-2.51-.25-3.07Z"/></g></g><g id="Podium-2"><polygon class="cls-4" points="48.81 78.93 48.81 67.28 64.78 58.06 64.78 69.7 48.81 78.93"/><polygon class="cls-7" points="48.81 78.93 48.81 67.28 64.78 58.06 64.78 69.7 48.81 78.93"/><polygon class="cls-4" points="37.04 60.48 37.04 72.13 48.81 78.93 48.81 67.28 37.04 60.48"/><polygon class="cls-22" points="37.04 60.48 37.04 72.13 48.81 78.93 48.81 67.28 37.04 60.48"/><path class="cls-3" d="M64.78,59.78v-1.73l-15.98,9.22-11.77-6.8v1.73l11.32,6.54c.12,.07,.29,.11,.45,.11,.16,0,.32-.04,.45-.11l15.53-8.96Z"/><path class="cls-4" d="M66.2,56.11c0-.09-.06-.19-.19-.26l-12.55-7.25c-.25-.14-.65-.14-.9,0l-16.76,9.68c-.12,.07-.19,.17-.19,.26v1.94c0,.09,.06,.19,.19,.26l12.55,7.25c.25,.14,.65,.14,.9,0l16.76-9.67c.12-.07,.19-.16,.19-.26,0-.09,0-1.85,0-1.94Z"/><g><path class="cls-3" d="M35.62,58.54v1.94c0,.09,.06,.19,.19,.26l12.55,7.25c.12,.07,.29,.11,.45,.11l.84-17.81-13.85,7.99c-.12,.07-.19,.17-.19,.26Z"/><path class="cls-8" d="M49.25,67.99l16.76-9.67c.12-.07,.19-.16,.19-.26,0-.09,0-1.85,0-1.94s-.06-.19-.19-.26l-12.55-7.25c-.25-.14-.65-.14-.9,0l-2.91,1.68-.84,17.81c.16,0,.32-.04,.45-.11Z"/></g><path class="cls-4" d="M66.02,55.86l-12.55-7.25c-.25-.14-.65-.14-.9,0l-16.76,9.68c-.25,.14-.25,.37,0,.52l12.55,7.25c.25,.14,.65,.14,.9,0l16.76-9.67c.25-.14,.25-.37,0-.52Z"/></g><ellipse id="Shadow-3" class="cls-2" cx="50.23" cy="57.8" rx="7.15" ry="4.13"/><g id="Character-2"><path class="cls-13" d="M55.26,15.81c-.07-1.15-.09-1.71-.15-2.2-.05-.35-.11-.7-.23-1.04-.03-.07-.05-.17-.1-.24-.03-.05-.09-.1-.14-.13-.12-.1-.27-.16-.43-.18-.21-.03-.42,0-.62,.05-.16,.04-.32,.1-.46,.19-.14,.09-.26,.22-.32,.37-.04,.1-.05,.2-.03,.3,.02,.11,.08,.16,.15,.23,.13,.14,.23,.29,.27,.49-.21-.2-.3-.29-.44-.37-.28-.15-.48-.02-.54,.08-.05,.07,.14,.18,.33,.47,.24,.38,.26,.67,.62,1.01,.12,.12,.21,.27,.23,.44,.1,1.01-.35,3.05-.52,3.96-.26,1.36-2.62,4.36-3.51,4.82-.73,1.18,.91,2.87,2,2.86,.75-1.64,2.44-3.4,3.55-5.94,.23-.52,.29-.95,.32-1.43,.08-1.1,.08-2.43,0-3.74Z"/><path class="cls-14" d="M54.64,12.33c.07,0,.12,.03,.15,.08,.04,.07,.01,.14,.02,.21,0,.08,.05,.17,.06,.26,.02,.19,.05,.49-.12,.62-.05,.04-.12,.06-.17,.1-.06,.04-.09,.11-.14,.16-.08,.07-.18,.09-.29,.11-.09,.02-.19,.03-.28,.05-.08,.02-.15,.06-.23,.08-.17,.04-.36,.02-.52-.04-.28-.12-.45-.44-.41-.74,.01-.11,.05-.22,.07-.32,.02-.1-.01-.18,.02-.27,.05-.12,.24-.16,.36-.19,.21-.05,.43-.07,.64-.08,.19-.01,.38-.02,.57-.02,.07,0,.18-.01,.27,0Z"/><g id="Trophy-2"><g><g><path class="cls-19" d="M56.52,15.62s1.36,1.24,1.39,1.27c.03,.03,.08,.04,.14,.02l3.75-1.2c.06-.02,.12-.06,.17-.12l-4.6-4.18-.89,4.07c-.01,.06,0,.11,.03,.14Z"/><path class="cls-20" d="M62.08,15.41l.93-4.27c.01-.06,0-.11-.03-.14-.03-.03-1.36-1.24-1.39-1.27-.03-.03-.08-.04-.14-.02l-3.75,1.2c-.12,.04-.25,.17-.27,.3l-.04,.2,4.6,4.18c.05-.05,.09-.12,.1-.18Z"/></g><path class="cls-18" d="M60.41,14.44l-3.75,1.2c-.12,.04-.2-.03-.17-.16l.93-4.27c.03-.13,.15-.26,.27-.3l3.75-1.2c.12-.04,.2,.03,.17,.16l-.93,4.27c-.03,.13-.15,.26-.27,.3Z"/></g><g><path class="cls-4" d="M60.7,11.52s-.02-.07-.03-.11c0,0,0-.02-.01-.03-.01-.03-.02-.06-.04-.08,0,0,0-.02-.01-.02-.02-.03-.04-.06-.06-.09,0,0,0,0,0,0-.02-.03-.05-.05-.07-.08,0,0-.02-.01-.02-.02-.02-.02-.04-.03-.06-.05-.01,0-.02-.01-.03-.02-.02-.01-.04-.02-.06-.03-.01,0-.02-.01-.03-.02-.03-.01-.07-.03-.1-.04-.01,0-.02,0-.03,0-.03,0-.05-.01-.08-.02-.02,0-.03,0-.05,0-.01,0-.02,0-.04,0-.02,0-.04,0-.05,0,0,0-.02,0-.03,0-.69-.02-1.26,.36-1.76,.91-.5,.55-.82,1.16-.74,1.84,0,0,0,.02,0,.02,0,.02,0,.04,0,.06,0,.01,0,.03,0,.04,0,.02,0,.03,0,.05,0,.03,.02,.06,.02,.08,0,0,0,.02,0,.03,.01,.03,.03,.07,.05,.1,0,0,.01,.02,.02,.03,.01,.02,.03,.04,.04,.06,0,0,.01,.02,.02,.03,.02,.02,.04,.04,.05,.06,0,0,.01,.01,.02,.02,.05,.05,.12,.09,.18,.12,0,0,.01,0,.02,0,.03,.01,.06,.02,.09,.03,0,0,.02,0,.02,0,.04,0,.07,.02,.11,.02,0,0,0,0,0,0,.04,0,.09,0,.14,0,0,0,0,0,0,0,.04,0,.08,0,.13,0,0,0,.02,0,.03,0,.04,0,.08-.01,.12-.02,.01,0,.02,0,.03,0,.05-.01,.1-.02,.16-.04,.9-.29,1.8-1.28,2-2.2,.01-.05,.02-.11,.03-.16,0-.01,0-.02,0-.03,0-.04,0-.08,0-.12,0-.01,0-.02,0-.03,0-.04,0-.08,0-.12,0,0,0,0,0-.01,0-.05-.01-.09-.02-.13,0,0,0,0,0,0Z"/><g class="cls-22"><path d="M60.7,11.52s-.02-.07-.03-.11c0,0,0-.02-.01-.03-.01-.03-.02-.06-.04-.08,0,0,0-.02-.01-.02-.02-.03-.04-.06-.06-.09,0,0,0,0,0,0-.02-.03-.05-.05-.07-.08,0,0-.02-.01-.02-.02-.02-.02-.04-.03-.06-.05-.01,0-.02-.01-.03-.02-.02-.01-.04-.02-.06-.03-.01,0-.02-.01-.03-.02-.03-.01-.07-.03-.1-.04-.01,0-.02,0-.03,0-.03,0-.05-.01-.08-.02-.02,0-.03,0-.05,0-.01,0-.02,0-.04,0-.02,0-.04,0-.05,0,0,0-.02,0-.03,0-.69-.02-1.26,.36-1.76,.91-.5,.55-.82,1.16-.74,1.84,0,0,0,.02,0,.02,0,.02,0,.04,0,.06,0,.01,0,.03,0,.04,0,.02,0,.03,0,.05,0,.03,.02,.06,.02,.08,0,0,0,.02,0,.03,.01,.03,.03,.07,.05,.1,0,0,.01,.02,.02,.03,.01,.02,.03,.04,.04,.06,0,0,.01,.02,.02,.03,.02,.02,.04,.04,.05,.06,0,0,.01,.01,.02,.02,.05,.05,.12,.09,.18,.12,0,0,.01,0,.02,0,.03,.01,.06,.02,.09,.03,0,0,.02,0,.02,0,.04,0,.07,.02,.11,.02,0,0,0,0,0,0,.04,0,.09,0,.14,0,0,0,0,0,0,0,.04,0,.08,0,.13,0,0,0,.02,0,.03,0,.04,0,.08-.01,.12-.02,.01,0,.02,0,.03,0,.05-.01,.1-.02,.16-.04,.9-.29,1.8-1.28,2-2.2,.01-.05,.02-.11,.03-.16,0-.01,0-.02,0-.03,0-.04,0-.08,0-.12,0-.01,0-.02,0-.03,0-.04,0-.08,0-.12,0,0,0,0,0-.01,0-.05-.01-.09-.02-.13,0,0,0,0,0,0Z"/></g><g><path class="cls-4" d="M58.51,12.18s-.04,.05-.06,.06c-.05,.05-.07,.13-.04,.2,.2,.41,.43,.82,.69,1.24,.06,.09,.18,.12,.27,.05,.1-.08,.25-.2,.42-.39,.17-.19,.28-.34,.35-.45,.06-.09,.03-.21-.07-.26-.43-.22-.87-.41-1.3-.57-.07-.03-.15,0-.19,.05-.02,.02-.04,.04-.06,.07Z"/><path class="cls-4" d="M58.88,11.97c.4,.13,.81,.3,1.23,.51,.1,.05,.22,0,.26-.09,.06-.15,.13-.38,.14-.62,0-.11-.09-.22-.2-.23-.43-.05-.88,0-1.35,.11-.11,.03-.2,.1-.22,.16-.02,.06,.05,.12,.15,.16Z"/><path class="cls-4" d="M58.95,11.56c.45-.12,.88-.17,1.31-.15,.11,0,.17-.07,.11-.16-.03-.04-.06-.08-.1-.12-.08-.07-.26-.1-.37-.09-.38,.05-.76,.18-1.04,.36-.09,.06-.14,.13-.12,.16,.02,.03,.11,.02,.21,0Z"/><path class="cls-4" d="M58.61,11.48s-.02-.05,.03-.11c.03-.03,.06-.07,.1-.1,.09-.09,.37-.25,.7-.32,.11-.02,.28-.04,.38-.03,.1,0,.09,.04-.02,.05-.29,.04-.69,.18-.98,.4-.09,.07-.17,.12-.2,.12Z"/><path class="cls-4" d="M58.34,12.57c.17,.38,.38,.77,.62,1.17,.06,.09,.03,.22-.07,.27-.14,.07-.36,.16-.6,.19-.11,.02-.22-.07-.25-.18-.09-.43-.09-.88-.01-1.36,.02-.11,.08-.21,.13-.23,.05-.02,.13,.04,.17,.14Z"/><path class="cls-4" d="M57.93,12.68c-.07,.45-.09,.89-.03,1.32,.01,.11-.06,.18-.15,.13-.04-.02-.08-.05-.13-.09-.08-.08-.12-.25-.12-.36,.01-.38,.11-.77,.26-1.07,.05-.1,.12-.15,.15-.14,.03,.01,.03,.1,.02,.21Z"/><path class="cls-4" d="M57.83,12.34s-.05-.02-.11,.04c-.03,.03-.06,.07-.1,.11-.08,.1-.22,.39-.25,.73-.01,.11-.01,.28,0,.38,.02,.1,.05,.08,.05-.03,.01-.3,.11-.7,.3-1.02,.06-.09,.1-.18,.1-.21Z"/></g></g><path class="cls-4" d="M57.05,8.46s0,0-.01,.01c-.11,.11-.32,.18-.55,.01-.23-.16-.74-.72-.63-2.33,.09-1.37,.11-2.57-.68-3.35-.29-.29-.64-.4-.86-.27-.24,.13-.31,.52-.2,1.03,.08,.34,.31,.59,.4,.62,0,0,.01-.02,.02-.04,.03-.09,.12-.15,.22-.12,.09,.03,.15,.12,.12,.22-.08,.27-.27,.3-.35,.3-.32,0-.65-.48-.75-.89-.22-.97,.18-1.31,.37-1.41,.37-.2,.87-.07,1.28,.33,.89,.89,.88,2.17,.78,3.62-.08,1.18,.2,1.82,.48,2.03,.03,.02,.07,.05,.1,.03,.04-.03,.06-.16-.02-.28-.06-.08-.04-.19,.03-.24,.08-.06,.19-.04,.24,.03,.17,.22,.17,.54,0,.72Z"/><g class="cls-21"><path d="M57.05,8.46s0,0-.01,.01c-.11,.11-.32,.18-.55,.01-.23-.16-.74-.72-.63-2.33,.09-1.37,.11-2.57-.68-3.35-.29-.29-.64-.4-.86-.27-.24,.13-.31,.52-.2,1.03,.08,.34,.31,.59,.4,.62,0,0,.01-.02,.02-.04,.03-.09,.12-.15,.22-.12,.09,.03,.15,.12,.12,.22-.08,.27-.27,.3-.35,.3-.32,0-.65-.48-.75-.89-.22-.97,.18-1.31,.37-1.41,.37-.2,.87-.07,1.28,.33,.89,.89,.88,2.17,.78,3.62-.08,1.18,.2,1.82,.48,2.03,.03,.02,.07,.05,.1,.03,.04-.03,.06-.16-.02-.28-.06-.08-.04-.19,.03-.24,.08-.06,.19-.04,.24,.03,.17,.22,.17,.54,0,.72Z"/></g><g><path class="cls-4" d="M50.22,9.89c1.41,1.28,2.57,1.45,3.93,1.66,1.61,.25,3.12,0,3.87,.61,.03,.03,.09,.04,.16,.02,.14-.04,.27-.19,.3-.33,.02-.07,0-.12-.03-.15h0c-.7-.66-.57-2.21-.97-3.79-.34-1.34-.61-2.47-2.03-3.76l-5.23,5.75Z"/><path class="cls-3" d="M50.24,9.91c1.4,1.26,2.56,1.43,3.91,1.64,1.61,.25,3.12,0,3.87,.61,.03,.03,.09,.04,.16,.02,.03,0,.06-.02,.09-.04-.71-.6-1.69-1.09-2.82-1.21-1.17-.13-2.55-.58-3.76-1.68,0,0-.93,.28-1.3,.46l-.17,.19s.01,.01,.02,.02Z"/><path class="cls-4" d="M52.16,10.11c1.67-.53,3.32-2.35,3.7-4.06,.37-1.71-.68-2.67-2.35-2.13-1.67,.53-3.32,2.35-3.7,4.06s.68,2.67,2.35,2.13Z"/><path class="cls-9" d="M52.16,10.11c1.67-.53,3.32-2.35,3.7-4.06,.37-1.71-.68-2.67-2.35-2.13-1.67,.53-3.32,2.35-3.7,4.06s.68,2.67,2.35,2.13Z"/><path class="cls-4" d="M52.29,9.53c1.35-.43,2.69-1.91,2.99-3.29s-.55-2.16-1.9-1.73c-1.35,.43-2.69,1.91-2.99,3.29-.3,1.39,.55,2.16,1.9,1.73Z"/><path class="cls-21" d="M52.29,9.53c1.35-.43,2.69-1.91,2.99-3.29s-.55-2.16-1.9-1.73c-1.35,.43-2.69,1.91-2.99,3.29-.3,1.39,.55,2.16,1.9,1.73Z"/><path class="cls-21" d="M50.75,6.84c-.17,.31-.29,.64-.36,.96-.3,1.39,.55,2.16,1.9,1.73,.24-.08,.49-.19,.73-.33-1.7-.35-2.43-1.71-2.27-2.35Z"/></g><path class="cls-4" d="M56.22,12.35c-.09,.1-.23,.12-.36,.05-.08-.05-.11-.15-.07-.24,.04-.06,.11-.1,.17-.09,.01-.11-.03-.35-.18-.52-.07-.08-.19-.17-.31-.15-.11,.02-.32,.14-.56,.72-.32,.79-.63,1.45-1.15,1.58-.27,.07-.57-.02-.87-.28-.56-.46-1-1.46-.96-2.18,.02-.36,.16-.62,.4-.78,.16-.1,.38-.08,.58,.05,.25,.16,.47,.5,.41,.88-.01,.1-.1,.16-.2,.15-.1-.01-.16-.1-.15-.2,.03-.23-.11-.44-.26-.54-.08-.05-.16-.07-.2-.05-.14,.09-.22,.26-.24,.5-.04,.6,.36,1.5,.83,1.88,.22,.18,.41,.25,.57,.21,.36-.09,.65-.73,.91-1.37,.23-.56,.51-.87,.82-.93,.22-.04,.45,.05,.63,.26,.27,.29,.36,.8,.18,1.02,0,0,0,.01-.01,.02Z"/><g class="cls-23"><path d="M56.22,12.35c-.09,.1-.23,.12-.36,.05-.08-.05-.11-.15-.07-.24,.04-.06,.11-.1,.17-.09,.01-.11-.03-.35-.18-.52-.07-.08-.19-.17-.31-.15-.11,.02-.32,.14-.56,.72-.32,.79-.63,1.45-1.15,1.58-.27,.07-.57-.02-.87-.28-.56-.46-1-1.46-.96-2.18,.02-.36,.16-.62,.4-.78,.16-.1,.38-.08,.58,.05,.25,.16,.47,.5,.41,.88-.01,.1-.1,.16-.2,.15-.1-.01-.16-.1-.15-.2,.03-.23-.11-.44-.26-.54-.08-.05-.16-.07-.2-.05-.14,.09-.22,.26-.24,.5-.04,.6,.36,1.5,.83,1.88,.22,.18,.41,.25,.57,.21,.36-.09,.65-.73,.91-1.37,.23-.56,.51-.87,.82-.93,.22-.04,.45,.05,.63,.26,.27,.29,.36,.8,.18,1.02,0,0,0,.01-.01,.02Z"/></g></g><path class="cls-19" d="M44.17,18.54c-.33,.7-.45,1.48-.63,2.22-.18,.75-.51,1.31-1.17,1.73-.36,.24-.76,.41-1.13,.64-.37,.23-.71,.52-.89,.92-.28,.64,.02,1.27,.67,1.49-.29,.41-.38,.91-.26,1.4,.16,.67,.71,1.23,1.36,1.43,.54,.17,1.13,.17,1.69,.09,1.49-.23,2.87-1.09,3.71-2.34,.51-.75,.83-1.64,.92-2.54,.05-.45,.04-.91-.03-1.36-.07-.46-.04-.92-.11-1.39-.12-.78-.35-1.55-.78-2.21-.32-.48-.72-.86-1.21-1.16-.82-.51-1.71,.19-2.08,.9-.03,.05-.06,.11-.08,.17Z"/><g><g><path class="cls-13" d="M51.58,33.18c.49,2.15,.65,2.74,1.03,4.02,.29,.95,1,4.01,1.39,6.65,.08,.57-.38,1.96-.59,2.49-1.21,3.1-3.21,8.05-3.21,8.05-.18,.48-.22,.86-.17,1.32,.06,.56,.29,1.3,.57,1.94,.09,.2,.19,.43,.31,.63,.28,.61-.11,.72-.73,.45-.66-.29-1.07-.98-1.25-1.49-.27-.75-.78-1.93-.76-2.31h0s.01-.05,.01-.05h0s0,0,0,0l.1-.75s.5-2.33,.88-4.99c.34-2.37,.54-3.15,1.62-4.86l-4.33-9.11,5.13-1.98Z"/><g><path class="cls-20" d="M47.34,55.48s-.14,.24-.14,.45c.11,.55,.71,.94,.95,1.29,.24,.35,.49,1.11,.65,1.56,.03,.1,.08,.19,.14,.28,.05,.08,.08,.17,.13,.24,.13,.16,.36,.28,.55,.37,.4,.19,.86,.25,1.3,.22,.33-.02,.68-.11,.93-.33,.11-.1,.19-.23,.16-.37-.04-.15-.2-.22-.35-.27-.31-.1-.62-.19-.92-.31-.25-.1-.49-.22-.7-.38-.2-.16-.36-.35-.53-.54-.35-.39-.69-.78-1.05-1.16-.07-.07-1.01-1.13-1.1-1.04Z"/><path class="cls-18" d="M47.77,54.57c-.19,.28-.62,.72-.42,1.21,.18,.43,.61,.83,.91,1.17,.16,.19,.22,.39,.32,.61,.16,.35,.25,.73,.41,1.09,.2,.44,.7,.7,1.15,.8,.45,.1,.92,.07,1.36-.03,.18-.04,.36-.09,.47-.23,.11-.14,.12-.34,.06-.5-.06-.17-.18-.31-.3-.43-.2-.19-.43-.36-.64-.55-.38-.35-.51-.79-.66-1.27-.11-.34-.26-.82-.21-1.04,.02-.11,.07-.27,.05-.34-.02-.08-.06-.12-.13-.16-.16-.08-.36-.06-.55-.05-.16,0-.32,.06-.48,.07-.27,.03-.54-.1-.71-.37-.07-.12-.14-.27-.13-.44l.04-.16c-.16-.13-.34,.28-.55,.6Z"/></g><path class="cls-18" d="M53.42,39.91s-1.44-5.8-1.88-6.95l-5.29,2.04,4.41,9.26c-.36,.35-1.18,1.88-1.38,3.41-.19,1.53-.78,5.16-.78,5.16,0,0,.24,.49,.97,.77,.73,.27,1.05,0,1.05,0,0,0,2.31-5.5,2.88-6.93,.58-1.43,.87-1.91,.69-3.17-.18-1.26-.36-1.96-.66-3.6Z"/><path class="cls-20" d="M49.95,37.69s1.13-.51,1.54-1.99c0,0-.57,1-1.77,1.4l-.58,3.97,1.52,3.2-1.15-3.18,.44-3.4Z"/></g><g><g><path class="cls-20" d="M41.98,36.93c-.14-.24-.28-.37-.49-.47-.21-.1-.84-.07-1.22,.38-.38,.45-.46,1.09-.7,1.43-.24,.35-.88,.82-1.25,1.12-.33,.27-.75,1.03-.67,1.8,.05,.49,.3,.71,.57,.85l3.75-5.1Z"/><path class="cls-18" d="M41.82,36.74c-.31-.14-.86-.06-1.25,.3-.34,.31-.57,.87-.78,1.26-.12,.22-.29,.34-.46,.51-.2,.19-.7,.57-.88,.78-.15,.17-.26,.37-.35,.57-.1,.22-.18,.46-.19,.7-.03,.38,.08,.94,.36,1.2,.29,.26,.77,.32,1.08-.12,.09-.13,.18-.26,.26-.39,.14-.23,.36-.51,.56-.7,.3-.3,.68-.57,.91-.7,.04-.02,.07-.05,.11-.06,.41-.19,.82-.36,.88-.5,.05-.12,.16-1.42,.48-1.69,.08-.07,.04-.19-.04-.31-.08-.11-.37-.69-.68-.84Z"/></g><path class="cls-13" d="M45.18,32.46c-.59,1.76-.77,2.74-.73,4.82,.02,1.36,.23,4.58,.36,6.14,.12,1.56,.14,2.73,.73,3.22,.6,.49,1.87,.34,2.33-.69,.46-1.03,.81-2.27,1.12-4.17,.31-1.9,.22-3.11,.22-3.11l.19-5.14-4.21-1.08Z"/><path class="cls-13" d="M46.38,46.92c-.69,.05-1.13-.18-2.15-1.78-1.02-1.6-3.14-5.82-3.14-5.82,0,0-.3-.81,.27-1.38,.63-.64,1.04-.29,1.04-.29,0,0,.54,.68,1.14,1.34,.56,.61,1.26,1.2,1.75,1.77,.34,.4,1.09,6.16,1.09,6.16Z"/><path class="cls-18" d="M44.57,40.01s-.31-2.51-.21-4.26c.1-1.75,.82-3.28,.82-3.28l6.65,1.32c-.06,2.16-2.1,3.32-2.1,3.32l-.79,5.35c-.67,3.31-1.01,4.36-2.37,4.59-1.35,.23-2.12-1.44-2.69-2.28-.56-.85-1.81-3.53-1.81-3.53,0,0,.07-.82,.69-1.32,.62-.5,1.16-.54,1.16-.54l.66,.64Z"/><path class="cls-20" d="M44.57,40.01s.21,3.86,.39,5.22c-.04-.11-.39-1.05-.61-2.85-.22-1.8-.2-2.79-.2-2.79l.43,.41Z"/></g></g><g><g><path class="cls-4" d="M51.34,31.18c.03-.46,0-1.21,0-1.44,1.14-1.09,.8-2.26,.37-3.12-.86-1.72-1.68-2.69-2.43-2.65l-2.07,.18c-1.13,.15-1.9,.28-2.17,.35-.69,.16-.67,.67-.7,1.4-.03,.81-.1,.94,.1,2.28l.98,2.05,.18,1.04c-.21,.46-1.15,1.86-1.3,3.98,0,0,1.61,.55,4.1,.57,2.61,.02,3.71-1.12,3.71-1.12l-.77-3.53Z"/><path class="cls-3" d="M46.59,29.16s.46,1.01,1.76,.97c1.18-.04,1.66-1.04,1.66-1.04,0,0-.05,1.36-1.66,1.36-1.6,0-1.76-1.3-1.76-1.3Z"/></g><g><path class="cls-19" d="M50.82,18.43c.29-.71,.46-2.09-.38-2.47-.32-.15-.7-.05-1.05,.03-.48,.11-.97,.2-1.46,.25-1.53,.16-2.55,.4-3.1,2.02-.35,1.02-.88,2.44-.28,3.33,.64,.94,1.71,1.47,3.23,1.33,0,.1,.84-.08,.92-.1,.43-.12,.82-.63,1.06-.97,.12-.17,.24-.35,.34-.54,.09-.15,.14-.32,.22-.47,.09-.17,.26-.32,.37-.48,.12-.17,.22-.35,.29-.55,.14-.38,.18-1.04-.21-1.31,.01-.02,.02-.05,.03-.07Z"/><path class="cls-13" d="M49.57,17.56c.41,.19,.97,1.12,1.12,3.15,.12,1.73-.4,2.2-.67,2.35-.27,.15-.82,.12-1.35,.09l.1,1.03s1.6,1.45,.41,1.72c-.6,.13-1.39-.18-1.94-.53-.56-.37-.77-1.02-.77-1.02l-.2-2.25s-.28,.33-.85-.08c-.47-.34-.67-.96-.37-1.34,.31-.37,.94-.34,1.22,.13,0,0,.31,0,.57-.61,0,0,.7,.06,1.45-.47,1.04-.74,1.22-1.82,1.29-2.17Z"/><path class="cls-19" d="M48.41,20.38c.02,.12-.06,.24-.18,.25-.12,.02-.23-.07-.25-.19-.02-.12,.06-.24,.18-.25,.12-.02,.23,.07,.25,.19Z"/><path class="cls-16" d="M48.55,21.67l.96,.21c-.05,.28-.31,.45-.58,.39-.27-.06-.44-.33-.39-.6Z"/><path class="cls-14" d="M48.94,22.28c.08,.02,.16,.01,.23,0-.03-.23-.22-.41-.46-.41-.05,0-.1,.01-.15,.03,.04,.19,.19,.35,.38,.4Z"/><path class="cls-19" d="M50.31,19.52l-.47-.26c.07-.13,.23-.18,.36-.11,.13,.07,.18,.24,.11,.37Z"/><path class="cls-19" d="M48.04,19.64l-.48,.24c-.07-.13-.02-.29,.11-.36,.13-.07,.3-.01,.37,.12Z"/><path class="cls-19" d="M50.25,20.16c.02,.12-.06,.24-.18,.25-.12,.02-.23-.07-.25-.19-.02-.12,.06-.24,.18-.25,.12-.02,.23,.07,.25,.19Z"/><polygon class="cls-14" points="49.2 20.13 49.35 21.43 50.02 21.15 49.2 20.13"/><path class="cls-14" d="M48.67,23.15c-.56-.02-1.73-.24-1.95-.68,0,0,.09,.28,.45,.54,.37,.26,1.53,.48,1.53,.48l-.03-.34Z"/><path class="cls-19" d="M46.27,20.81l.08,.91h0c.34-.03,.59-.33,.56-.67l-.08-.84-.57,.61Z"/></g><path class="cls-13" d="M40.65,22.12c1.56,3.17,2.72,4.06,3.79,6.06,1.77,.08,1.9-2.66,1.09-3.78,0,0-2.58-2.55-3.02-3.87-.4-1.22-.98-3.34-.95-4.36,0-.17,.08-.33,.2-.45,.34-.36,.34-.65,.55-1.05,.17-.31,.35-.43,.3-.5-.07-.09-.28-.21-.54-.04-.13,.08-.22,.18-.41,.4,0,0,.05-.76,.32-1.37,.37-.84,.28-1.27-.85-.97-.71,.19-1.33,.74-1.43,2.45-.03,.49-.05,1.55,.01,2.17,.12,1.31,.28,2.51,.45,3.6,.07,.48,.29,1.28,.51,1.72Z"/></g><path class="cls-13" d="M54.45,12.47s0,.05,0,.07c0,.11,.05,.21,.17,.24,.02-.03,.03-.06,.05-.09,.05,.1,.09,.21,.09,.32,0,.11-.03,.23-.1,.32-.06,.07-.15,.12-.23,.17-.07,.06-.14,.13-.22,.18-.04,.03-.09,.05-.14,.06-.05,0-.1-.01-.15,0-.11,.01-.21,.1-.31,.14-.22,.08-.48,0-.66-.15s-.28-.38-.34-.61c-.02-.09-.05-.18-.03-.28,.02-.11,.04-.22,.07-.32,.04-.13,.09-.26,.2-.35,.09-.07,.19-.11,.3-.15,.22-.08,.44-.15,.68-.18,.14-.02,.28-.02,.42,0,.07,.01,.14,.03,.2,.06,.02,0,.14,.07,.12,.1-.06,.14-.13,.3-.14,.46Z"/></g><g id="Podium-3"><polygon class="cls-4" points="32.06 87.63 32.06 80.83 47.97 71.65 47.97 78.44 32.06 87.63"/><polygon class="cls-23" points="32.06 87.63 32.06 80.83 47.97 71.65 47.97 78.44 32.06 87.63"/><polygon class="cls-4" points="21.13 74.52 21.13 81.32 32.06 87.63 32.06 80.83 21.13 74.52"/><polygon class="cls-24" points="21.13 74.52 21.13 81.32 32.06 87.63 32.06 80.83 21.13 74.52"/><path class="cls-22" d="M47.97,73.37v-1.73l-15.91,9.18-10.93-6.31v1.73l10.48,6.05c.12,.07,.29,.11,.45,.11,.16,0,.32-.04,.45-.11l15.46-8.93Z"/><path class="cls-4" d="M48.15,70.42c0-.09-.06-.19-.19-.26l-11.71-6.76c-.25-.14-.65-.14-.9,0l-15.46,8.93c-.12,.07-.19,.17-.19,.26v1.94c0,.09,.06,.19,.19,.26l11.71,6.76c.25,.14,.65,.14,.9,0l15.46-8.93c.12-.07,.19-.16,.19-.26,0-.09,0-1.85,0-1.94Z"/><path class="cls-21" d="M32.51,81.54l15.46-8.93c.12-.07,.19-.16,.19-.26,0-.09,0-1.85,0-1.94s-.06-.19-.19-.26l-11.71-6.76c-.25-.14-.65-.14-.9,0l-2.52,1.46-.78,16.8c.16,0,.32-.04,.45-.11Z"/><path class="cls-23" d="M19.71,72.58v1.94c0,.09,.06,.19,.19,.26l11.71,6.76c.12,.07,.29,.11,.45,.11l.78-16.8-12.94,7.47c-.12,.07-.19,.17-.19,.26Z"/><path class="cls-4" d="M47.97,70.16l-11.71-6.76c-.25-.14-.65-.14-.9,0l-15.46,8.93c-.25,.14-.25,.37,0,.52l11.71,6.76c.25,.14,.65,.14,.9,0l15.46-8.93c.25-.14,.25-.37,0-.52Z"/><path class="cls-1" d="M47.97,70.16l-11.71-6.76c-.25-.14-.65-.14-.9,0l-15.46,8.93c-.25,.14-.25,.37,0,.52l11.71,6.76c.25,.14,.65,.14,.9,0l15.46-8.93c.25-.14,.25-.37,0-.52Z"/></g><ellipse id="Shadow-4" class="cls-2" cx="32.25" cy="71.8" rx="7.61" ry="4.4"/><g id="Character-3"><path class="cls-16" d="M37.03,31.85c-1.08,2.37-2.64,4.09-3.54,6.16-1.76,.22-2.39-1.97-1.67-3.16,0,0,2.9-3.09,3.23-4.44,.3-1.24,.71-3.41,.6-4.42-.02-.17-.11-.32-.23-.43-.36-.33-.39-.62-.63-1-.19-.3-.38-.4-.34-.47,.06-.09,.26-.23,.54-.08,.14,.07,.23,.16,.44,.36,0,0-.11-.75-.43-1.34-.44-.81-.38-1.24,.77-1.03,.72,.13,1.38,.63,1.62,2.32,.07,.49,.17,1.54,.16,2.16-.02,1.32-.08,2.53-.16,3.62-.03,.49-.17,1.31-.37,1.75Z"/><path class="cls-4" d="M31.41,34.78s1.12-1.06,1.68-1.65c.56-.59,1.6-1.91,1.6-1.91,0,0,1.88,.28,2.04,2.44,0,0-.91,1.19-1.82,2.62-.79,1.24-.77,2.17-.77,2.17,0,0-3-1.25-2.72-3.68Z"/><path class="cls-23" d="M31.41,34.78s1.12-1.06,1.68-1.65c.56-.59,1.6-1.91,1.6-1.91,0,0,1.88,.28,2.04,2.44,0,0-.91,1.19-1.82,2.62-.79,1.24-.77,2.17-.77,2.17,0,0-3-1.25-2.72-3.68Z"/><g><path class="cls-19" d="M26.34,71.44c-.08,.36-.05,.46,.19,.67s.74,.56,.85,.98,.24,1.11,.94,1.56c.7,.45,1.66,.67,2.38,.57s.89-.32,.92-.53c.03-.21-.04-.67-.43-1.03-.39-.36-4.86-2.22-4.86-2.22Z"/><polygon class="cls-16" points="26.71 71 28.43 71 28.64 67.88 26.71 67.94 26.71 71"/><polygon class="cls-16" points="31.98 68.72 33.76 68.35 34.01 64.99 31.98 64.92 31.98 68.72"/><path class="cls-20" d="M26.61,43.72c-.34,4.02,0,13.86,0,13.86-.04,.43-.51,2.21-.43,3.88,.11,2.27,.5,7.83,.5,7.83,0,0,1.01,.45,1.96,.04,0,0,1.11-8.33,1.38-10.58,.24-1.96,.69-7.58,.69-7.58l.82,6.06s-.28,1.17-.19,2.51c.07,1.04,.59,7.17,.59,7.17,0,0,.96,.52,1.99,.16,0,0,.98-8.9,1-9.86,.02-1.09-.38-11.19-.38-11.19l-7.94-2.29Z"/><path class="cls-20" d="M28.44,69.89c.1-.01,.22,0,.29,.07,.05,.05,.07,.13,.09,.19,.2,.77,.65,1.5,1.19,2.08,.51,.55,1.41,1.35,1.6,1.92,.2,.6-.76,.91-1.75,.78-.59-.08-1.66-.62-1.91-1.02-.26-.4-.38-.99-.58-1.28s-.9-.86-1.01-1.2c-.06-.19,.01-.59,.1-.94,.03-.14,.09-.6,.26-.64-.03,0,.02,.25,.03,.27,.02,.07,.04,.13,.09,.19,.12,.15,.34,.28,.54,.24,.2-.04,.32-.23,.46-.36,.16-.15,.36-.26,.58-.3,.01,0,.02,0,.03,0Z"/><path class="cls-19" d="M31.67,70.27c-.01,.28,0,.34,.14,.43,.15,.09,.97,.19,1.37,.18,.4,0,1.09,.14,1.56,.42,.43,.26,1.17,.6,2.11,.47,.94-.13,1.24-.27,1.41-.46s.24-.77-.14-.87-6.46-.17-6.46-.17Z"/><path class="cls-20" d="M33.8,67.75s.04-.02,.05-.02c.07-.03,.15-.05,.22-.03,.1,.03,.15,.13,.19,.22,.14,.27,.33,.52,.55,.73,.22,.2,.52,.34,.78,.47,.67,.35,1.97,.89,2.56,1.16,.37,.17,.35,.64-.03,.9-.38,.26-1.3,.45-2.4,.2-.6-.14-1.35-.57-1.88-.69-.48-.11-1.81-.16-2.18-.42-.23-.48-.22-.82-.12-1.3,.11-.52,.25-1.34,.42-1.31-.02,0,.02,.2,.03,.22,.06,.17,.17,.34,.32,.45,.15,.11,.35,.17,.53,.11,.2-.06,.34-.24,.49-.38,.14-.13,.29-.23,.46-.31Z"/><path class="cls-19" d="M34.01,68.58c.49,.4,1.38,1.04,1.95,1.14,.57,.1,.65-.12,.65-.12h0c-.38-.17-.75-.34-1.02-.48-.26-.14-.56-.27-.78-.47-.22-.21-.41-.45-.55-.73-.05-.09-.1-.19-.19-.22-.07-.02-.15,0-.22,.03-.02,0-.04,.01-.05,.02-.17,.08-.33,.18-.46,.31-.15,.14-.29,.32-.49,.38,.38-.12,.67-.26,1.16,.14Z"/><path class="cls-19" d="M30.8,50s1.17-.43,2.07-1.34c0,0-.19,.93-1.65,1.69l.24,6.32-.76-5.51,.09-1.17Z"/></g><path class="cls-18" d="M25.52,38.82c.55,1.59,1.06,4.37,1.06,4.37l-.25,4.55c2.23,1.04,6.05,.98,8.29-.82,0,0-.04-7.18-.7-9.46-.47-1.62-1.54-2.72-2.7-2.69-1.22,.04-2.78,.21-2.78,.21l-2.35,.4s-1.13,1.85-.59,3.44Z"/><g><path class="cls-4" d="M24.73,32.75c-.15-.08-1.1,.65-1.52,1.25-.42,.6-.46,1.44-.32,1.62,.14,.17,1.84-.6,1.84-.6v-2.26Z"/><path class="cls-25" d="M24.73,32.75c-.15-.08-1.1,.65-1.52,1.25-.42,.6-.46,1.44-.32,1.62,.14,.17,1.84-.6,1.84-.6v-2.26Z"/><path class="cls-16" d="M21.78,32.86c1.56,3.17,2.72,4.06,3.79,6.06,1.1-.09,1.64-2.36,1.16-3.55,0,0-2.66-2.78-3.09-4.1-.4-1.22-.98-3.34-.95-4.36,0-.17,.08-.33,.2-.45,.34-.36,.34-.65,.55-1.05,.17-.31,.35-.43,.3-.5-.07-.09-.28-.21-.54-.04-.13,.08-.22,.18-.41,.4,.02-.28,.07-.57,.14-.85,.05-.21,.17-.41,.14-.63-.03-.2-.08-.42-.25-.55-.14-.11-.34-.13-.52-.11-.45,.05-.96,.35-1.15,.77-.21,.46-.28,.98-.31,1.48-.03,.49-.05,1.55,.01,2.17,.12,1.31,.28,2.51,.45,3.6,.07,.48,.29,1.28,.51,1.72Z"/><path class="cls-4" d="M26.82,35.38l-2.09-2.63s-.04,2.31-1.84,2.86l2.69,3.4c.31,.52,1.16-.16,1.35-1.32,.27-1.63-.11-2.32-.11-2.32Z"/><path class="cls-23" d="M26.82,35.38l-2.09-2.63s-.04,2.31-1.84,2.86l2.69,3.4c.31,.52,1.16-.16,1.35-1.32,.27-1.63-.11-2.32-.11-2.32Z"/></g><g><g><path class="cls-19" d="M29.35,29.12c.05,1.1,.98,1.94,2.08,1.89,1.1-.05,1.94-.98,1.89-2.08-.05-1.1-.98-1.94-2.08-1.89s-1.94,.98-1.89,2.08Z"/><path class="cls-19" d="M26.86,28.87c.06-.1,.15-.19,.26-.24,.13-.06,.31-.18,.4-.03,.06,.1,.03,.27,.05,.38,.05,.38,.11,.76,.16,1.15,0,.04,.08,.34,.05,.37,0,0,.38-.34,.38-.34l.08,3.17s-.24,0-.36-.29c-.15-.35-.22-.72-.33-1.04-.11-.34-.29-.77-.41-1.11-.19-.51-.44-.88-.42-1.42,0-.16,.02-.33,.09-.48,.02-.04,.04-.08,.06-.12Z"/><path class="cls-16" d="M28.06,31.08c-.13,.09-.34-.16-.52-.33-.18-.17-.74-.38-.98,.21-.25,.6,.32,1.32,.74,1.47,.55,.19,.69-.19,.69-.19l.14,3.12h0c.98,1.14,3.75,.66,2.62-.53l-.04-1.01s.68,.07,1.01,0c.54-.11,.87-.56,1.01-1.16,.22-.96,.29-1.74-.03-3.6-.34-2.04-2.73-1.95-3.98-1.08-1.25,.87-.65,3.09-.65,3.09Z"/><path class="cls-19" d="M32.37,28.63c-.37,.2-.79,.34-1.21,.39-.65,.07-1.34-.08-1.88-.45-.02,.26-.15,.51-.35,.68-.2,.17-.47,.25-.73,.22,.16,.49,.17,1.03,.03,1.53-.02,.06-.04,.13-.09,.18-.19,.2-.46-.31-.59-.42-.09-.08-.09-.26-.1-.37-.02-.22-.02-.43,0-.65,.02-.68-.24-1.4,.06-2.05,.26-.56,.85-.89,1.45-1.02,.6-.13,1.22-.1,1.83-.12,.61-.02,1.25-.11,1.76-.45,.11-.07,.23-.16,.35-.11,.1,.04,.15,.16,.17,.26,.07,.39-.02,.8-.25,1.11,.11-.12,.33-.08,.43,.05s.1,.32,.03,.47c-.07,.15-.19,.27-.32,.37-.18,.15-.37,.28-.57,.39Z"/><path class="cls-15" d="M30.72,33.82s-1.1-.13-1.54-.34c-.29-.14-.62-.5-.69-.67,0,0,.03,.41,.31,.73,.33,.38,1.94,.6,1.94,.6l-.02-.33Z"/></g><g><path class="cls-19" d="M30.27,30.67c0,.14-.1,.26-.23,.27-.14,0-.25-.1-.26-.24,0-.14,.1-.26,.23-.27,.14,0,.25,.1,.26,.24Z"/><path class="cls-19" d="M29.97,29.75l-.51,.31c-.08-.15-.04-.34,.1-.42,.14-.09,.32-.04,.41,.11Z"/><path class="cls-15" d="M30.29,32.11l.91,.29c-.08,.26-.34,.4-.59,.32-.25-.08-.39-.36-.32-.62Z"/><path class="cls-19" d="M32.42,29.84l-.5-.35c.09-.14,.28-.18,.41-.08,.14,.1,.17,.29,.08,.43Z"/><path class="cls-19" d="M32.31,30.5c0,.14-.1,.26-.23,.27-.14,0-.25-.1-.26-.24,0-.14,.1-.26,.23-.27,.14,0,.25,.1,.26,.24Z"/><polygon class="cls-15" points="31.05 30.33 31.2 31.8 31.95 31.5 31.05 30.33"/></g></g><path class="cls-19" d="M29.25,72.62c.61,.52,1.07,.29,1.06,.11,0-.04-.03-.14-.08-.25-.08-.08-.16-.16-.23-.23-.54-.59-.99-1.31-1.19-2.08-.02-.07-.04-.14-.09-.19-.07-.07-.18-.08-.29-.07-.01,0-.02,0-.03,0-.22,.04-.42,.15-.58,.3-.14,.14-.27,.32-.46,.36,.38-.01,1.28,1.53,1.89,2.06Z"/><g id="Trophy-3"><g><g><path class="cls-19" d="M14.32,28.59s-.6,1.47-.61,1.5c-.01,.03,0,.08,.03,.12l2.08,2.67s.09,.08,.15,.1l2.01-4.96-3.55,.5c-.06,0-.09,.03-.11,.07Z"/><path class="cls-20" d="M16.15,33.02l3.73-.52c.06,0,.09-.03,.11-.07,.01-.03,.6-1.47,.61-1.5,.01-.03,0-.08-.03-.12l-2.08-2.67c-.07-.09-.21-.15-.32-.13l-.18,.02-2.01,4.96c.06,.02,.12,.03,.18,.03Z"/></g><path class="cls-18" d="M16.43,31.38l-2.08-2.67c-.07-.09-.03-.17,.08-.19l3.73-.52c.11-.02,.26,.04,.32,.13l2.08,2.67c.07,.09,.03,.17-.08,.19l-3.73,.52c-.11,.02-.26-.04-.32-.13Z"/></g><g><path class="cls-4" d="M18.87,30.75s.05-.04,.08-.06c0,0,.01-.01,.02-.02,.02-.02,.04-.04,.05-.05,0,0,.01-.01,.02-.02,.02-.02,.04-.05,.05-.07,0,0,0,0,0,0,.02-.03,.03-.05,.04-.08,0,0,0-.02,0-.03,0-.02,.01-.04,.02-.06,0-.01,0-.02,0-.03,0-.02,0-.04,0-.06,0-.01,0-.02,0-.03,0-.03,0-.06,0-.09,0,0,0-.02,0-.03,0-.02,0-.05-.01-.07,0-.01,0-.03-.01-.04,0-.01,0-.02,0-.03,0-.01,0-.03-.01-.04,0,0,0-.02,0-.02-.19-.56-.67-.91-1.26-1.15-.59-.24-1.18-.32-1.71-.05,0,0-.01,0-.02,0-.02,0-.03,.02-.04,.02-.01,0-.02,.01-.03,.02-.01,0-.02,.01-.03,.02-.02,.01-.04,.03-.06,.05,0,0-.01,.01-.02,.02-.02,.02-.05,.04-.07,.07,0,0-.01,.01-.02,.02-.01,.02-.03,.04-.04,.05,0,0-.01,.02-.02,.03-.01,.02-.02,.04-.03,.06,0,0,0,.01,0,.02-.02,.06-.04,.12-.04,.18,0,0,0,.01,0,.02,0,.03,0,.05,0,.08,0,0,0,.01,0,.02,0,.03,0,.06,.02,.1,0,0,0,0,0,0,0,.04,.02,.07,.03,.11,0,0,0,0,0,0,.01,.03,.03,.07,.04,.1,0,0,0,.02,.01,.02,.02,.03,.03,.06,.05,.09,0,0,0,.01,.01,.02,.02,.04,.05,.08,.08,.11,.5,.64,1.57,1.08,2.38,.96,.05,0,.09-.02,.14-.03,0,0,.02,0,.03,0,.03,0,.07-.02,.1-.03,0,0,.02,0,.03,0,.03-.01,.07-.03,.1-.04,0,0,0,0,.01,0,.04-.02,.07-.04,.1-.06,0,0,0,0,0,0Z"/><g class="cls-22"><path d="M18.87,30.75s.05-.04,.08-.06c0,0,.01-.01,.02-.02,.02-.02,.04-.04,.05-.05,0,0,.01-.01,.02-.02,.02-.02,.04-.05,.05-.07,0,0,0,0,0,0,.02-.03,.03-.05,.04-.08,0,0,0-.02,0-.03,0-.02,.01-.04,.02-.06,0-.01,0-.02,0-.03,0-.02,0-.04,0-.06,0-.01,0-.02,0-.03,0-.03,0-.06,0-.09,0,0,0-.02,0-.03,0-.02,0-.05-.01-.07,0-.01,0-.03-.01-.04,0-.01,0-.02,0-.03,0-.01,0-.03-.01-.04,0,0,0-.02,0-.02-.19-.56-.67-.91-1.26-1.15-.59-.24-1.18-.32-1.71-.05,0,0-.01,0-.02,0-.02,0-.03,.02-.04,.02-.01,0-.02,.01-.03,.02-.01,0-.02,.01-.03,.02-.02,.01-.04,.03-.06,.05,0,0-.01,.01-.02,.02-.02,.02-.05,.04-.07,.07,0,0-.01,.01-.02,.02-.01,.02-.03,.04-.04,.05,0,0-.01,.02-.02,.03-.01,.02-.02,.04-.03,.06,0,0,0,.01,0,.02-.02,.06-.04,.12-.04,.18,0,0,0,.01,0,.02,0,.03,0,.05,0,.08,0,0,0,.01,0,.02,0,.03,0,.06,.02,.1,0,0,0,0,0,0,0,.04,.02,.07,.03,.11,0,0,0,0,0,0,.01,.03,.03,.07,.04,.1,0,0,0,.02,.01,.02,.02,.03,.03,.06,.05,.09,0,0,0,.01,.01,.02,.02,.04,.05,.08,.08,.11,.5,.64,1.57,1.08,2.38,.96,.05,0,.09-.02,.14-.03,0,0,.02,0,.03,0,.03,0,.07-.02,.1-.03,0,0,.02,0,.03,0,.03-.01,.07-.03,.1-.04,0,0,0,0,.01,0,.04-.02,.07-.04,.1-.06,0,0,0,0,0,0Z"/></g><g><path class="cls-4" d="M17.69,29.18s-.05-.02-.07-.03c-.06-.03-.13-.02-.17,.03-.28,.28-.54,.59-.79,.93-.06,.08-.04,.18,.04,.23,.09,.06,.24,.14,.44,.22,.2,.08,.36,.12,.47,.15,.09,.02,.18-.04,.19-.14,.05-.42,.08-.82,.07-1.22,0-.06-.04-.12-.1-.14-.02,0-.05-.02-.07-.03Z"/><path class="cls-4" d="M17.97,29.41c.01,.36,0,.74-.05,1.14,0,.09,.06,.18,.15,.18,.14,0,.34,0,.54-.07,.09-.03,.15-.14,.12-.23-.09-.36-.26-.72-.49-1.06-.05-.08-.14-.13-.19-.13-.05,0-.09,.07-.08,.17Z"/><path class="cls-4" d="M18.33,29.34c.23,.33,.4,.66,.51,1.01,.03,.09,.11,.12,.17,.04,.02-.03,.05-.07,.06-.12,.03-.09,0-.24-.04-.32-.15-.29-.37-.56-.6-.73-.08-.06-.15-.07-.16-.05-.02,.02,.01,.09,.07,.17Z"/><path class="cls-4" d="M18.28,29.05s.04-.03,.1-.01c.03,.01,.07,.03,.11,.05,.1,.05,.32,.22,.47,.47,.05,.08,.12,.21,.14,.3,.02,.08,0,.08-.05,0-.12-.22-.35-.5-.61-.67-.08-.05-.15-.1-.16-.13Z"/><path class="cls-4" d="M17.33,29.15c-.26,.25-.51,.53-.76,.85-.06,.07-.17,.09-.23,.02-.1-.09-.24-.24-.34-.43-.04-.08,0-.2,.07-.25,.32-.2,.68-.33,1.09-.41,.09-.02,.19,0,.23,.04,.03,.04,0,.11-.06,.18Z"/><path class="cls-4" d="M17.12,28.85c-.39,.08-.75,.2-1.07,.37-.08,.04-.16,0-.15-.09,0-.04,.02-.08,.04-.13,.04-.09,.16-.17,.25-.2,.31-.11,.66-.14,.94-.1,.09,.01,.16,.05,.15,.08,0,.03-.07,.06-.17,.08Z"/><path class="cls-4" d="M17.36,28.67s0-.05-.06-.08c-.03-.02-.07-.03-.11-.04-.11-.03-.38-.06-.67,.01-.09,.02-.23,.07-.31,.12-.07,.04-.05,.06,.04,.03,.24-.08,.6-.12,.91-.06,.09,.02,.18,.03,.2,.02Z"/></g></g><path class="cls-4" d="M20.26,26.89s0,0-.01,0c-.12-.06-.24-.2-.17-.44,.07-.23,.36-.81,1.7-1.2,1.14-.33,2.11-.68,2.51-1.54,.15-.32,.13-.63-.04-.78-.18-.15-.51-.1-.89,.15-.25,.16-.39,.43-.38,.51,0,0,.02,0,.04,0,.08,0,.15,.06,.16,.14,0,.08-.06,.15-.14,.16-.25,.02-.32-.13-.34-.19-.09-.26,.19-.67,.5-.87,.72-.47,1.11-.24,1.25-.12,.28,.24,.32,.68,.11,1.13-.45,.98-1.49,1.35-2.7,1.71-.97,.28-1.41,.7-1.5,1,0,.03-.02,.07,0,.09,.04,.02,.15,0,.22-.1,.04-.07,.14-.09,.21-.05,.07,.04,.09,.14,.05,.21-.13,.21-.38,.3-.58,.22Z"/><g class="cls-21"><path d="M20.26,26.89s0,0-.01,0c-.12-.06-.24-.2-.17-.44,.07-.23,.36-.81,1.7-1.2,1.14-.33,2.11-.68,2.51-1.54,.15-.32,.13-.63-.04-.78-.18-.15-.51-.1-.89,.15-.25,.16-.39,.43-.38,.51,0,0,.02,0,.04,0,.08,0,.15,.06,.16,.14,0,.08-.06,.15-.14,.16-.25,.02-.32-.13-.34-.19-.09-.26,.19-.67,.5-.87,.72-.47,1.11-.24,1.25-.12,.28,.24,.32,.68,.11,1.13-.45,.98-1.49,1.35-2.7,1.71-.97,.28-1.41,.7-1.5,1,0,.03-.02,.07,0,.09,.04,.02,.15,0,.22-.1,.04-.07,.14-.09,.21-.05,.07,.04,.09,.14,.05,.21-.13,.21-.38,.3-.58,.22Z"/></g><g><path class="cls-4" d="M17.08,21.79c-.62,1.52-.41,2.51-.17,3.67,.28,1.38,.93,2.53,.66,3.31-.02,.04,0,.08,.03,.13,.08,.1,.23,.16,.36,.14,.06,0,.1-.04,.12-.07h0c.33-.76,1.62-1.12,2.78-1.92,.98-.67,1.81-1.23,2.43-2.76l-6.2-2.51Z"/><path class="cls-3" d="M17.07,21.82c-.6,1.5-.4,2.49-.16,3.65,.28,1.38,.93,2.53,.66,3.31-.02,.04,0,.08,.03,.13,.02,.02,.04,.04,.06,.06,.27-.75,.38-1.69,.14-2.64-.24-.98-.29-2.23,.24-3.54,0,0-.5-.67-.76-.91l-.2-.08s0,.01-.01,.02Z"/><path class="cls-4" d="M17.47,23.43c.93,1.19,2.89,1.98,4.38,1.78,1.49-.21,1.95-1.34,1.03-2.53-.93-1.19-2.89-1.98-4.38-1.78-1.49,.21-1.95,1.34-1.03,2.53Z"/><path class="cls-9" d="M17.47,23.43c.93,1.19,2.89,1.98,4.38,1.78,1.49-.21,1.95-1.34,1.03-2.53-.93-1.19-2.89-1.98-4.38-1.78-1.49,.21-1.95,1.34-1.03,2.53Z"/><path class="cls-4" d="M17.98,23.35c.75,.96,2.34,1.61,3.55,1.44,1.21-.17,1.58-1.09,.83-2.05-.75-.96-2.34-1.61-3.55-1.44-1.21,.17-1.58,1.09-.83,2.05Z"/><path class="cls-21" d="M17.98,23.35c.75,.96,2.34,1.61,3.55,1.44,1.21-.17,1.58-1.09,.83-2.05-.75-.96-2.34-1.61-3.55-1.44-1.21,.17-1.58,1.09-.83,2.05Z"/><path class="cls-21" d="M19.69,21.31c-.3-.04-.6-.05-.88,0-1.21,.17-1.58,1.09-.83,2.05,.14,.17,.3,.34,.48,.49-.22-1.47,.66-2.48,1.23-2.53Z"/></g><path class="cls-4" d="M16.87,27.37c-.11-.04-.16-.15-.14-.27,.01-.08,.09-.14,.17-.13,.06,0,.11,.06,.12,.11,.09-.02,.28-.13,.37-.3,.04-.08,.08-.2,.03-.3-.05-.08-.21-.22-.75-.24-.73-.03-1.36-.08-1.62-.46-.14-.2-.15-.47-.04-.79,.21-.59,.88-1.24,1.47-1.42,.29-.09,.55-.05,.75,.09,.13,.1,.18,.28,.13,.48-.06,.25-.26,.53-.59,.6-.08,.02-.16-.04-.18-.12-.02-.08,.04-.16,.12-.18,.2-.04,.32-.22,.36-.37,.02-.08,0-.15-.02-.17-.12-.09-.28-.1-.48-.04-.49,.15-1.1,.73-1.28,1.23-.08,.23-.08,.4,0,.52,.18,.26,.78,.31,1.38,.33,.52,.02,.86,.15,1,.39,.1,.17,.09,.38-.02,.59-.16,.3-.54,.53-.77,.45,0,0-.01,0-.02,0Z"/><g class="cls-23"><path d="M16.87,27.37c-.11-.04-.16-.15-.14-.27,.01-.08,.09-.14,.17-.13,.06,0,.11,.06,.12,.11,.09-.02,.28-.13,.37-.3,.04-.08,.08-.2,.03-.3-.05-.08-.21-.22-.75-.24-.73-.03-1.36-.08-1.62-.46-.14-.2-.15-.47-.04-.79,.21-.59,.88-1.24,1.47-1.42,.29-.09,.55-.05,.75,.09,.13,.1,.18,.28,.13,.48-.06,.25-.26,.53-.59,.6-.08,.02-.16-.04-.18-.12-.02-.08,.04-.16,.12-.18,.2-.04,.32-.22,.36-.37,.02-.08,0-.15-.02-.17-.12-.09-.28-.1-.48-.04-.5,.15-1.1,.73-1.28,1.23-.08,.23-.08,.4,0,.52,.18,.26,.78,.31,1.38,.33,.52,.02,.86,.15,1,.39,.1,.17,.09,.38-.02,.59-.16,.3-.54,.53-.77,.45,0,0-.01,0-.02,0Z"/></g></g></g><g id="Confetti"><path class="cls-4" d="M59.99,4.19c-.68,.59-.44,2.49,.68,2.36,.62-.07,1.23-.96,.69-1.47-.03-.03-.08-.02-.11,0-.6,.4-.87,1.11-.19,1.59,.6,.43,1.44,.31,1.96-.17,.03-.03-.03-.07-.06-.05-.52,.35-1.19,.51-1.75,.14-.2-.13-.37-.32-.4-.56-.02-.13,0-.26,.07-.38,.05-.1,.27-.41,.39-.41,.24,0,.14,.52,.08,.65-.11,.24-.35,.48-.61,.53-.44,.09-.73-.32-.86-.69-.17-.5-.15-1.07,.21-1.48,.03-.04-.05-.08-.08-.06h0Z"/><path class="cls-4" d="M54.92,26.5c.28-.63,.25-1.29,1.07-1.5,.36-.09,1.21-.18,1.48,.14,.11,.13,.05,.38-.07,.49-.21,.19-.37-.04-.43-.24-.1-.39,.09-.77,.41-.99,.71-.49,1.68-.3,2.2,.35,.03,.04,.06,0,.05-.04-.63-1.45-3.65-.44-2.68,.95,.29,.42,.81,.05,.71-.39-.11-.49-.95-.47-1.32-.44-.38,.02-.74,.12-1.02,.39-.33,.32-.37,.83-.44,1.26,0,.02,.02,.05,.03,.02h0Z"/><path class="cls-4" d="M82.16,4.79c.59-.17,1.4-.12,1.89,.27,.38,.31,.6,.97,.04,1.2-.22,.09-.95,.09-1.03-.21-.06-.21,.16-.33,.34-.36,.53-.08,1.02,.47,1.01,.97-.02,.75-.89,.99-1.5,1-.04,0-.03,.08,0,.08,1.04,.1,2.21-.87,1.28-1.84-.25-.26-.64-.45-1-.3-.2,.08-.36,.27-.26,.49,.16,.35,.82,.42,1.14,.32,.37-.11,.54-.45,.44-.82-.26-.94-1.58-1.14-2.36-.86-.02,0-.01,.06,.01,.05h0Z"/><path class="cls-4" d="M39.29,30.21c.59-.17,1.4-.12,1.89,.27,.38,.31,.6,.97,.04,1.2-.22,.09-.95,.09-1.03-.21-.06-.21,.16-.33,.34-.36,.53-.08,1.02,.47,1.01,.97-.02,.75-.89,.99-1.5,1-.04,0-.03,.08,0,.08,1.04,.1,2.21-.87,1.28-1.84-.25-.26-.64-.45-1-.3-.2,.08-.36,.27-.26,.49,.16,.35,.82,.42,1.14,.32,.37-.11,.54-.45,.44-.82-.26-.94-1.58-1.14-2.36-.86-.02,0-.01,.06,.01,.05h0Z"/><path class="cls-4" d="M86.95,28.87c.59-.17,1.4-.12,1.89,.27,.38,.31,.6,.97,.04,1.2-.22,.09-.95,.09-1.03-.21-.06-.21,.16-.33,.34-.36,.53-.08,1.02,.47,1.01,.97-.02,.75-.89,.99-1.5,1-.04,0-.03,.08,0,.08,1.04,.1,2.21-.87,1.28-1.84-.25-.26-.64-.45-1-.3-.2,.08-.36,.27-.26,.49,.16,.35,.82,.42,1.14,.32,.37-.11,.54-.45,.44-.82-.26-.94-1.58-1.14-2.36-.86-.02,0-.01,.06,.01,.05h0Z"/><path class="cls-4" d="M85.55,15.69c-.7,.21-1.35,1.44-.7,2,.55,.48,1.67,.37,1.49-.54,0-.02-.02-.04-.04-.05-.74-.18-.98,.68-.82,1.25,.24,.88,1.13,.87,1.77,.41,.02-.02,.01-.08-.02-.06-.53,.26-1.26,.5-1.58-.17-.17-.36-.18-.95,.15-1.23,.08-.07,.2-.14,.32-.12,.24,.03,.2,.29,.07,.46-.22,.27-.66,.24-.96,.14-1.01-.36-.32-1.67,.34-2.03,.02-.01,.02-.06-.01-.05h0Z"/><path class="cls-4" d="M82.74,24.1c-.83-.11-2.61,.59-2.14,1.72,.25,.6,1.35,.99,1.71,.3,.02-.04,0-.08-.04-.1-1.73-.98-3.54,1.84-1.71,2.88,.06,.03,.06-.06,.02-.09-.68-.51-.81-1.31-.36-2.02,.19-.29,.45-.55,.77-.69,.24-.11,.83-.27,1.05-.04,.1,.11,.1-.03,.05,.1-.03,.08-.14,.12-.21,.15-.18,.07-.39,.04-.57-.02-.39-.13-.68-.49-.58-.91,.2-.85,1.28-1.16,2.04-1.16,.05,0,.02-.1-.02-.1h0Z"/><path class="cls-18" d="M73.73,4.97s-.05,.93,.64,1.44l.72-.22s-.48-.23-.72-1.22h-.64Z"/><path class="cls-18" d="M55.56,28.9s-.05,.93,.64,1.44l.72-.22s-.48-.23-.72-1.22h-.64Z"/><path class="cls-18" d="M90.06,9.62s-.42,.83-1.27,.93l-.51-.55s.53,.04,1.24-.7l.55,.32Z"/><path class="cls-18" d="M84.21,36.63s-.42,.83-1.27,.93l-.51-.55s.53,.04,1.24-.7l.55,.32Z"/><path class="cls-4" d="M60.86,33.04s-.42,.83-1.27,.93l-.51-.55s.53,.04,1.24-.7l.55,.32Z"/><path class="cls-4" d="M81.58,12.85s-.92,.11-1.48-.54l.17-.73s.26,.46,1.27,.64l.04,.64Z"/><path class="cls-4" d="M68.22,8.34s-.92,.11-1.48-.54l.17-.73s.26,.46,1.27,.64l.04,.64Z"/><path class="cls-4" d="M78.41,32.83s-.92,.11-1.48-.54l.17-.73s.26,.46,1.27,.64l.04,.64Z"/><path class="cls-4" d="M60.64,20.48s-.92,.11-1.48-.54l.17-.73s.26,.46,1.27,.64l.04,.64Z"/><path class="cls-4" d="M91.31,25.55s-.92,.11-1.48-.54l.17-.73s.26,.46,1.27,.64l.04,.64Z"/><path class="cls-4" d="M8.83,23.75s-.92,.11-1.48-.54l.17-.73s.26,.46,1.27,.64l.04,.64Z"/><path class="cls-18" d="M75.27,12.67s-.42,.83-1.27,.93l-.51-.55s.63,.1,1.33-.64l.45,.26Z"/><path class="cls-4" d="M92.55,38.73s-.92-.08-1.34-.83l.32-.68s.15,.62,1.09,1l-.07,.52Z"/><path class="cls-20" d="M76.2,13.89s-.16,.91-.95,1.26l-.65-.38s.68-.26,1.09-1l.51,.12Z"/><path class="cls-4" d="M43.82,5.74c.9-.09,2.1,1.41,1.23,2.12-.49,.4-1.55,.23-1.53-.52,0-.04,.04-.07,.08-.08,.7-.16,1.4,.14,1.28,.96-.11,.73-.77,1.25-1.48,1.3-.04,0-.03-.07,0-.08,.61-.13,1.19-.51,1.31-1.17,.04-.23,.02-.49-.13-.68-.08-.1-.19-.17-.32-.21-.1-.03-.48-.09-.57,0-.17,.17,.28,.46,.42,.51,.25,.09,.59,.08,.81-.08,.37-.26,.28-.75,.1-1.1-.24-.47-.67-.85-1.22-.87-.05,0-.02-.09,.02-.1h0Z"/><path class="cls-4" d="M11.36,33.19c-.28-.63-.25-1.29-1.07-1.5-.36-.09-1.21-.18-1.48,.14-.11,.13-.05,.38,.07,.49,.21,.19,.37-.04,.43-.24,.1-.39-.09-.77-.41-.99-.71-.49-1.68-.3-2.2,.35-.03,.04-.06,0-.05-.04,.63-1.45,3.65-.44,2.68,.95-.29,.42-.81,.05-.71-.39,.11-.49,.95-.47,1.32-.44,.38,.02,.74,.12,1.02,.39,.33,.32,.37,.83,.44,1.26,0,.02-.02,.05-.03,.02h0Z"/><path class="cls-4" d="M18.84,4.79c-.59-.17-1.4-.12-1.89,.27-.38,.31-.6,.97-.04,1.2,.22,.09,.95,.09,1.03-.21,.06-.21-.16-.33-.34-.36-.53-.08-1.02,.47-1.01,.97,.02,.75,.89,.99,1.5,1,.04,0,.03,.08,0,.08-1.04,.1-2.21-.87-1.28-1.84,.25-.26,.64-.45,1-.3,.2,.08,.36,.27,.26,.49-.16,.35-.82,.42-1.14,.32-.37-.11-.54-.45-.44-.82,.26-.94,1.58-1.14,2.36-.86,.02,0,.01,.06-.01,.05h0Z"/><path class="cls-4" d="M19.1,50.65c-.59-.17-1.4-.12-1.89,.27-.38,.31-.6,.97-.04,1.2,.22,.09,.95,.09,1.03-.21,.06-.21-.16-.33-.34-.36-.53-.08-1.02,.47-1.01,.97,.02,.75,.89,.99,1.5,1,.04,0,.03,.08,0,.08-1.04,.1-2.21-.87-1.28-1.84,.25-.26,.64-.45,1-.3,.2,.08,.36,.27,.26,.49-.16,.35-.82,.42-1.14,.32-.37-.11-.54-.45-.44-.82,.26-.94,1.58-1.14,2.36-.86,.02,0,.01,.06-.01,.05h0Z"/><path class="cls-4" d="M13.51,16.05c.7,.21,1.35,1.44,.7,2-.55,.48-1.67,.37-1.49-.54,0-.02,.02-.04,.04-.05,.74-.18,.98,.68,.82,1.25-.24,.88-1.13,.87-1.77,.41-.02-.02-.01-.08,.02-.06,.53,.26,1.26,.5,1.58-.17,.17-.36,.18-.95-.15-1.23-.08-.07-.2-.14-.32-.12-.24,.03-.2,.29-.07,.46,.22,.27,.66,.24,.96,.14,1.01-.36,.32-1.67-.34-2.03-.02-.01-.02-.06,.01-.05h0Z"/><path class="cls-4" d="M14.38,38.49c-1.19,.1-.98,2.36-.01,2.67,.12,.04,.25,.04,.37-.02,.12-.06,.26-.32,.22-.46-.11-.39-.76,.1-.84,.25-.23,.42-.24,.94,.09,1.3,.49,.54,1.43,.56,2.04,.25,.03-.02,.04,.04,.02,.06-.66,.42-1.77,.36-2.26-.31-.39-.54-.12-1.96,.73-1.83,.8,.12,.25,1.02-.36,.9-.58-.12-.82-.92-.88-1.42-.07-.62,.11-1.47,.89-1.45,.03,0,.02,.05,0,.06h0Z"/><path class="cls-4" d="M29.15,13.03c.83-.11,2.61,.59,2.14,1.72-.25,.6-1.35,.99-1.71,.3-.02-.04,0-.08,.04-.1,1.73-.98,3.54,1.84,1.71,2.88-.06,.03-.06-.06-.02-.09,.68-.51,.81-1.31,.36-2.02-.19-.29-.45-.55-.77-.69-.24-.11-.83-.27-1.05-.04-.1,.11-.1-.03-.05,.1,.03,.08,.14,.12,.21,.15,.18,.07,.39,.04,.57-.02,.39-.13,.68-.49,.58-.91-.2-.85-1.28-1.16-2.04-1.16-.05,0-.02-.1,.02-.1h0Z"/><path class="cls-18" d="M27.37,6.66s.05,.93-.64,1.44l-.72-.22s.48-.23,.72-1.22h.64Z"/><path class="cls-18" d="M10.63,9.62s.42,.83,1.27,.93l.51-.55s-.53,.04-1.24-.7l-.55,.32Z"/><path class="cls-18" d="M20.32,42.24s.42,.83,1.27,.93l.51-.55s-.53,.04-1.24-.7l-.55,.32Z"/><path class="cls-18" d="M8.12,54.45s.42,.83,1.27,.93l.51-.55s-.53,.04-1.24-.7l-.55,.32Z"/><path class="cls-4" d="M28.61,22.9s.42,.83,1.27,.93l.51-.55s-.53,.04-1.24-.7l-.55,.32Z"/><path class="cls-18" d="M35.36,12.49s.42,.83,1.27,.93l.51-.55s-.53,.04-1.24-.7l-.55,.32Z"/><path class="cls-4" d="M19.1,12.85s.92,.11,1.48-.54l-.17-.73s-.26,.46-1.27,.64l-.04,.64Z"/><path class="cls-4" d="M34.84,5.69s.92,.11,1.48-.54l-.17-.73s-.26,.46-1.27,.64l-.04,.64Z"/><path class="cls-4" d="M35.35,18.33s.92,.11,1.48-.54l-.17-.73s-.26,.46-1.27,.64l-.04,.64Z"/><path class="cls-4" d="M8.02,46.15s.92,.11,1.48-.54l-.17-.73s-.26,.46-1.27,.64l-.04,.64Z"/><path class="cls-4" d="M22.53,57.83s.92,.11,1.48-.54l-.17-.73s-.26,.46-1.27,.64l-.04,.64Z"/><path class="cls-18" d="M23.84,16.68s.42,.83,1.27,.93l.51-.55s-.63,.1-1.33-.64l-.45,.26Z"/><path class="cls-20" d="M22.91,17.9s.16,.91,.95,1.26l.65-.38s-.68-.26-1.09-1l-.51,.12Z"/><path class="cls-18" d="M49.47,2.74s-.42,.83-1.27,.93l-.51-.55s.63,.1,1.33-.64l.45,.26Z"/><path class="cls-20" d="M48.27,12.17s-.16,.91-.95,1.26l-.65-.38s.68-.26,1.09-1l.51,.12Z"/></g></g></g></g></svg>