<?xml version="1.0" encoding="UTF-8"?><svg id="Camada_1" xmlns="http://www.w3.org/2000/svg" viewBox="0 0 99.26 92.7"><defs><style>.cls-1{opacity:.1;}.cls-2{fill:#ed776a;}.cls-3,.cls-4{fill:#fff;}.cls-5{fill:#ececec;}.cls-6{fill:#ffc800;}.cls-7{fill:#ffaba1;}.cls-8{fill:#c36358;}.cls-9{fill:#c8c8c8;}.cls-10{fill:#375a64;}.cls-11,.cls-12{fill:#1a2e35;}.cls-13{fill:#2b454e;}.cls-12{opacity:.2;}.cls-14,.cls-4{opacity:.6;}</style></defs><g><path class="cls-5" d="M75.49,78.01l-1.91,3.48c-.82,1.5-2.57,2-4.07,1.18-1.39-.76-2-2.57-1.18-4.06l3.06-5.57c.03-.05,.08-.02,.11-.08q-.03-.08,0-.14c.77-1.39,2.67-1.95,4.07-1.18,3.37,1.85,7.58,.68,9.4-2.64,1.85-3.37,.56-7.5-2.81-9.35-2.2-1.21-4.77-1.09-6.76,.12-1.45,.88-3.3,.42-4.17-1.04-.82-1.42-.39-3.21,1.06-4.09,3.75-2.26,8.63-2.51,12.75-.24,6.21,3.42,8.53,11.24,5.12,17.45-2.91,5.3-9.05,7.72-14.68,6.16Zm-6.45,11.73l-.53,.96c-.82,1.5-2.57,2.01-4.07,1.18-1.39-.76-2-2.57-1.18-4.07l.53-.96c.79-1.45,2.67-1.95,4.06-1.18,1.5,.82,1.98,2.62,1.18,4.07Z"/><path class="cls-5" d="M29.07,21.24l-.43,2.61c-.19,1.12-1.17,1.82-2.29,1.64-1.04-.17-1.82-1.17-1.64-2.29l.69-4.17s.05-.03,.05-.07t-.03-.09c.17-1.04,1.25-1.81,2.29-1.64,2.53,.42,4.9-1.24,5.32-3.73,.42-2.52-1.3-4.83-3.82-5.25-1.64-.27-3.23,.37-4.21,1.56-.72,.87-1.98,.99-2.84,.27-.83-.71-.95-1.93-.23-2.8,1.86-2.24,4.86-3.47,7.95-2.96,4.65,.78,7.83,5.18,7.05,9.82-.66,3.97-3.98,6.83-7.85,7.09Zm-1.46,8.78l-.12,.72c-.19,1.12-1.17,1.82-2.29,1.64-1.04-.17-1.82-1.17-1.64-2.29l.12-.72c.18-1.08,1.25-1.81,2.29-1.64,1.12,.19,1.82,1.21,1.64,2.29Z"/><path class="cls-5" d="M13.26,27.2l-1.18-3.55c-.51-1.53,.26-3.06,1.79-3.57,1.42-.47,3.06,.26,3.57,1.78l1.89,5.68c.02,.05-.04,.07-.02,.13q.07,.03,.09,.09c.47,1.42-.36,3.1-1.78,3.57-3.44,1.15-5.32,4.81-4.19,8.19,1.15,3.44,4.82,5.19,8.27,4.04,2.24-.75,3.8-2.6,4.24-4.75,.33-1.57,1.82-2.55,3.39-2.22,1.51,.34,2.47,1.78,2.15,3.35-.84,4.04-3.78,7.57-7.99,8.97-6.34,2.11-13.23-1.29-15.34-7.63-1.8-5.41,.46-11.2,5.13-14.09Zm-3.99-11.96l-.33-.98c-.51-1.53,.25-3.06,1.78-3.57,1.42-.47,3.06,.26,3.57,1.79l.33,.98c.49,1.47-.36,3.09-1.78,3.57-1.53,.51-3.08-.31-3.57-1.78Z"/></g><path class="cls-11" d="M6.61,92.7c27.69-.66,58.33-.66,86.03,0-27.7,.66-58.34,.66-86.03,0h0Z"/><path class="cls-3" d="M81.28,86.84s-.02-.1-.03-.15h0l.03,.15Z"/><g><g><g><path class="cls-6" d="M92.27,92.7h-16.33c.05-.8,.07-1.28,.06-1.36-.06-.32-1.44-5.83-3.24-12.9-.07-.29-.15-.59-.23-.89-.27-1.05-.54-2.13-.82-3.23-.04-.15-.08-.3-.12-.45-.07-.28-.14-.57-.22-.86-.27-1.07-.55-2.15-.82-3.23-.29-1.15-.58-2.3-.87-3.44-.23-.91-.46-1.82-.69-2.72,0,0,0,0,0-.01-.91-3.59-1.78-7-2.51-9.85,0,0,0-.02,0-.03-.09-.37-.19-.74-.28-1.09-.05-.19-.1-.38-.14-.57-.2-.78-.38-1.5-.55-2.15-.61-2.4-.99-3.88-1.01-3.95h0s15.24,0,15.24,0c0,0,12.02,41.42,12.45,45.41,.04,.36,.06,.81,.08,1.33Z"/><path class="cls-14" d="M92.27,92.7h-16.33c.05-.8,.07-1.28,.06-1.36-.06-.32-1.44-5.83-3.24-12.9-.07-.29-.15-.59-.23-.89-.27-1.05-.54-2.13-.82-3.23-.04-.15-.08-.3-.12-.45-.07-.28-.14-.57-.22-.86-.27-1.07-.55-2.15-.82-3.23-.29-1.15-.58-2.3-.87-3.44-.23-.91-.46-1.82-.69-2.72,0,0,0,0,0-.01-.91-3.59-1.78-7-2.51-9.85,0,0,0-.02,0-.03-.09-.37-.19-.74-.28-1.09-.05-.19-.1-.38-.14-.57-.2-.78-.38-1.5-.55-2.15-.61-2.4-.99-3.88-1.01-3.95h0s15.24,0,15.24,0c0,0,12.02,41.42,12.45,45.41,.04,.36,.06,.81,.08,1.33Z"/><path class="cls-11" d="M78.53,92.7h-.48c-.15-1.67-.5-3.3-.91-4.95-.6-2.38-1.2-4.77-1.79-7.15-.56-2.24-1.12-4.48-1.68-6.72-.57-2.26-1.13-4.52-1.69-6.78-.09-.37-.19-.75-.28-1.12-1.34-5.4-2.68-10.81-3.86-16.25-.01-.06-.03-.11-.04-.17,0-.03,.04-.04,.05,0,0,.02,0,.04,.02,.06,1.14,4.05,2.21,8.13,3.24,12.22,.02,.06,.03,.11,.04,.17,.18,.71,.36,1.42,.54,2.13,.12,.48,.24,.95,.36,1.43,.61,2.44,1.22,4.88,1.83,7.32,.49,1.96,.98,3.91,1.46,5.87l1.82,7.31c.54,2.19,1.17,4.39,1.38,6.65Z"/><path class="cls-11" d="M64.5,45.97s4.86,19.06,8.26,32.48l6.49-32.48h-14.75Z"/></g><g><path class="cls-6" d="M79.25,45.96h0c-.02,.3-.83,10.13-2.47,13.19-.04,.09-.09,.17-.14,.24,0,.02-.02,.03-.03,.05,0,0-.02,0-.06,.02-.06,.02-.17,.06-.32,.13,0,0-.01,0-.02,0-.55,.22-1.63,.7-3.08,1.51-.3,.17-.61,.35-.94,.54,0,0-.06,1.53-.15,3.91-.02,.48-.04,1-.06,1.55-.08,2.09-.17,4.6-.27,7.22-.3,7.98-.62,16.95-.61,17.89,0,.15,0,.31,0,.49h-15.45c.04-.65,.07-1.1,.08-1.31,.16-2.57,.45-16.13,1.43-28.68,0,0-1.43-4.01-1.28-6.04,.38-4.91,2.59-10.71,2.59-10.71h20.77Z"/><path class="cls-14" d="M79.25,45.96h0c-.02,.3-.83,10.13-2.47,13.19-.04,.09-.09,.17-.14,.24,0,.02-.02,.03-.03,.05,0,0-.02,0-.06,.02-.06,.02-.17,.06-.32,.13,0,0-.01,0-.02,0-.55,.22-1.63,.7-3.08,1.51-.3,.17-.61,.35-.94,.54,0,0-.06,1.53-.15,3.91-.02,.48-.04,1-.06,1.55-.08,2.09-.17,4.6-.27,7.22-.3,7.98-.62,16.95-.61,17.89,0,.15,0,.31,0,.49h-15.45c.04-.65,.07-1.1,.08-1.31,.16-2.57,.45-16.13,1.43-28.68,0,0-1.43-4.01-1.28-6.04,.38-4.91,2.59-10.71,2.59-10.71h20.77Z"/><g><path class="cls-11" d="M73.58,56.21c.06-.4,.12-.81,.18-1.21,.11-.74,.26-1.47,.39-2.21,.29-1.67,.6-3.35,.97-5,0-.04,.08-.03,.07,.01-.07,.67-.14,1.34-.24,2-.09,.67-.16,1.34-.25,2-.19,1.32-.37,2.64-.59,3.95-.09,.51-.4,1.41,.33,1.57,.58,.12,1-.44,1.17-.92,.21-.58,.28-1.22,.39-1.82,.12-.67,.22-1.33,.32-2,.21-1.46,.43-2.91,.67-4.37,0-.04,.07-.03,.07,.01-.05,1.5-.13,2.98-.32,4.47-.09,.71-.2,1.42-.32,2.12-.11,.66-.2,1.37-.49,1.98-.23,.48-.66,.91-1.21,.97-.01,0-.02,0-.03,0,.01,0,.02,.02,.02,.04,0,.24,0,.48-.03,.71-.02,.23-.07,.47-.12,.7-.04,.23-.1,.47-.18,.69-.04,.11-.08,.22-.13,.32-.05,.11-.13,.19-.19,.29-.03,.04-.08,.02-.08-.02h0s0-.08,0-.12c0,0,0-.01,0-.02,0,0,0,0,0,0,0-.07,0-.14,.01-.21,.02-.11,.04-.23,.07-.34,.05-.22,.11-.45,.17-.67,.06-.22,.11-.45,.17-.67,.06-.23,.13-.45,.19-.69,0-.01,0-.02,.02-.02-.43,0-.86-.22-1.02-.64-.11-.3-.06-.62-.01-.92Z"/><path class="cls-11" d="M70.89,62c.46-.38,1-.69,1.52-1,.56-.33,1.13-.64,1.73-.89,1.17-.51,2.37-.85,3.57-1.25,.04-.01,.06,.05,.02,.06-1.16,.46-2.28,1.08-3.41,1.63-.55,.27-1.11,.53-1.68,.78-.56,.25-1.13,.54-1.71,.75-.04,.02-.08-.05-.04-.08Z"/><path class="cls-11" d="M61.79,53c.82,0,3.65-.21,4.49-1.15,.49-.54,.81-1.23,1.05-1.89,.27-.75,.47-1.52,.64-2.3,0-.04,.06-.03,.07,.01,.03,.87-.1,1.76-.33,2.61-.2,.72-.46,1.52-1.05,2.03-.61,.53-1.44,.72-2.23,.81-.88,.11-1.76,.08-2.65-.04-.05,0-.06-.09,0-.09Z"/><path class="cls-11" d="M81.18,53.22c-.25,0-1-.52-1.08-.66-.62-.93-.77-3.9-.82-4.68,0-.04-.02-.03-.02,.01,0,.87,.03,1.76,.1,2.61,.06,.72,.14,1.52,.32,2.03,.19,.53,1.23,.9,1.5,.78,.02,0,.02-.09,0-.09Z"/><path class="cls-11" d="M60.69,47.26c-.02,.08-2.02,7.59-1.92,9.41,.1,1.84,1.16,5.49,1.16,5.52,0,0-.88,15.14-1.77,30.52h-.39l1.78-30.47c-.05-.27-1.07-3.76-1.16-5.54-.1-1.88,1.85-9.22,1.93-9.53,.03-.11,.14-.17,.24-.14,.1,.03,.17,.14,.14,.24Z"/></g></g></g><g><g><path class="cls-11" d="M86.57,38.24c-1.48,.27-2.76,1.24-4.17,1.76-.59,.22-1.15,.38-1.67,0-.23-.18-.39-.43-.59-.64-.43-.43-.97-.57-1.56-.54-.86,.04-1.66,.47-2.49,.71-.68,.2-1.37,.25-2.06,.14-1.3-.21-2.48-.96-3.35-1.95-.53-.61-.92-1.35-1.42-1.98-.47-.6-4.07-2.77-4.05-5.14,.01-1.5,.57-3.05,2.82-4.56,.45-.3,.93-.57,1.15-1.11,.19-.45,.12-.92,.1-1.39-.03-.53-.06-1.08,.22-1.56,.29-.48,.81-.71,1.25-1,.83-.54,1.05-1.63,.95-3.08-.08-1.24,.51-2.42,1.43-3.22,.56-.48,1.21-.76,1.86-1.08,.95-.47,1.41-1.03,1.8-2.04,.49-1.26,1.27-2.08,2.61-2.3,1.2-.2,2.41-.11,3.47,.4,1.33-.35,2.79-.21,4.02,.35,1.17,.53,2.07,2.19,2.6,3.34,.98,2.13,.24,3.83,.06,4.52-.23,.87,.08,1.57,.49,2.3,.56,1.01,.97,2.13,.8,3.34-.14,.97-1.48,2.11-.85,3.8,.56,1.49,1.78,3.38,1.74,5.03-.11,5.11-3.78,5.65-5.2,5.91Z"/><path class="cls-11" d="M70.2,35.87c-1.7-.92-4.26-1.48-4.86-3.36,.61,.79,1.49,1.42,2.37,1.8,.03,.01,.04-.03,.01-.05-1.01-.47-1.93-1.15-2.48-2.13-.07-.42-.05-.91,.09-1.46,.36-1.44,1.25-2.36,2.24-3.38,.38-.4,.71-.82,1-1.28,.11-.1,.22-.21,.32-.33,.67-.83,.59-1.9,.45-2.87,0-.01-.02-.01-.02,0,.03,.56,.07,1.15-.04,1.71-.18,.41-.39,.81-.62,1.18-.45,.46-1.08,.76-1.62,1.07-.94,.55-1.88,1.3-2.27,2.38-.41,1.12-.2,2.15,.34,3.01,.34,2.37,3.3,2.9,5.07,3.76,.04,.02,.07-.04,.04-.06Zm-5.32-4.62c-.42-1.56,.28-2.91,1.54-3.83,.58-.42,1.28-.72,1.87-1.16-.08,.11-.17,.23-.25,.34-.51,.64-1.15,1.15-1.67,1.78-.76,.92-1.31,2.16-1.3,3.37,0,.02,0,.03,0,.05-.07-.17-.13-.34-.18-.53Z"/><path class="cls-11" d="M92.43,32.36c-.03-1.13-.48-2.01-1.05-2.88,.08,.07,.17,.13,.26,.19,.02,.02,.03,0,0-.02-1.13-.98-1.27-2.34-.71-3.75,.36-.91,.89-1.83,.88-2.83,0-1.06-.66-1.76-1.3-2.49-.32-.46-.67-.9-.96-1.35-.12-.27-.2-.56-.23-.88,0,0-.01,0-.01,0-.01,.18,0,.35,.02,.52-.04-.07-.08-.14-.11-.21,0,0,0,0,0,0,.04,.1,.09,.19,.13,.28,.12,.63,.52,1.16,.95,1.65,.07,.08,.13,.15,.2,.23,.73,1.18,1.25,2.38,.32,3.86-.33,.52-.73,1.02-.93,1.59-.04-.35-.03-.7,.03-1.07,0-.01-.02-.02-.02,0-.08,.41-.09,.8-.04,1.19-.04,.14-.07,.28-.08,.43-.07,.73,.21,1.4,.62,1.96,.02,.03,.07-.01,.05-.04-.44-.64-.59-1.26-.51-1.88,.27,1.26,1,2.43,1.54,3.55,.33,.68,.62,1.44,.81,2.21-.11,2.03-1.12,4.36-3.21,4.86-.03,0-.02,.06,.01,.05,2.01-.47,3.02-2.44,3.3-4.4,.24,1.44,.03,2.91-1.17,4.02-.04,.03,.01,.09,.05,.05,1.45-1.22,1.63-3.17,1.18-4.87Zm-2.48-5.66c.09-.46,.3-.92,.62-1.4,.45-.68,.92-1.32,.93-2.17,0-.5-.11-.94-.3-1.37,.45,.74,.63,1.53,.26,2.64-.35,1.04-1,2.06-.95,3.19,.01,.35,.09,.68,.22,.98-.11-.16-.22-.32-.34-.48-.2-.46-.36-.92-.46-1.39Zm.51,1.51c.15,.24,.31,.47,.46,.7,.04,.06,.07,.12,.11,.17,.54,.83,1.05,1.68,1.2,2.67-.43-1.16-1.22-2.33-1.77-3.55Z"/><path class="cls-11" d="M88.26,37.61s-.01,.01,0,.02c0,0,.01-.01,0-.02Z"/><path class="cls-11" d="M75.36,13.39c-.87,.39-1.74,.82-2.57,1.3-.57,.33-1,.77-1.24,1.41-.24,.65-.17,1.26,.02,1.89,.08,.25,.15,.51,.21,.76-.1,.4-.26,.78-.55,1.12-.52,.62-1.33,.85-1.87,1.47-.86,1.01-.6,2.14-.43,3.34,0,0,.01,0,.01,0-.09-.96-.33-1.96,.25-2.84,.47-.72,1.18-.97,1.82-1.48,.4-.32,.67-.76,.85-1.24,.15,.9,.03,1.77-.92,2.39-.04,.03-.01,.09,.03,.07,1.14-.61,1.24-1.75,1-2.84,.14-.56,.17-1.16,.13-1.71,0-.06-.09-.05-.1,.01-.05,.43-.07,.87-.14,1.29-.02-.05-.03-.11-.05-.16-.39-1.2-.3-2.44,.82-3.25,.84-.61,1.85-.97,2.74-1.5,.02-.01,0-.05-.02-.04Z"/></g><g><path class="cls-9" d="M79.74,45.97l.3-3.33s3.3-1.04,2.98-4.38c-.16-1.69-1.11-8.34-2.96-11.01-1.74-2.51-4.62-2.75-6.71-1.17-4.44,3.36-9.29,9.22-14.87,19.89h21.27Z"/><g><path class="cls-11" d="M77.78,40.68c-.96-.2-1.93-.37-2.92-.4-.49-.02-.98-.01-1.48,0-.25,0-.49,0-.74,0-.25,0-.52-.01-.76-.08-.02,0-.03,.03-.01,.04,.23,.09,.45,.17,.68,.22,.23,.05,.46,.07,.7,.08,.5,.02,1,.02,1.5,.04,1.01,.04,2.01,.07,3,.19,.05,0,.06-.08,.02-.09Z"/><path class="cls-11" d="M79.74,42.4c-.73-.35-1.48-.66-2.24-.9-.38-.12-.77-.22-1.17-.31-.19-.04-.38-.08-.57-.11-.21-.04-.43-.04-.63-.09-.02,0-.03,.03-.01,.04,.19,.05,.38,.13,.57,.19,.19,.06,.38,.12,.58,.18,.38,.12,.77,.24,1.15,.36,.77,.23,1.54,.46,2.3,.72,.04,.01,.06-.06,.02-.07Z"/></g><g><g><path class="cls-9" d="M71.26,26.11c-5.2,1.92-10.09,3.54-12.77,5.99-2.53,2.31-3.13,4.72-2.2,6.51,.52,.99,2.84,2.59,5.95,1.15,4.54-2.1,10.6-7.38,12.87-10.25,4.21-5.33,.62-5.05-3.85-3.4Z"/><g><path class="cls-11" d="M56.67,39.11c3.24,1.89,6.29-.67,8.97-2.45,2.84-1.95,5.6-3.99,8.53-6.06-.85,1.6-2.02,2.99-3.28,4.26-3.11,3.03-10.4,9.14-14.22,4.25h0Z"/><path class="cls-11" d="M73.08,31.78c.18-.63,.44-.82,1.09-.66,0,.65-.51,.98-1.09,.66h0Z"/></g></g><g><path class="cls-2" d="M59.64,39.72c2.6-.33,7-6.05,9.86-12.65,.55-1.26-8.18-8.07-8.75-6.72-1.91,4.53-4.82,11.82-4.84,15.48-.01,2.84,1.93,4.12,3.73,3.89Z"/><g><path class="cls-9" d="M57.8,24.41l9.11,8.44s-5.08,7.75-7.35,7.54c-2.27-.21-4.7-1.75-4.37-7.21,.08-1.37,2.62-8.76,2.62-8.76Z"/><path class="cls-11" d="M57.43,27.97c.47,.37,.9,.78,1.35,1.17,.44,.4,.89,.8,1.32,1.2,.87,.81,1.74,1.63,2.59,2.45,.23,.23,.47,.45,.7,.68,.25,.25,.46,.52,.71,.77,.02,.02,0,.05-.03,.03-.22-.2-.46-.36-.68-.55-.23-.2-.46-.4-.68-.61-.44-.4-.88-.8-1.31-1.21-.87-.81-1.74-1.63-2.58-2.46-.48-.47-.97-.94-1.42-1.44-.03-.03,.01-.07,.04-.04Z"/><path class="cls-11" d="M66.27,32.25c.36,.12,.69,.26,1.02,.42-.72,2.75-2.35,5.17-4.67,6.79-.76,.49-1.68,.95-2.65,.86,.68-.64,1.13-1.29,1.63-1.96,1.53-2.05,3-3.99,5.02-5.7,0,0,.06,.42,.06,.42-.15-.27-.29-.54-.41-.84h0Z"/></g></g></g><g><path class="cls-2" d="M68.33,26.39c-1.32-.27-.25-1.68-.25-1.68,0,0-2.03,1.65-3.29,.85-1.21-.78,.15-2.43,.24-2.55-.11,.09-2.02,1.56-3.2,.62-1.23-.98,.42-2.4,.53-2.49-.13,.05-1.83,.68-2.57-.24-1.26-1.58,2.77-2.84,3.36-4.37,0,0-2.76-2.22-2.82-2.27,0,0,2.55-.63,3.49-.64,1.13-.02,2.52-.02,3.15,.3,1.04,.53,.83,1.56,.83,1.56,0,0,1.25-.7,2.2,0,.49,.37,.34,1.47,.34,1.47,0,0,1.02-.52,1.83,.17,.65,.54,.4,1.57,.4,1.57,0,0,1.21-.04,1.7,.73,.97,1.55-3.1,7.55-5.93,6.98Z"/><g><path class="cls-11" d="M72.55,18.85s.04,0,.04,.01c-.86,2.3-2.5,4.56-4.56,5.93-.07,.04-.17-.05-.1-.11,1.85-1.81,3.35-3.57,4.63-5.83Z"/><path class="cls-11" d="M70.37,16.93s.05,0,.04,.03c-.9,2.36-2.82,4.86-5.38,6.16-.09,.04-.21,0-.11-.06,1.63-.99,4.3-4.08,5.45-6.12Z"/><path class="cls-11" d="M62.15,21.16c2.4-1.34,4.13-3.31,5.62-5.59,.02-.03,.06,0,.05,.03-.42,1.31-1.52,2.67-2.47,3.65-.9,.94-1.91,1.61-3.16,1.99-.05,.01-.1-.06-.05-.08Z"/></g></g></g><g><g><path class="cls-2" d="M74.91,25.5c-.02,.45,1.04,4.45,3.4,4.67,.99,.09,1.35-3.74,1.35-3.74l1.94-3.55-3.9-4.39s-2.78,6.82-2.79,7.01Z"/><path class="cls-11" d="M81.6,22.88l-1.88,3.45c-.95-.74-2.68-2.44-3.06-5.27,.56-1.39,1.04-2.57,1.04-2.57l3.9,4.39Z"/></g><g><path class="cls-2" d="M75.56,14.31c-3.54,5.6-.58,8.36,.62,9.12,1.1,.69,4.92,2.91,9.02-2.3,4.1-5.21,2.61-8.63,.19-10.34-2.43-1.72-6.3-2.08-9.84,3.52Z"/><g><path class="cls-11" d="M77.18,13.87c.15,.06,.29,.09,.44,.13,.17,.05,.3,.1,.47,.05,.09-.03,.16-.16,.14-.25-.05-.22-.24-.33-.44-.39-.22-.07-.4-.07-.62,.01-.21,.08-.18,.38,.01,.46Z"/><path class="cls-11" d="M81.05,16.64c-.11-.11-.23-.2-.35-.3-.14-.11-.23-.22-.41-.23-.1,0-.21,.08-.23,.18-.04,.22,.09,.4,.25,.54,.17,.15,.34,.23,.57,.24,.22,.01,.32-.28,.17-.43Z"/><g><g><path class="cls-11" d="M79.39,17.37s.02,.04,.01,.05c-.24,.39-.44,.87-.16,1.2,0,.01,0,.03-.02,.02-.4-.31-.12-.94,.16-1.27Z"/><path class="cls-11" d="M79.97,17.16c.66,.31-.01,1.6-.62,1.32-.6-.28,.07-1.58,.62-1.32Z"/></g><path class="cls-11" d="M80.19,17.36c.08,.13,.12,.32,.25,.4,.15,.1,.34,.02,.51-.05,.02,0,.02,0,.01,.03-.12,.25-.35,.45-.64,.35-.26-.09-.32-.4-.25-.68,.01-.05,.09-.1,.12-.05Z"/></g><g><g><path class="cls-11" d="M77.12,15.98s-.04,0-.05,.02c-.19,.41-.48,.84-.91,.79-.01,0-.02,.02,0,.02,.48,.16,.85-.42,.97-.84Z"/><path class="cls-11" d="M76.98,15.38c-.62-.38-1.33,.89-.76,1.24,.57,.34,1.28-.93,.76-1.24Z"/></g><path class="cls-11" d="M76.66,15.32c-.14,.01-.31,.08-.43,.02-.14-.07-.17-.26-.19-.45,0-.02-.02-.01-.03,0-.14,.24-.2,.54,0,.71,.19,.16,.46,.04,.66-.17,.04-.04,.04-.13-.02-.12Z"/></g><path class="cls-11" d="M77.87,20.53c-.14,.05-.3,.14-.46,.08-.15-.05-.29-.2-.39-.31-.01-.01-.03,0-.03,.01,.03,.21,.21,.41,.42,.46,.2,.05,.37-.06,.49-.21,.02-.02-.01-.04-.03-.04Z"/><path class="cls-11" d="M77.76,19.89c-.56-.56-.94-.63-1.36-.83-.04-.03-.12-.13-.1-.17h0s.53-.78,.53-.78c-.14-.01-.82-.11-.72-.25,.85-1.19,1.8-2.52,2.91-3.52,.03-.04,.09,.01,.06,.05-.78,1.18-1.75,2.21-2.55,3.38,.21,.04,.56,.1,.71,.2,.03,.04-.6,.8-.67,.93,0,0,.71,.12,1.28,.96,.13,.19,.11,.24-.09,.04Z"/></g><g><path class="cls-11" d="M84.25,21.45c-1.15-.49,0-3.11,0-3.11,0,0-4.13-3.43-2.36-7.39,0,0-2.16,1.92-5.19,1.61,0,0,2.53-4,6.23-2.92,0,0,4.87,.87,5.29,5.37,.41,4.5-3.19,6.76-3.97,6.43Z"/><path class="cls-11" d="M82.03,10.67c-.39,.53-.65,1.17-.78,1.82-.14,.66-.15,1.35,0,2.01,.02,.17,.09,.33,.13,.49l.07,.24c.03,.08,.06,.16,.1,.23,.07,.15,.13,.31,.21,.46,.09,.14,.17,.29,.26,.43,.05,.07,.09,.14,.14,.21l.16,.2,.31,.39c.23,.24,.48,.46,.72,.68-.2-.27-.42-.51-.61-.77l-.27-.4-.14-.2c-.04-.07-.08-.14-.11-.21-.07-.14-.15-.29-.23-.43-.07-.15-.12-.3-.18-.45l-.09-.22-.06-.23c-.04-.16-.1-.31-.12-.46-.14-.62-.14-1.27-.06-1.91,.04-.32,.11-.64,.21-.95,.09-.31,.21-.62,.35-.91Z"/></g><g><path class="cls-2" d="M83.64,20.43s2.24-1.17,2.83-.28c.6,.89-1.75,3.05-2.91,2.91-1.17-.14-1.06-1.22-1.06-1.22l1.14-1.4Z"/><path class="cls-11" d="M85.79,20.75s0,.03,0,.03c-.83-.08-1.52,.37-2.11,.9,.34-.15,.69-.14,.9,.27,.01,.02-.02,.04-.04,.03-.25-.21-.48-.26-.78-.13-.22,.09-.41,.24-.6,.38-.06,.04-.16-.05-.1-.1,0,0,0,0,.01-.01,.44-.88,1.75-1.76,2.73-1.36Z"/></g></g><path class="cls-2" d="M74.42,25.1s.37,4.59,.75,5.22c.38,.63,4.9,1.67,5.1,1.32,.21-.34-.66-4.68-.66-4.68,0,0-1.41-1.31-2.82-1.78-1.45-.49-2.37-.08-2.37-.08Z"/></g><g><path class="cls-9" d="M84.78,30.41c2.4,4.99,4.79,9.55,5.01,13.19,.21,3.42-1.62,6.04-3.53,6.68-1.06,.35-2.91,.37-4.14-2.82-1.81-4.67-2.83-13.63-2.47-17.28,.68-6.76,3.07-4.06,5.13,.23Z"/><g><path class="cls-2" d="M85.02,50.01c-2.61-.23-7.89-5.78-10.99-12.27-.59-1.24,8.92-6.98,9.4-5.59,1.53,4.44,4.35,10.2,4.5,13.85,.12,2.84-1.11,4.17-2.91,4.01Z"/><g><path class="cls-9" d="M85.62,34.64l-8.8,8.77s5.92,7.37,8.66,7.03c2.26-.28,3.6-1.68,3.07-7.13-.13-1.36-2.94-8.66-2.94-8.66Z"/><path class="cls-11" d="M85.93,38.02c-.43,.41-.83,.86-1.24,1.29-.41,.43-.81,.87-1.21,1.32-.79,.89-1.58,1.78-2.36,2.68-.21,.25-.43,.49-.63,.74-.22,.27-.41,.56-.64,.83-.02,.02,.01,.05,.03,.03,.2-.21,.43-.4,.63-.61,.21-.22,.42-.44,.62-.66,.4-.44,.8-.88,1.2-1.32,.8-.88,1.59-1.77,2.35-2.68,.43-.51,.88-1.02,1.29-1.56,.02-.03-.02-.07-.05-.04Z"/><path class="cls-11" d="M77.17,43.06c-.01,.22-.04,.42-.09,.61l.02-.49c1.38,.49,2.25,1.39,2.83,2.62,.62,1.57,.47,1.72-1.08,1.02-1.22-.69-2.04-1.72-2.31-3.17,0,0-.08-.47-.08-.47,.23-.06,.45-.1,.71-.12h0Z"/></g><path class="cls-11" d="M84.62,35.64l1.02-.97h-.05c.63,1.89,1.32,3.77,1.97,5.65,.28,.82,.57,1.64,.76,2.49,.21,1.09,.28,2.22,.22,3.34,.2-1.11,.21-2.26,.04-3.39-.38-1.85-1.09-3.61-1.76-5.37-.38-.95-.77-1.88-1.2-2.81l-.03,.03-.97,1.02h0Z"/><g><g><path class="cls-7" d="M78.51,28.34c.58-.81,.54-2.96,1.02-4.26,.48-1.3,2.09-2,2.41-1.55,.32,.45-.08,.94-.08,3.03,0,1.34,1.19,3.95,.91,6.41-.14,1.23-4.84-2.81-4.26-3.62Z"/><path class="cls-2" d="M78.51,28.34c.58-.81,.54-2.96,1.02-4.26,.48-1.3,2.09-2,2.41-1.55,.32,.45-.08,.94-.08,3.03,0,1.34,1.19,3.95,.91,6.41-.14,1.23-4.84-2.81-4.26-3.62Z"/><path class="cls-1" d="M78.51,28.34c.58-.81,.54-2.96,1.02-4.26,.48-1.3,2.09-2,2.41-1.55,.32,.45-.08,.94-.08,3.03,0,1.34,1.19,3.95,.91,6.41-.14,1.23-4.84-2.81-4.26-3.62Z"/></g><path class="cls-2" d="M73.2,22.11c-.83,.87,1.5,2.73,1.5,2.73,0,0-.81-.17-1.49,.27-.77,.49-.33,1.92-.33,1.92,0,0-.86,0-1.52,.53-.69,.55-.45,2.05-.45,2.05,0,0-.8,.44-1.04,1.31-.42,1.48,1.29,3.12,2.15,4.35,.92,1.31,2.07,2.94,2.73,3.74l9.11-5.38s-2.07-7.09-3.42-8.24c-1.14-.97-5.97-4.6-7.24-3.27Z"/><g><path class="cls-11" d="M74.75,24.83c1.46,.74,2.74,1.83,3.97,2.89,.03,.02-.01,.07-.04,.04-1.21-1.07-2.73-1.85-3.97-2.87-.03-.03,0-.08,.04-.06Z"/><path class="cls-11" d="M73.01,26.97c.33,.18,.59,.46,.86,.72,.29,.27,.57,.55,.84,.84,.55,.57,1.09,1.15,1.62,1.74,.02,.03-.01,.07-.04,.04-.55-.56-1.11-1.12-1.69-1.66-.29-.27-.58-.54-.87-.8-.27-.25-.58-.49-.79-.79-.03-.04,.02-.11,.07-.08Z"/><path class="cls-11" d="M70.94,29.63c.29,.14,.52,.45,.74,.69,.25,.26,.49,.53,.74,.79,.5,.52,1,1.04,1.51,1.55,.03,.03-.01,.07-.04,.04-.53-.51-1.06-1.01-1.59-1.52-.26-.25-.51-.51-.77-.76-.22-.22-.51-.46-.63-.75,0-.02,.01-.03,.03-.02Z"/></g><path class="cls-11" d="M74.66,21.91c1.27,.65,3.22,1.74,4.4,2.54,.44,.3,.87,.61,1.27,.96,.39,.35,.67,.81,.93,1.26,.18,.31,.34,.63,.5,.95-.3-.84-.64-1.72-1.29-2.36-.4-.37-.83-.69-1.27-1-1.19-.8-2.4-1.6-3.75-2.09l-.78-.26Z"/></g></g></g></g></g><g><g><g><path class="cls-11" d="M35.01,75.01s0,0,0,.02c-.05,.27-.55,3.28-1.26,7.63-.06,.36-.12,.73-.18,1.11-.43,2.66-.91,5.73-1.4,8.94H15.07c2.21-9.64,4.35-17.59,4.35-17.59h.21s9.74-.07,9.74-.07l5.65-.04Z"/><path class="cls-13" d="M33.06,76.1c-.96,5.38-1.95,10.76-2.83,16.15-.02,.15-.05,.3-.07,.45h-.41c.83-4.9,1.71-9.79,2.73-14.65,.14-.66,.28-1.32,.43-1.98,.02-.1,.18-.07,.16,.03Z"/></g><g><path class="cls-11" d="M43.99,86.2c-.03,2.01-.38,4.21-.97,6.51H25.19c.03-.06,.06-.12,.09-.18,.02-.05,.04-.09,.06-.14,.13-.27,.24-.5,.32-.69,0-.01,0-.02,.01-.03,.06-.14,.11-.26,.14-.35,.06-.16,.08-.26,.05-.29,0,0,0,0-.01,0-.02-.01-.06-.05-.1-.12-.13-.21-.35-.68-.63-1.33-.05-.13-.11-.26-.17-.41-.76-1.81-1.85-4.67-2.85-7.35-.2-.54-.4-1.07-.59-1.58-1-2.68-1.8-4.87-1.88-5.12,0,0,0-.01,0-.02,0-.01,0-.02,0-.02l9.75-.03,5.64-.02,6.2-.02s2.84,7.23,2.79,11.19Z"/><g><path class="cls-13" d="M25.94,91.09c-.04,.08-.07,.15-.11,.23-.05,.12-.11,.23-.16,.34,0,0,0,.02-.01,.03-.11,.23-.22,.46-.32,.69-.02,.04-.04,.09-.06,.14l-.08,.18h-.22c.25-.47,.5-.94,.75-1.42,.04-.08,.08-.16,.13-.24,0,0,.01-.02,.02-.02,.04-.02,.1,.02,.07,.07Z"/><g><path class="cls-13" d="M23.23,90.17c2.03,.47,4.02,1.24,5.93,2.06,.07,.03,.04,.15-.04,.12-1.99-.62-4.02-1.21-5.97-1.94-.15-.06-.08-.27,.08-.24Z"/><path class="cls-13" d="M21.32,77.16c0-.07,.11-.09,.12-.02,.22,2.27,.57,4.24,.97,6.34,.19,.97,1.54,6.32,3.2,5.75,.28-.1,.4-.39,.4-.83,0-.52-.26-1.14-.4-1.64-.31-1.12-.57-2.24-.79-3.38-.4-2.12-.63-4.27-.59-6.43,0-.07,.1-.08,.11,0,.3,2.97,.68,5.92,1.43,8.81,.36,1.39,1.29,3.44-.17,3.81-1.48,.38-2.82-3.09-3.1-4.04-.79-2.67-1.11-5.6-1.18-8.37Z"/><path class="cls-13" d="M25.58,89.38c.19,.35,.35,.72,.5,1.09,.11,.29,.26,.6,.25,.91,0,.06-.08,.07-.12,.04-.23-.23-.35-.57-.49-.86-.17-.33-.34-.67-.49-1.01-.1-.23,.23-.38,.34-.17Z"/></g><path class="cls-13" d="M42.79,86.57c.03,2.09-.32,4.14-.89,6.13h-.41c.35-1.19,.63-2.4,.79-3.63,.38-2.86,.11-5.8-.53-8.61-.16-.7-.33-1.4-.52-2.09-.01-.05,.06-.08,.08-.03,.85,2.66,1.44,5.43,1.48,8.23Z"/><path class="cls-13" d="M33.01,78.94s.07-.03,.07,0c.22,1.64,.35,3.35,1.14,4.84,.73,1.37,2,2.25,3.38,2.87,.8,.36,1.63,.64,2.46,.91,.06,.02,.05,.11-.02,.1-1.57-.33-3.16-.69-4.53-1.57-1.46-.94-2.21-2.45-2.45-4.14-.14-.99-.13-2-.06-3Z"/></g></g></g><g><g><path class="cls-8" d="M27.04,50.93c-4.22,2.31-19.12,10.94-20.23,15.94-.9,4.06,3.13,5.66,6.04,4.13,3.95-2.08,11.99-9.8,15.66-15.72,2.03-3.28,2.68-6.62-1.47-4.35Z"/><g><path class="cls-6" d="M22.91,63.66l-9.74-6.32s11.13-6.26,14.92-7.18c4.27-1.03,3.86,1.38,1.72,4.96-2.14,3.58-6.9,8.54-6.9,8.54Z"/><path class="cls-6" d="M13.17,57.34l9.74,6.32s4.76-4.96,6.9-8.54c2.14-3.58,2.55-5.99-1.72-4.96-.22,.05-.46,.12-.72,.21-.1,.03-.21,.07-.32,.11,0,0,0,0,0,0-1.45,.5-3.41,1.4-5.41,2.39-.04,.02-.07,.04-.11,.05-1.58,.78-3.17,1.61-4.53,2.33-.2,.11-.39,.21-.57,.31-1.91,1.02-3.25,1.78-3.25,1.78Z"/><path class="cls-10" d="M13.17,57.34l9.74,6.32s4.76-4.96,6.9-8.54c2.14-3.58,2.55-5.99-1.72-4.96-.22,.05-.46,.12-.72,.21-.1,.03-.21,.07-.32,.11,0,0,0,0,0,0-1.45,.5-3.41,1.4-5.41,2.39-.04,.02-.07,.04-.11,.05-1.58,.78-3.17,1.61-4.53,2.33-.2,.11-.39,.21-.57,.31-1.91,1.02-3.25,1.78-3.25,1.78Z"/><path class="cls-3" d="M20.07,59.31c-.37,.14-.74,.3-1.08,.53h0s-.03,.09-.04,.13c.44-.05,.85-.17,1.25-.31,.45-.18,.89-.37,1.29-.68-.5,.03-.96,.17-1.42,.33Zm2.73-6.29c-.27-.12-.54-.23-.83-.31-.09,.04-.17,.08-.26,.12,.29,.21,.61,.38,.93,.53,.44,.2,.89,.36,1.39,.43-.38-.34-.8-.57-1.24-.77Z"/><path class="cls-11" d="M15.66,56.5c.37,.17,3.44,2.09,4.09,2.52,.66,.43,3.36,2.17,4,2.68,.03,.02,0,.07-.03,.05-.72-.37-3.45-2.12-4.13-2.55-.68-.43-3.67-2.4-3.97-2.66-.03-.02,0-.05,.03-.04Z"/><path class="cls-1" d="M20.28,61.95l2.64,1.71s4.76-4.96,6.9-8.54c1.58-2.64,2.22-4.65,.73-5.1l-10.26,11.93Z"/></g></g><g><path class="cls-10" d="M17.89,80.32l25.31,.04c.06-.07,.87-3.14,.54-5.03-1.23-7.06-5.89-21.3-7.75-23.86-2.18-3-6.26-1.83-7.09-1.33-4.41,2.69-10.68,22.75-11.21,24.91-.46,1.87,.11,5.17,.2,5.27Z"/><path class="cls-3" d="M28.82,56.81c-.2,.44-.36,.89-.43,1.39,.33-.38,.56-.8,.77-1.24,.19-.44,.36-.89,.43-1.39-.33,.38-.56,.8-.77,1.23Zm-4.16,19.24c-.19,.44-.36,.89-.43,1.39,.33-.38,.57-.8,.77-1.24,.2-.44,.37-.89,.43-1.39-.33,.38-.56,.8-.77,1.24Zm11.14-1.31c-.2,.44-.36,.89-.43,1.39,.34-.37,.57-.8,.78-1.23,.19-.44,.36-.89,.43-1.39-.33,.38-.56,.8-.77,1.24Zm7.55,4.03c-.44-.19-.89-.37-1.39-.43,.37,.33,.8,.57,1.23,.77,.1,.04,.2,.09,.3,.13,.02-.12,.05-.24,.07-.36-.07-.04-.14-.07-.22-.11Zm-18.51-14.43c-.44-.2-.89-.36-1.39-.43,.38,.33,.8,.57,1.24,.77,.44,.2,.89,.36,1.39,.43-.38-.34-.8-.57-1.24-.77Zm9.82-1.25c-.18-.45-.37-.89-.68-1.29,.03,.5,.17,.96,.33,1.42,.17,.45,.37,.89,.68,1.29-.03-.5-.17-.97-.32-1.42Zm-15.66,7.72c-.05,.16-.11,.32-.16,.48,.1,.2,.22,.38,.36,.56-.02-.36-.1-.71-.2-1.04Zm23.48-1.1c-.26,.12-.5,.26-.74,.44,.28-.02,.56-.07,.82-.14-.03-.1-.05-.2-.08-.3Zm-12.45,.26c-.45,.18-.89,.37-1.29,.68,.5-.03,.97-.16,1.42-.32,.45-.18,.89-.37,1.29-.68-.5,.03-.97,.17-1.42,.33Zm6.74-17.14h0c-.05,.02-.1,.04-.16,.05-.45,.18-.89,.38-1.29,.68,.5-.03,.96-.16,1.42-.32,.06-.02,.12-.05,.19-.07-.05-.12-.11-.23-.16-.33Z"/></g><g><path class="cls-8" d="M39.38,54.27c6.79,8.56,14.34,20.64,12.2,23.74-2.39,3.46-12.28-4.79-12.54-5.37-.29-.65-2.97-8.32-4.49-15.95-1.66-8.37,3.15-4.54,4.83-2.42Z"/><g><g><path class="cls-8" d="M50.96,78.39c-2.53,1.64-9.44,2.2-21.16-.1-1.62-.32,1.9-11.6,3.65-11.34,2.2,.32,10.69,2.03,11.29,2.23,5.1,1.72,7.94,8.11,6.22,9.22Z"/><g><path class="cls-8" d="M36.46,67.95s-.71-.24-4.24-2.1c-2.44-1.29-9.22-2.87-15.1,2.2-2.25,1.94-1.87,4.37,.83,2.77,1.9-1.13,3.12-2.08,3.85-2.27,0,0-1.2,3.16-.11,4.79,.49,.73,1.87,2.68,3.16,4.05,0,0,.37-.2,.81-.52,0,0,1.44,2.01,4.16,1.42l6.65-10.34Z"/><g><path class="cls-8" d="M29.69,64.98c-1.41,.33-4.39,1.09-6.6,2.55-2.47,1.63-6.78,5.42-5.56,7.23,.89,1.33,2.67,.02,2.67,.02,0,0-1.45,1.94-.38,2.97,.97,.93,2.29-.16,2.29-.16,0,0-.68,1.33,.43,2.05,1.34,.86,2.54-2.07,4.64-2.37,.47-.07,2.51-12.28,2.51-12.28Z"/><path class="cls-11" d="M25.24,69.85c-1.27,.53-3.86,2.48-5.05,4.87-.03,.05,0,.1,.03,.06,1.87-2.36,4.05-4.19,5.03-4.91,.01,0,0-.03-.02-.02Z"/><path class="cls-11" d="M26.8,72.39c-1.05,.57-3.63,2.7-4.75,5.16-.03,.06,0,.1,.04,.06,1.85-2.55,3.8-4.42,4.73-5.2,.01-.01,0-.03-.02-.02Z"/></g></g><path class="cls-11" d="M22.1,77.61c-.73,.66-2.06,.91-2.67-.09-.52-1,.01-2.08,.57-2.92,0,0,.4,.42,.4,.42-.4,.3-.82,.53-1.33,.65-1.14,.38-2.33-.74-2.14-1.93,.5-2.43,2.63-3.87,4.32-5.48,0,0,.51,.85,.51,.85-1.34,.58-2.47,1.49-3.7,2.24-.75,.38-1.93,.78-2.59-.01-1.68-3.08,5.78-6.5,8.17-6.52-2.69,.74-5.43,2.28-7.12,4.46-.91,1.41-.45,2.08,1.1,1.22,2.15-1.64,5.23-3.03,7.69-4.15,0,0-3.45,2.71-3.45,2.71-1.16,1.12-5.09,3.99-3.83,5.7,.9,.95,2.8-.8,3.67-1.3-.54,.68-1.63,1.82-1.9,2.67-.72,1.7,1.02,2.36,2.31,1.49h0Z"/></g><path class="cls-11" d="M48.48,72.06c-.41-.44-1.6-1.82-3.47-2.68-1.63-.75-6.47-1.64-7.66-1.74-.03,0-.04,.03-.01,.04,1.04,.32,5.69,1.22,7.43,2,1.82,.82,3.27,2.03,3.68,2.41,.02,.02,.05,0,.03-.03Z"/></g><g><path class="cls-10" d="M36.39,66.29l11.47-1.78s-7.59-10.26-10.68-12.65c-3.47-2.69-4.09-.33-3.6,3.82,.49,4.14,2.8,10.62,2.8,10.62Z"/><path class="cls-3" d="M41.54,59.5c-.44-.19-.89-.36-1.39-.43,.37,.33,.8,.57,1.23,.77,.44,.19,.89,.36,1.39,.43-.37-.34-.8-.57-1.23-.78Zm-3.54-6.93c-.49,.03-.95,.16-1.39,.32-.45,.18-.89,.38-1.29,.68,.5-.03,.96-.16,1.42-.32,.44-.17,.87-.36,1.27-.66,0,0,0,0,.02-.01,0,0-.02,0-.03,0Z"/><g><path class="cls-11" d="M45.93,62.64c-.41,0-3.99,.5-4.77,.63-.78,.13-3.96,.61-4.75,.8-.04,0-.03,.06,0,.06,.81-.04,4.02-.52,4.81-.63,.79-.11,4.33-.68,4.71-.8,.03-.01,.01-.05-.01-.05Z"/><path class="cls-11" d="M36.91,66.18c-.35,.03-.56,.04-.56,.04-.36-1.58-.83-3.2-1.26-4.77-.44-1.59-.92-3.17-1.37-4.75,0-.02-.04-.01-.04,.01,.2,.91,.4,1.83,.62,2.73-.05-.11-.09-.22-.14-.33-.16-.39-.34-.77-.49-1.16-.01-.03-.06-.02-.05,.02,.12,.41,.24,.81,.41,1.2,.12,.27,.26,.54,.4,.8,.12,.52,.25,1.04,.38,1.56,.42,1.59,.77,3.39,1.32,4.94,0,0,.42-.07,.81-.21,.05-.02,.03-.08-.02-.08Z"/></g></g></g><g><g><path class="cls-8" d="M28.86,54.51c1.49,.68,4.66-1.18,6.1-2.9,.1-.12,.17-1.56,.35-3.31,.11-1.06,.26-2.24,.47-3.3,.04-.22-7,.29-7,.29,0,0,.21,2.36-.17,4.22-.03,.15-.08,.3-.13,.43,0,.02-.02,.04-.02,.07-.3,.8-1.03,3.85,.41,4.51Z"/><path class="cls-11" d="M28.77,45.28s.15,1.68-.03,3.33c3.16,1.46,5.93-.03,6.58-.43,.11-1.03,.25-2.17,.46-3.19l-7,.29Z"/></g><g><path class="cls-8" d="M26.39,35.96c-.59,2.45,1.09,9.35,2.9,10.8,2.62,2.11,6.7,2.08,8.44-1.02,1.68-3.01-.67-11.95-2.67-13.25-2.94-1.91-7.79-.16-8.67,3.47Z"/><g><g><path class="cls-11" d="M32.87,39.83s-.03,.03-.03,.05c.13,.46,.19,1.01-.19,1.26-.01,0,0,.03,.01,.02,.49-.19,.4-.92,.21-1.34Z"/><path class="cls-11" d="M32.34,39.44c-.76,.12-.46,1.63,.24,1.52,.69-.11,.39-1.62-.24-1.52Z"/></g><g><path class="cls-11" d="M35.68,39.14s.04,.02,.04,.03c.08,.47,.24,1,.69,1.07,.01,0,.02,.03,0,.03-.53,.03-.74-.67-.74-1.13Z"/><path class="cls-11" d="M36,38.57c.74-.2,1.09,1.29,.4,1.48-.68,.18-1.02-1.31-.4-1.48Z"/></g><path class="cls-11" d="M31.42,38.37c.2-.08,.4-.12,.61-.18,.23-.07,.41-.14,.65-.06,.13,.04,.22,.22,.19,.35-.07,.3-.33,.45-.61,.54-.3,.1-.56,.1-.85-.02-.29-.11-.25-.53,.02-.63Z"/><path class="cls-11" d="M36.15,36.92c-.22,0-.42-.02-.63-.04-.24-.02-.44,0-.64-.16-.11-.08-.13-.28-.06-.39,.16-.26,.47-.31,.76-.31,.32,0,.56,.1,.8,.3,.23,.2,.05,.58-.23,.59Z"/><path class="cls-11" d="M33.74,43.53c.54-.36,1.32-.44,1.81-.48,.05-.02,.08-.13,.08-.19h0s-.23-.98-.23-.98c.14,.04,.86,.2,.82,.02-.41-1.51-.86-3.2-1.59-4.62-.02-.05-.1-.02-.08,.03,.33,1.47,.93,2.87,1.28,4.35-.23-.04-.6-.11-.79-.07-.05,.02,.3,1.02,.32,1.19,0,0-1-.09-1.67,.56-.17,.17-.21,.37,.05,.2Z"/><path class="cls-11" d="M33.11,44.44c.13,.08,.28,.21,.45,.19,.16-.02,.34-.13,.47-.22,.01,0,.03,0,.02,.02-.08,.2-.31,.37-.53,.37-.22,0-.36-.15-.45-.33-.01-.03,.02-.04,.04-.03Z"/></g><g><path class="cls-12" d="M26.88,41.42c.46-.34,1.06-2.11,1.36-2.85,.31-.77-.28-4-.49-4.96-.09,.09-.17,.18-.25,.27-.08,.09-.16,.19-.23,.29-.15,.2-.3,.41-.41,.63-.21,.39-.37,.8-.48,1.24-.28,1.16-.07,3.13,.5,5.38Z"/><g><path class="cls-11" d="M34.51,34.93c-.42,.77-1.2,1.3-2.08,1.35-.86,.05-1.81-.34-2.29-1.08-.01-.02-.05,0-.03,.02,.51,.79,1.37,1.34,2.34,1.26,.91-.08,1.77-.69,2.13-1.53,.02-.04-.04-.07-.06-.03Z"/><path class="cls-11" d="M30.57,29.37c-1.44,.35-2.58,1.45-2.89,2.55-.19,.67-.1,1.29,.13,1.88,0,.02,.06,0,.05-.02-.3-.96-.07-2.18,.83-3.09,.86-.88,2.15-1.38,3.4-1.2,.65,.09,1.23,.37,1.58,.78,.04,.05,.14-.01,.11-.06-.59-.81-1.91-1.15-3.21-.83Z"/><path class="cls-11" d="M39.64,30.62c-.39-.66-1.02-1.16-1.74-1.41-1.01-.35-1.99-.05-2.96,.28-.03,0-.01,.05,.01,.04,.83-.27,1.68-.5,2.55-.27,.71,.18,1.36,.61,1.79,1.2,.89,1.23,.71,3.05-.42,4.07-.64,.58-1.53,.87-2.39,.79-.03,0-.05,.05-.01,.05,1.58,.19,3.15-.86,3.5-2.43,.17-.77,.07-1.63-.34-2.31Z"/><path class="cls-11" d="M26.21,37.73s-1.94-2.28-1.12-4.03c.46-.99,2.64-1.35,2.64-1.35,0,0,.42-1.39,2.12-2.19,1.71-.81,4.09-.22,4.09-.22,0,0,1.5-1.35,3.3-.79,2.52,.79,2.98,4.26,.97,5.85-1.41,1.11-3.87,.18-3.87,.18-.2,.07-2.04,1.81-4.05,.27,0,0-1.05,1.44-2.39,.88,0,0-.33,1.3-1.7,1.39Z"/></g></g><g><path class="cls-8" d="M28.39,41.96s-1.82-2.07-2.77-1.39c-.96,.67,.59,3.79,1.83,4.1,1.24,.31,1.55-.84,1.55-.84l-.61-1.87Z"/><path class="cls-11" d="M26.08,41.45s-.02,.03,0,.03c.88,.25,1.4,.97,1.8,1.74-.28-.28-.64-.41-1.02-.07-.02,.02,0,.05,.03,.04,.33-.11,.59-.08,.85,.17,.19,.18,.33,.41,.47,.62,.05,.07,.18,.02,.14-.07,0,0,0-.01,0-.02-.1-1.07-1.1-2.47-2.25-2.45Z"/></g></g></g><g><path class="cls-8" d="M11.71,70.58c-2.89,1.66-5.14-1.64-4.9-3.96,.56-5.44,6.22-13.87,9.44-16.67,1.2-1.04,7.97,5.7,7.24,7.24-.8,1.67-6.39,10.3-11.77,13.39Z"/><path class="cls-11" d="M21.17,60.79c-1.09,3.76-4,7.73-7.91,8.8,2.26-3.32,4.51-6.55,7.91-8.8h0Z"/><g><g><path class="cls-8" d="M23.63,47.04c-.2-1.04,.79-3.12,.9-4.6,.11-1.48-1.15-2.88-1.66-2.58-.51,.29-.34,.95-1.26,2.99-.59,1.31-2.91,3.32-3.73,5.83-.41,1.26,5.96-.59,5.75-1.63Z"/><path class="cls-8" d="M23.63,47.04c-.2-1.04,.79-3.12,.9-4.6,.11-1.48-1.15-2.88-1.66-2.58-.51,.29-.34,.95-1.26,2.99-.59,1.31-2.91,3.32-3.73,5.83-.41,1.26,5.96-.59,5.75-1.63Z"/><path class="cls-1" d="M23.63,47.04c-.2-1.04,.79-3.12,.9-4.6,.11-1.48-1.15-2.88-1.66-2.58-.51,.29-.34,.95-1.26,2.99-.59,1.31-2.91,3.32-3.73,5.83-.41,1.26,5.96-.59,5.75-1.63Z"/></g><path class="cls-8" d="M32.05,43.9c.41,1.26-2.79,2.01-2.79,2.01,0,0,.89,.22,1.36,.97,.53,.86-.58,2.07-.58,2.07,0,0,.86,.41,1.27,1.25,.43,.87-.52,2.25-.52,2.25,0,0,.59,.82,.42,1.8-.28,1.68-2.77,2.5-4.21,3.32-1.54,.87-5.14,.94-6,1.7l-5.04-8.93s5.42-6.1,7.32-6.61c1.6-.43,8.14-1.76,8.77,.17Z"/><g><path class="cls-11" d="M29.22,45.88c-1.81,.05-3.6,.52-5.33,1.01-.04,.01-.02,.07,.02,.06,1.71-.5,3.59-.55,5.32-.98,.05-.01,.04-.09-.01-.09Z"/><path class="cls-11" d="M29.95,48.84c-.41,.02-.81,.18-1.19,.31-.41,.14-.83,.28-1.24,.44-.82,.3-1.63,.63-2.44,.97-.04,.02-.02,.07,.02,.06,.82-.3,1.64-.59,2.47-.86,.42-.13,.83-.26,1.25-.39,.39-.12,.81-.21,1.16-.41,.05-.03,.03-.12-.03-.12Z"/><path class="cls-11" d="M30.74,52.47c-.36,0-.73,.21-1.06,.34-.37,.15-.74,.29-1.11,.43-.74,.28-1.49,.57-2.24,.83-.04,.01-.02,.07,.02,.06,.77-.26,1.54-.51,2.3-.77,.38-.13,.75-.26,1.13-.4,.32-.11,.73-.22,.99-.45,.01-.01,0-.04-.02-.04Z"/></g><path class="cls-11" d="M30.33,55.63c.33-.51,.57-1.06,.53-1.55-.03-.59-.44-1.08-.83-1.51,0,0,.23-.47,.23-.47,.18-.39,.48-1.1,.31-1.47-.13-.32-.58-.71-.88-.77,0,0-1.51-.24-1.51-.24l1.16-1.37c.33-.35,.63-1.1,.1-1.32,0,0-.18-1.91-.18-1.91,.66-.18,1.49-.45,1.87-.78,.2-.15,.15-.14,.23-.09,.03-.04-.33-.26-.67-.35-1.52-.42-3.27-.46-4.88-.59,1.69-.48,3.34-.82,5.13-.66,.46,.08,.98,.09,1.57,.69,1.24,1.85-1.29,3.21-2.73,3.65,0,0-.18-1.91-.18-1.91,2.46,.27,2.71,3.32,1.02,4.68,0,0-.34-1.61-.34-1.61,2.15,.92,2.51,3.18,.96,4.79,0,0,.02-.72,.02-.72,.76,1.24,.41,2.87-.93,3.51h0Z"/></g></g></g></g><g><path class="cls-6" d="M54.05,54.4v7.68c0,3.3-2.48,5.78-5.79,5.78-3.07,0-5.79-2.48-5.79-5.78v-12.28c0-.12,.12-.12,.12-.24q-.12-.12-.12-.24c0-3.07,2.72-5.79,5.79-5.79,7.44,0,13.46-5.9,13.46-13.22s-6.02-13.22-13.46-13.22c-4.84,0-9.09,2.6-11.33,6.49-1.65,2.84-5.19,3.78-8.03,2.12-2.71-1.65-3.66-5.08-2.01-7.91,4.25-7.32,12.29-12.28,21.37-12.28,13.7,0,24.92,11.1,24.92,24.79,0,11.69-8.15,21.49-19.13,24.09Zm0,25.86v2.12c0,3.31-2.48,5.79-5.79,5.79-3.07,0-5.79-2.48-5.79-5.79v-2.12c0-3.19,2.72-5.78,5.79-5.78,3.31,0,5.79,2.6,5.79,5.78Z"/><path class="cls-4" d="M50.45,8.06c9.91-1.25,18.85,8.86,20.46,17.96,.18,1,.27,2.11,.29,3.13-.01,.35-.02,.7-.04,1.04-2.41-9.78-10.29-20.37-20.7-22.13h0Z"/></g><g><g><path class="cls-3" d="M56.17,31.13c-.43,4.11-4.11,7.09-8.22,6.66-1.66-.17-3.14-.88-4.28-1.93l-3.74,.55,1.87-3.23c-.45-1.11-.65-2.33-.51-3.6,.43-4.11,4.11-7.09,8.22-6.66,4.11,.43,7.09,4.11,6.66,8.22Z"/><path class="cls-11" d="M56.17,31.13c-.16,1.37-.66,2.7-1.51,3.79-.2,.28-.45,.52-.68,.78-.26,.23-.5,.47-.79,.67-.55,.42-1.16,.75-1.8,1-.64,.27-1.33,.4-2.01,.48-.35,.02-.69,.05-1.04,.02-.35,0-.69-.05-1.03-.11-1.37-.25-2.66-.89-3.7-1.83l.09,.03-3.74,.57-.27,.04,.14-.24,1.86-3.24v.13c-.92-2.13-.71-4.68,.45-6.67,.58-1,1.39-1.85,2.34-2.49,.95-.64,2.06-1.04,3.19-1.2,1.13-.15,2.3-.05,3.38,.31,1.08,.36,2.07,.98,2.88,1.77,1.65,1.57,2.48,3.92,2.24,6.18Zm0,0c.23-2.25-.62-4.59-2.27-6.14-.82-.77-1.81-1.36-2.88-1.7-1.07-.34-2.22-.42-3.33-.25-1.1,.17-2.17,.58-3.09,1.22-.91,.64-1.68,1.48-2.24,2.44-.57,.96-.86,2.06-.95,3.16-.07,1.11,.11,2.23,.53,3.26l.03,.07-.04,.06-1.88,3.23-.13-.2,3.74-.52h.05s.04,.03,.04,.03c.99,.93,2.24,1.58,3.58,1.84,.33,.07,.67,.11,1.01,.12,.34,.04,.68,.01,1.02,0,.68-.07,1.36-.18,2-.44,.64-.24,1.26-.55,1.8-.97,.29-.19,.53-.44,.79-.66,.23-.25,.48-.49,.68-.77,.86-1.08,1.37-2.41,1.53-3.77Z"/></g><path class="cls-6" d="M49.32,31.57v.95c0,.41-.31,.71-.71,.71-.38,0-.71-.31-.71-.71v-1.52s.02-.01,.02-.03t-.02-.03c0-.38,.34-.71,.71-.71,.92,0,1.66-.73,1.66-1.63s-.74-1.63-1.66-1.63c-.6,0-1.12,.32-1.4,.8-.2,.35-.64,.47-.99,.26-.33-.2-.45-.63-.25-.98,.52-.9,1.52-1.52,2.64-1.52,1.69,0,3.07,1.37,3.07,3.06,0,1.44-1.01,2.65-2.36,2.97Zm0,3.19v.26c0,.41-.31,.71-.71,.71-.38,0-.71-.31-.71-.71v-.26c0-.39,.34-.71,.71-.71,.41,0,.71,.32,.71,.71Z"/></g></svg>