<?xml version="1.0" encoding="UTF-8"?><svg id="Camada_1" xmlns="http://www.w3.org/2000/svg" viewBox="0 0 128.34 82.49"><defs><style>.cls-1{fill:#007cff;}.cls-2{fill:#fff;}.cls-3{fill:#ececec;}.cls-4{fill:#ffc800;}.cls-5{fill:#ffbf9d;}.cls-6{fill:#e8505b;}.cls-7{fill:#b0b0b0;}.cls-8{fill:#375a64;}.cls-9{fill:#1a2e35;}.cls-10{fill:#5ae4a7;}.cls-11{opacity:.3;}</style></defs><g><path class="cls-10" d="M103.06,68.65c1.37-2.95,1.98-6.24,2.4-9.43,1.16-8.8,.7-17.85-1.84-26.41C97.82,13.3,86.68,1.65,72.57,.38c-14.11-1.26-27.63,6.32-32.83,20.64-5.2,14.32-19.9,26.26-17.38,37.91,2.53,11.65,13.52,19.66,35.2,22.33,9.45,1.16,19.45,1.69,28.75-.65,5.31-1.33,10.53-3.91,14.12-7.93,1.1-1.23,1.95-2.59,2.62-4.03Z"/><path class="cls-3" d="M103.06,68.65c1.37-2.95,1.98-6.24,2.4-9.43,1.16-8.8,.7-17.85-1.84-26.41C97.82,13.3,86.68,1.65,72.57,.38c-14.11-1.26-27.63,6.32-32.83,20.64-5.2,14.32-19.9,26.26-17.38,37.91,2.53,11.65,13.52,19.66,35.2,22.33,9.45,1.16,19.45,1.69,28.75-.65,5.31-1.33,10.53-3.91,14.12-7.93,1.1-1.23,1.95-2.59,2.62-4.03Z"/></g><g><path class="cls-9" d="M107.22,73.2h-2.39c-.08,0-.15-.07-.15-.15s.07-.15,.15-.15h2.39c.08,0,.15,.07,.15,.15s-.07,.15-.15,.15Z"/><path class="cls-9" d="M103.39,73.2H34.97c-.08,0-.15-.07-.15-.15s.07-.15,.15-.15H103.39c.08,0,.15,.07,.15,.15s-.07,.15-.15,.15Z"/><path class="cls-9" d="M32.89,73.2h-11.77c-.08,0-.15-.07-.15-.15s.07-.15,.15-.15h11.77c.08,0,.15,.07,.15,.15s-.07,.15-.15,.15Z"/></g><g><g><rect class="cls-1" x="63.63" y="16.01" width="2.77" height="2.77"/><path class="cls-9" d="M66.4,18.94h-2.77c-.08,0-.15-.07-.15-.15v-2.77c0-.08,.07-.15,.15-.15h2.77c.08,0,.15,.07,.15,.15v2.77c0,.08-.07,.15-.15,.15Zm-2.62-.3h2.47v-2.47h-2.47v2.47Z"/></g><g><rect class="cls-1" x="69.87" y="20.63" width="2.77" height="2.77" transform="translate(3.1 52.28) rotate(-41.11)"/><path class="cls-9" d="M71.12,24.12s-.08-.02-.11-.05l-1.82-2.09s-.04-.07-.04-.11,.02-.08,.05-.1l2.09-1.82c.06-.05,.16-.05,.21,.01l1.82,2.09s.04,.07,.04,.11-.02,.08-.05,.1l-2.09,1.82s-.06,.04-.1,.04Zm-1.61-2.23l1.62,1.86,1.86-1.62-1.62-1.86-1.86,1.62Z"/></g><g><rect class="cls-9" x="54.27" y="8.28" width="2.77" height="2.77" transform="translate(7.37 38.98) rotate(-41.11)"/><path class="cls-9" d="M55.52,11.77s-.08-.02-.11-.05l-1.82-2.09s-.04-.07-.04-.11c0-.04,.02-.08,.05-.1l2.09-1.82s.07-.04,.11-.04c.04,0,.08,.02,.1,.05l1.82,2.09c.05,.06,.05,.16-.01,.21l-2.09,1.82s-.06,.04-.1,.04Zm-1.61-2.23l1.62,1.86,1.86-1.62-1.62-1.86-1.86,1.62Z"/></g><g><rect class="cls-2" x="54.27" y="19.5" width="2.77" height="2.77" transform="translate(-.01 41.75) rotate(-41.11)"/><path class="cls-9" d="M55.52,23s-.08-.02-.11-.05l-1.82-2.09s-.04-.07-.04-.11c0-.04,.02-.08,.05-.1l2.09-1.82c.06-.05,.16-.05,.21,.01l1.82,2.09c.05,.06,.05,.16-.01,.21l-2.09,1.82s-.06,.04-.1,.04Zm-1.61-2.23l1.62,1.86,1.86-1.62-1.62-1.86-1.86,1.62Z"/></g><g><rect class="cls-1" x="66.62" y="8.15" width="2.77" height="2.77" transform="translate(10.5 47.07) rotate(-41.11)"/><path class="cls-9" d="M67.88,11.64s0,0-.01,0c-.04,0-.08-.02-.1-.05l-1.82-2.09c-.05-.06-.05-.16,.01-.21l2.09-1.82s.07-.04,.11-.04c.04,0,.08,.02,.1,.05l1.82,2.09s.04,.07,.04,.11-.02,.08-.05,.1l-2.09,1.82s-.06,.04-.1,.04Zm-1.61-2.23l1.62,1.86,1.86-1.62-1.62-1.86-1.86,1.62Z"/></g><g><polygon class="cls-9" points="66.12 20.67 66.7 21.86 68.02 22.05 67.07 22.98 67.29 24.28 66.12 23.67 64.94 24.28 65.17 22.98 64.21 22.05 65.53 21.86 66.12 20.67"/><path class="cls-9" d="M67.29,24.44s-.05,0-.07-.02l-1.11-.58-1.1,.58c-.05,.03-.11,.02-.16-.01-.05-.03-.07-.09-.06-.15l.21-1.23-.89-.87s-.06-.1-.04-.16c.02-.05,.07-.09,.12-.1l1.24-.18,.55-1.12c.05-.1,.22-.1,.27,0l.55,1.12,1.24,.18c.06,0,.1,.05,.12,.1,.02,.05,0,.11-.04,.16l-.89,.87,.21,1.23c0,.06-.01,.11-.06,.15-.03,.02-.06,.03-.09,.03Zm-2.75-2.28l.73,.71s.05,.08,.04,.13l-.17,1.01,.9-.48s.1-.02,.14,0l.9,.48-.17-1.01s0-.1,.04-.13l.73-.71-1.01-.15s-.09-.04-.11-.08l-.45-.92-.45,.92s-.06,.08-.11,.08l-1.01,.15Z"/></g><g><polygon class="cls-10" points="56.11 12.22 56.7 13.41 58.01 13.6 57.06 14.53 57.28 15.84 56.11 15.22 54.93 15.84 55.16 14.53 54.21 13.6 55.52 13.41 56.11 12.22"/><path class="cls-9" d="M54.93,15.99s-.06,0-.09-.03c-.05-.03-.07-.09-.06-.15l.21-1.23-.89-.87s-.06-.1-.04-.16c.02-.05,.07-.09,.12-.1l1.24-.18,.55-1.12c.03-.05,.08-.08,.14-.08h0c.06,0,.11,.03,.14,.08l.55,1.12,1.24,.18c.06,0,.1,.05,.12,.1,.02,.05,0,.11-.04,.16l-.89,.87,.21,1.23c0,.06-.01,.11-.06,.15-.05,.03-.11,.04-.16,.01l-1.1-.58-1.1,.58s-.05,.02-.07,.02Zm-.4-2.28l.73,.71s.05,.08,.04,.13l-.17,1.01,.9-.48s.1-.02,.14,0l.9,.48-.17-1.01s0-.1,.04-.13l.73-.71-1.01-.15s-.09-.04-.11-.08l-.45-.92-.45,.92s-.06,.08-.11,.08l-1.01,.15Z"/></g><g><polygon class="cls-6" points="73.46 5.62 73.06 6.88 73.87 7.93 72.54 7.94 71.79 9.04 71.38 7.77 70.1 7.4 71.17 6.62 71.13 5.29 72.21 6.07 73.46 5.62"/><path class="cls-9" d="M71.79,9.19s-.01,0-.02,0c-.06,0-.1-.05-.12-.1l-.39-1.19-1.2-.35c-.06-.02-.1-.06-.11-.12-.01-.06,.01-.11,.06-.15l1.01-.74-.04-1.25c0-.06,.03-.11,.08-.14,.05-.03,.11-.02,.16,.01l1.01,.73,1.18-.42c.05-.02,.12,0,.16,.03,.04,.04,.06,.1,.04,.15l-.38,1.19,.76,.99s.04,.11,.02,.16c-.03,.05-.08,.08-.14,.08h-1.25s-.7,1.04-.7,1.04c-.03,.04-.08,.07-.13,.07Zm-1.35-1.84l.98,.29s.09,.05,.1,.1l.32,.97,.58-.84s.07-.07,.12-.07h1.02s-.62-.81-.62-.81c-.03-.04-.04-.09-.02-.14l.31-.97-.96,.34s-.1,0-.14-.02l-.83-.6,.03,1.02s-.02,.1-.06,.13l-.82,.6Z"/></g><g><polygon class="cls-6" points="64.61 26.6 65.92 26.76 66.8 25.77 67.06 27.07 68.27 27.6 67.11 28.25 66.98 29.57 66.01 28.66 64.71 28.95 65.28 27.74 64.61 26.6"/><path class="cls-9" d="M66.98,29.72s-.07-.01-.1-.04l-.91-.85-1.22,.27c-.06,.01-.11,0-.15-.05-.04-.05-.04-.11-.02-.16l.53-1.13-.63-1.08s-.03-.11,0-.16c.03-.05,.09-.07,.15-.07l1.24,.15,.83-.93s.1-.06,.15-.05c.06,.02,.1,.06,.11,.12l.24,1.23,1.14,.5c.05,.02,.09,.07,.09,.13,0,.06-.03,.11-.08,.14l-1.09,.6-.12,1.24c0,.06-.04,.11-.1,.13-.02,0-.04,0-.05,0Zm-.97-1.21s.08,.01,.1,.04l.75,.7,.1-1.02s.03-.09,.08-.12l.89-.49-.94-.41s-.08-.06-.09-.11l-.19-1-.68,.76s-.08,.06-.13,.05l-1.01-.13,.52,.88s.03,.1,0,.14l-.43,.92,1-.22s.02,0,.03,0Z"/></g><g><circle class="cls-2" cx="70.11" cy="16.98" r="1.95" transform="translate(37.41 81.28) rotate(-76.66)"/><path class="cls-9" d="M70.11,19.08c-1.16,0-2.1-.94-2.1-2.1s.94-2.1,2.1-2.1,2.1,.94,2.1,2.1-.94,2.1-2.1,2.1Zm0-3.9c-.99,0-1.8,.81-1.8,1.8s.81,1.8,1.8,1.8,1.8-.81,1.8-1.8-.81-1.8-1.8-1.8Z"/></g><g><circle class="cls-2" cx="62.55" cy="29.38" r="1.95"/><path class="cls-9" d="M62.55,31.48c-1.16,0-2.1-.94-2.1-2.1s.94-2.1,2.1-2.1,2.1,.94,2.1,2.1-.94,2.1-2.1,2.1Zm0-3.9c-.99,0-1.8,.81-1.8,1.8s.81,1.8,1.8,1.8,1.8-.81,1.8-1.8-.81-1.8-1.8-1.8Z"/></g><g><circle class="cls-9" cx="76.15" cy="10.96" r="1.95"/><path class="cls-9" d="M76.15,13.06c-1.16,0-2.1-.94-2.1-2.1s.94-2.1,2.1-2.1,2.1,.94,2.1,2.1-.94,2.1-2.1,2.1Zm0-3.9c-.99,0-1.8,.81-1.8,1.8s.81,1.8,1.8,1.8,1.8-.81,1.8-1.8-.81-1.8-1.8-1.8Z"/></g><g><circle class="cls-2" cx="61.63" cy="13.48" r="1.95" transform="translate(34.29 70.34) rotate(-76.66)"/><path class="cls-9" d="M61.63,15.58c-1.16,0-2.1-.94-2.1-2.1s.94-2.1,2.1-2.1,2.1,.94,2.1,2.1-.94,2.1-2.1,2.1Zm0-3.9c-.99,0-1.8,.81-1.8,1.8s.81,1.8,1.8,1.8,1.8-.81,1.8-1.8-.81-1.8-1.8-1.8Z"/></g><g><polygon class="cls-9" points="61.73 19.43 58.61 17.47 58.48 21.15 61.73 19.43"/><path class="cls-9" d="M58.48,21.3s-.06,0-.08-.02c-.05-.03-.07-.08-.07-.13l.14-3.68c0-.05,.03-.1,.08-.13,.05-.03,.11-.02,.15,0l3.11,1.96s.07,.08,.07,.13c0,.05-.03,.1-.08,.13l-3.25,1.72s-.05,.02-.07,.02Zm.28-3.56l-.12,3.15,2.79-1.47-2.67-1.68Z"/></g><g><polygon class="cls-9" points="76.31 18.11 75.72 14.48 72.87 16.82 76.31 18.11"/><path class="cls-9" d="M76.31,18.27s-.04,0-.05,0l-3.44-1.3c-.05-.02-.09-.06-.1-.12,0-.05,.01-.11,.05-.14l2.84-2.33s.1-.04,.15-.02c.05,.02,.09,.06,.1,.12l.6,3.63c0,.05-.01,.11-.05,.14-.03,.02-.06,.03-.1,.03Zm-3.14-1.5l2.95,1.11-.51-3.11-2.44,2Z"/></g><g><polygon class="cls-4" points="62.91 26.28 63.06 22.6 59.8 24.31 62.91 26.28"/><path class="cls-9" d="M62.91,26.43s-.06,0-.08-.02l-3.11-1.97s-.07-.08-.07-.13c0-.05,.03-.1,.08-.13l3.26-1.71s.11-.02,.15,0c.05,.03,.07,.08,.07,.13l-.15,3.68c0,.05-.03,.1-.08,.13-.02,.01-.05,.02-.07,.02Zm-2.81-2.11l2.67,1.69,.13-3.15-2.79,1.47Z"/></g><g><polygon class="cls-4" points="72.41 13.92 72.56 10.24 69.3 11.95 72.41 13.92"/><path class="cls-9" d="M72.41,14.07s-.06,0-.08-.02l-3.11-1.97s-.07-.08-.07-.13c0-.05,.03-.1,.08-.13l3.26-1.71s.11-.02,.15,0c.05,.03,.07,.08,.07,.13l-.15,3.68c0,.05-.03,.1-.08,.13-.02,.01-.05,.02-.07,.02Zm-2.81-2.11l2.67,1.69,.13-3.15-2.79,1.47Z"/></g><g><polygon class="cls-4" points="59.7 6.88 61.61 10.02 63.37 6.79 59.7 6.88"/><path class="cls-9" d="M61.61,10.17c-.05,0-.1-.03-.13-.07l-1.92-3.14s-.03-.1,0-.15c.03-.05,.08-.08,.13-.08l3.68-.09c.07,0,.1,.03,.13,.07s.03,.1,0,.15l-1.76,3.23s-.08,.08-.13,.08h0Zm-1.65-3.15l1.64,2.69,1.51-2.77-3.15,.08Z"/></g></g><g class="cls-11"><g><path d="M90.29,22.91s-.05,0-.07-.03c-.02-.02-.03-.04-.03-.07v-1.22c0-.62-.06-2.81-.06-2.83,0-.05,.04-.09,.09-.1,.01,0,1.51-.09,2.74-.05,1.23,.04,1.89,0,1.89,0,.02,0,.05,0,.07,.02,.02,.02,.03,.04,.03,.07l.18,4.05s0,.05-.03,.07c-.02,.02-.04,.03-.07,.03h-2.14c-.82,0-2.6,.04-2.61,.04h0Zm.04-4.06c.01,.42,.06,2.2,.06,2.75v1.12c.38,0,1.81-.04,2.52-.04h2.04l-.17-3.86c-.23,.01-.85,.03-1.82,0-1.06-.04-2.3,.02-2.64,.04Z"/><path d="M93.32,19.06c0-.17-.14-.31-.31-.31s-.31,.14-.31,.31,.14,.31,.31,.31,.31-.14,.31-.31Z"/><circle cx="93.37" cy="18.85" r=".31"/><path d="M92.63,19.45s-.05-.01-.07-.03c-.03-.04-.03-.1,0-.13l.21-.19s.1-.03,.13,0c.03,.04,.03,.1,0,.13l-.21,.19s-.04,.02-.06,.02Z"/></g><path d="M93.7,20.29h-2.41c-.05,0-.09-.04-.09-.09s.04-.09,.09-.09h2.41c.05,0,.09,.04,.09,.09s-.04,.09-.09,.09Z"/><path d="M93.84,21.1h-2.56c-.05,0-.09-.04-.09-.09s.04-.09,.09-.09h2.56c.05,0,.09,.04,.09,.09s-.04,.09-.09,.09Z"/><path d="M93.89,21.86h-2.6c-.05,0-.09-.04-.09-.09s.04-.09,.09-.09h2.6c.05,0,.09,.04,.09,.09s-.04,.09-.09,.09Z"/></g><g class="cls-11"><g><path d="M102.17,36.63s-.05,0-.07-.03c-.02-.02-.03-.04-.03-.07v-1.22c0-.62-.06-2.81-.06-2.83,0-.05,.04-.09,.09-.1,.01,0,1.51-.09,2.74-.05,1.23,.04,1.89,0,1.89,0,.02,0,.05,0,.07,.02,.02,.02,.03,.04,.03,.07l.18,4.05s0,.05-.03,.07c-.02,.02-.04,.03-.07,.03h-2.14c-.82,0-2.6,.04-2.61,.04h0Zm.04-4.06c.01,.42,.06,2.2,.06,2.75v1.12c.38,0,1.81-.04,2.52-.04h2.04l-.17-3.86c-.23,.01-.85,.03-1.82,0-1.06-.04-2.3,.02-2.64,.04Z"/><path d="M105.2,32.78c0-.17-.14-.31-.31-.31s-.31,.14-.31,.31,.14,.31,.31,.31,.31-.14,.31-.31Z"/><path d="M105.57,32.56c0-.17-.14-.31-.31-.31s-.31,.14-.31,.31,.14,.31,.31,.31,.31-.14,.31-.31Z"/><path d="M104.51,33.17s-.05-.01-.07-.03c-.03-.04-.03-.1,0-.13l.21-.19s.1-.03,.13,0c.03,.04,.03,.1,0,.13l-.21,.19s-.04,.02-.06,.02Z"/></g><path d="M105.58,34.01h-2.41c-.05,0-.09-.04-.09-.09s.04-.09,.09-.09h2.41c.05,0,.09,.04,.09,.09s-.04,.09-.09,.09Z"/><path d="M105.72,34.82h-2.56c-.05,0-.09-.04-.09-.09s.04-.09,.09-.09h2.56c.05,0,.09,.04,.09,.09s-.04,.09-.09,.09Z"/><path d="M105.77,35.57h-2.6c-.05,0-.09-.04-.09-.09s.04-.09,.09-.09h2.6c.05,0,.09,.04,.09,.09s-.04,.09-.09,.09Z"/></g><g class="cls-11"><g><path d="M46.95,29.88s-.05,0-.07-.03c-.02-.02-.03-.04-.03-.07v-1.22c0-.62-.06-2.81-.06-2.83,0-.05,.04-.09,.09-.1,.01,0,1.51-.09,2.74-.05,1.23,.04,1.89,0,1.89,0,.02,0,.05,0,.07,.02,.02,.02,.03,.04,.03,.07l.18,4.05s0,.05-.03,.07c-.02,.02-.04,.03-.07,.03h-2.14c-.82,0-2.6,.04-2.61,.04h0Zm.04-4.06c.01,.42,.06,2.2,.06,2.75v1.12c.38,0,1.81-.04,2.52-.04h2.04l-.17-3.86c-.23,.01-.85,.03-1.82,0-1.06-.04-2.3,.02-2.64,.04Z"/><path d="M49.98,26.03c0-.17-.14-.31-.31-.31s-.31,.14-.31,.31,.14,.31,.31,.31,.31-.14,.31-.31Z"/><path d="M50.35,25.82c0-.17-.14-.31-.31-.31s-.31,.14-.31,.31,.14,.31,.31,.31,.31-.14,.31-.31Z"/><path d="M49.29,26.42s-.05-.01-.07-.03c-.03-.04-.03-.1,0-.13l.21-.19s.1-.03,.13,0c.03,.04,.03,.1,0,.13l-.21,.19s-.04,.02-.06,.02Z"/></g><path d="M50.36,27.27h-2.41c-.05,0-.09-.04-.09-.09s.04-.09,.09-.09h2.41c.05,0,.09,.04,.09,.09s-.04,.09-.09,.09Z"/><path d="M50.5,28.07h-2.56c-.05,0-.09-.04-.09-.09s.04-.09,.09-.09h2.56c.05,0,.09,.04,.09,.09s-.04,.09-.09,.09Z"/><path d="M50.55,28.83h-2.6c-.05,0-.09-.04-.09-.09s.04-.09,.09-.09h2.6c.05,0,.09,.04,.09,.09s-.04,.09-.09,.09Z"/></g><g class="cls-11"><g><path d="M83.8,29.08s-.05,0-.07-.03c-.02-.02-.03-.04-.03-.07v-1.22c0-.62-.06-2.81-.06-2.83,0-.05,.04-.09,.09-.1,.01,0,1.51-.09,2.74-.05,1.23,.04,1.89,0,1.89,0,.02,0,.05,0,.07,.02,.02,.02,.03,.04,.03,.07l.18,4.05s0,.05-.03,.07c-.02,.02-.04,.03-.07,.03h-2.14c-.82,0-2.6,.04-2.61,.04h0Zm.04-4.06c.01,.42,.06,2.2,.06,2.75v1.12c.38,0,1.81-.04,2.52-.04h2.04l-.17-3.86c-.23,.01-.85,.03-1.82,0-1.06-.04-2.3,.02-2.64,.04Z"/><path d="M86.83,25.23c0-.17-.14-.31-.31-.31s-.31,.14-.31,.31,.14,.31,.31,.31,.31-.14,.31-.31Z"/><path d="M87.19,25.01c0-.17-.14-.31-.31-.31s-.31,.14-.31,.31,.14,.31,.31,.31,.31-.14,.31-.31Z"/><path d="M86.13,25.61s-.05-.01-.07-.03c-.03-.04-.03-.1,0-.13l.21-.19s.1-.03,.13,0c.03,.04,.03,.1,0,.13l-.21,.19s-.04,.02-.06,.02Z"/></g><path d="M87.2,26.46h-2.41c-.05,0-.09-.04-.09-.09s.04-.09,.09-.09h2.41c.05,0,.09,.04,.09,.09s-.04,.09-.09,.09Z"/><path d="M87.34,27.26h-2.56c-.05,0-.09-.04-.09-.09s.04-.09,.09-.09h2.56c.05,0,.09,.04,.09,.09s-.04,.09-.09,.09Z"/><path d="M87.39,28.02h-2.6c-.05,0-.09-.04-.09-.09s.04-.09,.09-.09h2.6c.05,0,.09,.04,.09,.09s-.04,.09-.09,.09Z"/></g><g class="cls-11"><g><path d="M95.28,29.08s-.05,0-.07-.03c-.02-.02-.03-.04-.03-.07v-1.22c0-.62-.06-2.81-.06-2.83,0-.05,.04-.09,.09-.1,.01,0,1.51-.09,2.74-.05,1.23,.04,1.89,0,1.89,0,.02,0,.05,0,.07,.02,.02,.02,.03,.04,.03,.07l.18,4.05s0,.05-.03,.07c-.02,.02-.04,.03-.07,.03h-2.14c-.82,0-2.6,.04-2.61,.04h0Zm.04-4.06c.01,.42,.06,2.2,.06,2.75v1.12c.38,0,1.81-.04,2.52-.04h2.04l-.17-3.86c-.23,.01-.85,.03-1.82,0-1.06-.04-2.3,.02-2.64,.04Z"/><path d="M98.31,25.23c0-.17-.14-.31-.31-.31s-.31,.14-.31,.31,.14,.31,.31,.31,.31-.14,.31-.31Z"/><path d="M98.67,25.01c0-.17-.14-.31-.31-.31s-.31,.14-.31,.31,.14,.31,.31,.31,.31-.14,.31-.31Z"/><path d="M97.61,25.61s-.05-.01-.07-.03c-.03-.04-.03-.1,0-.13l.21-.19s.1-.03,.13,0c.03,.04,.03,.1,0,.13l-.21,.19s-.04,.02-.06,.02Z"/></g><path d="M98.68,26.46h-2.41c-.05,0-.09-.04-.09-.09s.04-.09,.09-.09h2.41c.05,0,.09,.04,.09,.09s-.04,.09-.09,.09Z"/><path d="M98.82,27.26h-2.56c-.05,0-.09-.04-.09-.09s.04-.09,.09-.09h2.56c.05,0,.09,.04,.09,.09s-.04,.09-.09,.09Z"/><path d="M98.87,28.02h-2.6c-.05,0-.09-.04-.09-.09s.04-.09,.09-.09h2.6c.05,0,.09,.04,.09,.09s-.04,.09-.09,.09Z"/></g><g class="cls-11"><g><path d="M97.37,19.45s-.05,0-.07-.03c-.02-.02-.03-.04-.03-.07v-1.22c0-.62-.06-2.81-.06-2.83,0-.05,.04-.09,.09-.1,.01,0,1.51-.09,2.74-.05,1.23,.04,1.89,0,1.89,0,.02,0,.05,0,.07,.02,.02,.02,.03,.04,.03,.07l.18,4.05s0,.05-.03,.07c-.02,.02-.04,.03-.07,.03h-2.14c-.82,0-2.6,.04-2.61,.04h0Zm.04-4.06c.01,.42,.06,2.2,.06,2.75v1.12c.38,0,1.81-.04,2.52-.04h2.04l-.17-3.86c-.23,.01-.85,.03-1.82,0-1.06-.04-2.3,.02-2.64,.04Z"/><path d="M100.4,15.6c0-.17-.14-.31-.31-.31s-.31,.14-.31,.31,.14,.31,.31,.31,.31-.14,.31-.31Z"/><circle cx="100.45" cy="15.39" r=".31"/><path d="M99.71,15.99s-.05-.01-.07-.03c-.03-.04-.03-.1,0-.13l.21-.19s.1-.03,.13,0c.03,.04,.03,.1,0,.13l-.21,.19s-.04,.02-.06,.02Z"/></g><path d="M100.77,16.84h-2.41c-.05,0-.09-.04-.09-.09s.04-.09,.09-.09h2.41c.05,0,.09,.04,.09,.09s-.04,.09-.09,.09Z"/><path d="M100.92,17.64h-2.56c-.05,0-.09-.04-.09-.09s.04-.09,.09-.09h2.56c.05,0,.09,.04,.09,.09s-.04,.09-.09,.09Z"/><path d="M100.96,18.4h-2.6c-.05,0-.09-.04-.09-.09s.04-.09,.09-.09h2.6c.05,0,.09,.04,.09,.09s-.04,.09-.09,.09Z"/></g><g class="cls-11"><g><path d="M83.02,18.46s-.05,0-.07-.03c-.02-.02-.03-.04-.03-.07v-1.22c0-.62-.06-2.81-.06-2.83,0-.05,.04-.09,.09-.1,.01,0,1.51-.09,2.74-.05,1.23,.04,1.89,0,1.89,0,.02,0,.05,0,.07,.02,.02,.02,.03,.04,.03,.07l.18,4.05s0,.05-.03,.07c-.02,.02-.04,.03-.07,.03h-2.14c-.82,0-2.6,.04-2.61,.04h0Zm.04-4.06c.01,.42,.06,2.2,.06,2.75v1.12c.38,0,1.81-.04,2.52-.04h2.04l-.17-3.86c-.23,.01-.85,.03-1.82,0-1.06-.04-2.3,.02-2.64,.04Z"/><circle cx="85.74" cy="14.61" r=".31"/><path d="M86.41,14.39c0-.17-.14-.31-.31-.31s-.31,.14-.31,.31,.14,.31,.31,.31,.31-.14,.31-.31Z"/><path d="M85.36,15s-.05-.01-.07-.03c-.03-.04-.03-.1,0-.13l.21-.19s.1-.03,.13,0c.03,.04,.03,.1,0,.13l-.21,.19s-.04,.02-.06,.02Z"/></g><path d="M86.43,15.84h-2.41c-.05,0-.09-.04-.09-.09s.04-.09,.09-.09h2.41c.05,0,.09,.04,.09,.09s-.04,.09-.09,.09Z"/><path d="M86.57,16.65h-2.56c-.05,0-.09-.04-.09-.09s.04-.09,.09-.09h2.56c.05,0,.09,.04,.09,.09s-.04,.09-.09,.09Z"/><path d="M86.62,17.4h-2.6c-.05,0-.09-.04-.09-.09s.04-.09,.09-.09h2.6c.05,0,.09,.04,.09,.09s-.04,.09-.09,.09Z"/></g><g class="cls-11"><g><path d="M30.56,21.06h-2.45c-.08,0-.15-.07-.15-.15v-2.45c0-.08,.07-.15,.15-.15h2.45c.08,0,.15,.07,.15,.15v2.45c0,.08-.07,.15-.15,.15Zm-2.3-.3h2.15v-2.15h-2.15v2.15Z"/><path d="M38.84,19.84h-7.15c-.08,0-.15-.07-.15-.15s.07-.15,.15-.15h7.15c.08,0,.15,.07,.15,.15s-.07,.15-.15,.15Z"/></g><g><path d="M30.56,24.81h-2.45c-.08,0-.15-.07-.15-.15v-2.45c0-.08,.07-.15,.15-.15h2.45c.08,0,.15,.07,.15,.15v2.45c0,.08-.07,.15-.15,.15Zm-2.3-.3h2.15v-2.15h-2.15v2.15Z"/><path d="M38.84,23.58h-7.15c-.08,0-.15-.07-.15-.15s.07-.15,.15-.15h7.15c.08,0,.15,.07,.15,.15s-.07,.15-.15,.15Z"/></g><g><path d="M30.56,28.55h-2.45c-.08,0-.15-.07-.15-.15v-2.45c0-.08,.07-.15,.15-.15h2.45c.08,0,.15,.07,.15,.15v2.45c0,.08-.07,.15-.15,.15Zm-2.3-.3h2.15v-2.15h-2.15v2.15Z"/><path d="M38.84,27.33h-7.15c-.08,0-.15-.07-.15-.15s.07-.15,.15-.15h7.15c.08,0,.15,.07,.15,.15s-.07,.15-.15,.15Z"/></g><g><path d="M30.56,32.29h-2.45c-.08,0-.15-.07-.15-.15v-2.45c0-.08,.07-.15,.15-.15h2.45c.08,0,.15,.07,.15,.15v2.45c0,.08-.07,.15-.15,.15Zm-2.3-.3h2.15v-2.15h-2.15v2.15Z"/><path d="M38.84,31.07h-7.15c-.08,0-.15-.07-.15-.15s.07-.15,.15-.15h7.15c.08,0,.15,.07,.15,.15s-.07,.15-.15,.15Z"/></g><path d="M29.11,27.85s-.03,0-.05,0c-.04-.01-.08-.05-.1-.09l-.37-1c-.03-.08,.01-.17,.09-.19,.08-.03,.17,.01,.19,.09l.31,.82,2.46-1.64c.07-.05,.16-.03,.21,.04,.05,.07,.03,.16-.04,.21l-2.62,1.75s-.05,.03-.08,.03Z"/><path d="M29.11,20.23s-.03,0-.05,0c-.04-.01-.08-.05-.1-.09l-.37-1c-.03-.08,.01-.17,.09-.19,.08-.03,.17,.01,.19,.09l.31,.82,2.46-1.64c.07-.05,.16-.03,.21,.04s.03,.16-.04,.21l-2.62,1.75s-.05,.03-.08,.03Z"/></g><g class="cls-11"><g><path d="M42.02,38.47h-1.68c-.08,0-.15-.07-.15-.15v-1.68c0-.08,.07-.15,.15-.15h1.68c.08,0,.15,.07,.15,.15v1.68c0,.08-.07,.15-.15,.15Zm-1.53-.3h1.37v-1.37h-1.37v1.37Z"/><path d="M47.68,37.63h-4.89c-.08,0-.15-.07-.15-.15s.07-.15,.15-.15h4.89c.08,0,.15,.07,.15,.15s-.07,.15-.15,.15Z"/></g><g><path d="M42.02,41.03h-1.68c-.08,0-.15-.07-.15-.15v-1.68c0-.08,.07-.15,.15-.15h1.68c.08,0,.15,.07,.15,.15v1.68c0,.08-.07,.15-.15,.15Zm-1.53-.3h1.37v-1.37h-1.37v1.37Z"/><path d="M47.68,40.19h-4.89c-.08,0-.15-.07-.15-.15s.07-.15,.15-.15h4.89c.08,0,.15,.07,.15,.15s-.07,.15-.15,.15Z"/></g><g><path d="M42.02,43.59h-1.68c-.08,0-.15-.07-.15-.15v-1.68c0-.08,.07-.15,.15-.15h1.68c.08,0,.15,.07,.15,.15v1.68c0,.08-.07,.15-.15,.15Zm-1.53-.3h1.37v-1.37h-1.37v1.37Z"/><path d="M47.68,42.75h-4.89c-.08,0-.15-.07-.15-.15s.07-.15,.15-.15h4.89c.08,0,.15,.07,.15,.15s-.07,.15-.15,.15Z"/></g><g><path d="M42.02,46.14h-1.68c-.08,0-.15-.07-.15-.15v-1.68c0-.08,.07-.15,.15-.15h1.68c.08,0,.15,.07,.15,.15v1.68c0,.08-.07,.15-.15,.15Zm-1.53-.3h1.37v-1.37h-1.37v1.37Z"/><path d="M47.68,45.31h-4.89c-.08,0-.15-.07-.15-.15s.07-.15,.15-.15h4.89c.08,0,.15,.07,.15,.15s-.07,.15-.15,.15Z"/></g><path d="M41.02,43.1s-.03,0-.05,0c-.04-.01-.08-.05-.1-.09l-.26-.68c-.03-.08,.01-.17,.09-.19,.08-.03,.17,.01,.19,.09l.19,.5,1.63-1.09c.07-.05,.16-.03,.21,.04,.05,.07,.03,.16-.04,.21l-1.79,1.19s-.05,.03-.08,.03Z"/><path d="M41.02,37.9s-.03,0-.05,0c-.04-.01-.08-.05-.1-.09l-.26-.68c-.03-.08,.01-.17,.09-.19,.08-.03,.17,.01,.19,.09l.19,.5,1.63-1.09c.07-.05,.16-.03,.21,.04,.05,.07,.03,.16-.04,.21l-1.79,1.19s-.05,.03-.08,.03Z"/></g><g><g class="cls-11"><path d="M46.55,14.99h-.95c-.07,0-.14-.05-.15-.13l-.15-.96c-.13-.04-.26-.09-.38-.16l-.78,.57c-.06,.04-.14,.04-.2-.02l-.67-.67c-.05-.05-.06-.14-.02-.2l.57-.78c-.06-.12-.11-.25-.16-.38l-.96-.15c-.07-.01-.13-.07-.13-.15v-.95c0-.07,.05-.14,.13-.15l.96-.15c.04-.13,.09-.26,.16-.38l-.57-.78c-.04-.06-.04-.14,.02-.2l.67-.67c.05-.05,.14-.06,.2-.02l.78,.57c.12-.06,.25-.11,.38-.16l.15-.96c.01-.07,.07-.13,.15-.13h.95c.07,0,.14,.05,.15,.13l.15,.96c.13,.04,.26,.09,.38,.16l.78-.57c.06-.04,.14-.04,.2,.02l.67,.67c.05,.05,.06,.14,.02,.2l-.57,.78c.06,.12,.11,.25,.16,.38l.96,.15c.07,.01,.13,.07,.13,.15v.95c0,.07-.05,.14-.13,.15l-.96,.15c-.04,.13-.09,.26-.16,.38l.57,.78c.04,.06,.04,.14-.02,.2l-.67,.67c-.05,.05-.14,.06-.2,.02l-.78-.57c-.12,.06-.25,.11-.38,.16l-.15,.96c-.01,.07-.07,.13-.15,.13Zm-.82-.3h.69l.14-.92c0-.06,.05-.11,.11-.12,.17-.05,.34-.12,.49-.2,.05-.03,.12-.03,.16,0l.75,.55,.49-.49-.55-.75s-.04-.11,0-.16c.09-.15,.16-.32,.2-.49,.02-.06,.06-.1,.12-.11l.92-.14v-.69l-.92-.14c-.06,0-.11-.05-.12-.11-.05-.17-.12-.34-.2-.49-.03-.05-.03-.12,0-.16l.55-.75-.49-.49-.75,.55s-.11,.04-.16,0c-.15-.09-.32-.16-.49-.2-.06-.02-.1-.06-.11-.12l-.14-.92h-.69l-.14,.92c0,.06-.05,.11-.11,.12-.17,.05-.34,.12-.49,.2-.05,.03-.12,.03-.16,0l-.75-.55-.49,.49,.55,.75s.04,.11,0,.16c-.09,.15-.16,.32-.2,.49-.02,.06-.06,.1-.12,.11l-.92,.14v.69l.92,.14c.06,0,.11,.05,.12,.11,.05,.17,.12,.34,.2,.49,.03,.05,.03,.12,0,.16l-.55,.75,.49,.49,.75-.55s.11-.04,.16,0c.15,.09,.32,.16,.49,.2,.06,.02,.1,.06,.11,.12l.14,.92Zm3.68-2.71h0Zm-3.33,1.18c-.91,0-1.65-.74-1.65-1.65s.74-1.65,1.65-1.65,1.65,.74,1.65,1.65-.74,1.65-1.65,1.65Zm0-2.99c-.74,0-1.35,.6-1.35,1.35s.6,1.35,1.35,1.35,1.35-.6,1.35-1.35-.6-1.35-1.35-1.35Z"/></g><g class="cls-11"><path d="M41.3,16.94h-.63c-.07,0-.14-.05-.15-.13l-.09-.61c-.07-.02-.14-.05-.2-.08l-.5,.36c-.06,.04-.14,.04-.2-.02l-.45-.45c-.05-.05-.06-.14-.02-.2l.36-.5c-.03-.07-.06-.13-.08-.2l-.61-.09c-.07-.01-.13-.07-.13-.15v-.63c0-.07,.05-.14,.13-.15l.61-.09c.02-.07,.05-.14,.08-.2l-.36-.5c-.04-.06-.04-.14,.02-.2l.45-.45c.05-.05,.14-.06,.2-.02l.5,.36c.07-.03,.13-.06,.2-.08l.09-.61c.01-.07,.07-.13,.15-.13h.63c.07,0,.14,.05,.15,.13l.09,.61c.07,.02,.14,.05,.2,.08l.5-.36c.06-.04,.14-.04,.2,.02l.45,.45c.05,.05,.06,.14,.02,.2l-.36,.5c.03,.07,.06,.13,.08,.2l.61,.09c.07,.01,.13,.07,.13,.15v.63c0,.07-.05,.14-.13,.15l-.61,.09c-.02,.07-.05,.14-.08,.2l.36,.5c.04,.06,.04,.14-.02,.2l-.45,.45c-.05,.05-.14,.06-.2,.02l-.5-.36c-.07,.03-.13,.06-.2,.08l-.09,.61c-.01,.07-.07,.13-.15,.13Zm-.5-.3h.37l.09-.57c0-.06,.05-.11,.11-.12,.11-.03,.22-.08,.32-.13,.05-.03,.12-.03,.16,0l.47,.34,.26-.26-.34-.47s-.04-.11,0-.16c.06-.1,.1-.21,.13-.32,.02-.06,.06-.1,.12-.11l.57-.09v-.37l-.57-.09c-.06,0-.11-.05-.12-.11-.03-.11-.08-.22-.13-.32-.03-.05-.03-.12,0-.16l.34-.47-.26-.26-.47,.34s-.11,.04-.16,0c-.1-.06-.21-.1-.32-.13-.06-.02-.1-.06-.11-.12l-.09-.57h-.37l-.09,.57c0,.06-.05,.11-.11,.12-.11,.03-.22,.08-.32,.13-.05,.03-.12,.03-.16,0l-.47-.34-.26,.26,.34,.47s.04,.11,0,.16c-.06,.1-.1,.21-.13,.32-.02,.06-.06,.1-.12,.11l-.57,.09v.37l.57,.09c.06,0,.11,.05,.12,.11,.03,.11,.08,.22,.13,.32,.03,.05,.03,.12,0,.16l-.34,.47,.26,.26,.47-.34s.11-.04,.16,0c.1,.06,.21,.1,.32,.13,.06,.02,.1,.06,.11,.12l.09,.57Zm2.42-1.76h0Zm-2.23,.84c-.64,0-1.15-.52-1.15-1.15s.52-1.15,1.15-1.15,1.15,.52,1.15,1.15-.52,1.15-1.15,1.15Zm0-2c-.47,0-.85,.38-.85,.85s.38,.85,.85,.85,.85-.38,.85-.85-.38-.85-.85-.85Z"/></g></g><g><g class="cls-11"><path d="M79.44,60.11c-.06,0-.12-.04-.14-.1l-.36-.9c-.14-.01-.27-.03-.41-.07l-.63,.73c-.05,.06-.13,.07-.19,.03l-.8-.5c-.06-.04-.09-.12-.06-.19l.38-.89c-.09-.11-.17-.22-.24-.33l-.96,.07c-.07,0-.14-.04-.16-.12l-.21-.92c-.02-.07,.02-.15,.09-.17l.9-.36c.01-.14,.03-.27,.07-.4l-.73-.63c-.06-.05-.07-.13-.03-.19l.5-.8c.04-.06,.12-.09,.19-.06l.89,.38c.11-.09,.22-.17,.33-.24l-.07-.96c0-.07,.04-.14,.12-.16l.92-.21c.07-.02,.15,.02,.17,.09l.36,.9c.14,.01,.27,.03,.4,.07l.63-.73c.05-.06,.13-.07,.19-.03l.8,.5c.06,.04,.09,.12,.06,.19l-.38,.89c.09,.11,.17,.22,.24,.33l.96-.07c.08,0,.14,.04,.16,.12l.21,.92c.02,.07-.02,.15-.09,.17l-.9,.36c-.01,.14-.03,.27-.07,.4l.73,.63c.06,.05,.07,.13,.03,.19l-.5,.8c-.04,.06-.12,.09-.19,.06l-.89-.38c-.11,.09-.22,.17-.33,.24l.07,.96c0,.07-.04,.14-.12,.16l-.92,.21s-.02,0-.03,0Zm-.96-1.39s.03,0,.04,0c.17,.05,.35,.08,.53,.09,.06,0,.11,.04,.13,.1l.35,.87,.67-.15-.07-.93c0-.06,.03-.12,.08-.14,.15-.08,.3-.19,.43-.31,.04-.04,.11-.05,.16-.03l.86,.37,.37-.58-.7-.61s-.06-.1-.05-.16c.05-.17,.08-.35,.09-.53,0-.06,.04-.11,.09-.13l.87-.35-.15-.67-.93,.07c-.06,0-.12-.03-.14-.08-.08-.15-.19-.3-.31-.43-.04-.04-.05-.11-.03-.16l.37-.86-.58-.37-.61,.71s-.1,.06-.16,.05c-.17-.05-.35-.08-.53-.09-.06,0-.11-.04-.13-.1l-.35-.87-.67,.15,.07,.93c0,.06-.03,.12-.08,.14-.15,.08-.3,.19-.43,.31-.04,.04-.11,.05-.16,.03l-.86-.37-.37,.58,.7,.61s.06,.1,.05,.16c-.05,.17-.08,.35-.09,.53,0,.06-.04,.11-.09,.13l-.87,.35,.15,.67,.93-.07c.06,0,.12,.03,.14,.08,.08,.15,.19,.3,.31,.43,.04,.04,.05,.11,.03,.16l-.37,.86,.58,.37,.61-.71s.07-.05,.11-.05Zm.67-.47c-.3,0-.6-.08-.87-.25-.37-.23-.63-.6-.73-1.03s-.02-.87,.21-1.24c.23-.37,.6-.63,1.03-.73,.43-.1,.87-.02,1.24,.21h0c.77,.48,1,1.5,.52,2.27-.31,.5-.85,.77-1.4,.77Zm0-2.99c-.1,0-.2,.01-.3,.03-.35,.08-.65,.29-.84,.6s-.25,.67-.17,1.02c.08,.35,.29,.65,.6,.84,.63,.39,1.46,.2,1.86-.42,.39-.63,.2-1.46-.42-1.86-.22-.14-.46-.21-.71-.21Z"/></g><g class="cls-11"><path d="M85.28,59.13c-.06,0-.12-.04-.14-.1l-.23-.57c-.07,0-.15-.02-.22-.04l-.4,.47c-.05,.06-.13,.07-.19,.03l-.54-.34c-.06-.04-.09-.12-.06-.19l.24-.57c-.05-.06-.09-.12-.13-.18l-.61,.04c-.07,0-.14-.04-.16-.12l-.14-.62c-.02-.07,.02-.15,.09-.17l.57-.23c0-.07,.02-.15,.04-.22l-.47-.4c-.06-.05-.07-.13-.03-.19l.34-.54c.04-.06,.12-.09,.19-.06l.57,.24c.06-.05,.12-.09,.18-.13l-.04-.61c0-.07,.04-.14,.12-.16l.62-.14c.07-.02,.15,.02,.17,.09l.23,.57c.07,0,.15,.02,.22,.04l.4-.47c.05-.06,.13-.07,.19-.03l.54,.34c.06,.04,.09,.12,.06,.19l-.24,.57c.05,.06,.09,.12,.13,.18l.61-.04c.08,0,.14,.04,.16,.12l.14,.62c.02,.07-.02,.15-.09,.17l-.57,.23c0,.07-.02,.15-.04,.22l.47,.4c.06,.05,.07,.13,.03,.19l-.34,.54c-.04,.06-.12,.09-.19,.06l-.57-.24c-.06,.05-.12,.09-.18,.13l.04,.61c0,.07-.04,.14-.12,.16l-.62,.14s-.02,0-.03,0Zm-.64-1.03s.03,0,.04,0c.11,.03,.23,.05,.34,.06,.06,0,.11,.04,.13,.1l.22,.54,.36-.08-.04-.58c0-.06,.03-.12,.08-.14,.1-.05,.19-.12,.28-.2,.04-.04,.11-.05,.16-.03l.53,.23,.2-.32-.44-.38s-.06-.1-.05-.16c.03-.11,.05-.23,.06-.34,0-.06,.04-.11,.09-.13l.54-.22-.08-.36-.58,.04c-.06,0-.12-.03-.14-.08-.05-.1-.12-.19-.2-.28-.04-.04-.05-.11-.03-.16l.23-.53-.32-.2-.38,.44s-.1,.06-.16,.05c-.11-.03-.23-.05-.34-.06-.06,0-.11-.04-.13-.1l-.22-.54-.36,.08,.04,.58c0,.06-.03,.12-.08,.14-.1,.05-.19,.12-.28,.2-.04,.04-.11,.05-.16,.03l-.53-.23-.2,.32,.44,.38s.06,.1,.05,.16c-.03,.11-.05,.23-.06,.34,0,.06-.04,.11-.09,.13l-.54,.22,.08,.36,.58-.04c.06,0,.12,.03,.14,.08,.05,.1,.12,.19,.2,.28,.04,.04,.05,.11,.03,.16l-.23,.53,.32,.2,.38-.44s.07-.05,.11-.05Zm.45-.21c-.21,0-.42-.06-.61-.18-.26-.16-.44-.42-.51-.72-.07-.3-.02-.61,.15-.87,.16-.26,.42-.44,.72-.51,.3-.07,.61-.02,.87,.15h0c.54,.34,.7,1.05,.36,1.59-.16,.26-.42,.44-.72,.51-.09,.02-.17,.03-.26,.03Zm0-2c-.06,0-.13,0-.19,.02-.22,.05-.41,.18-.53,.38-.12,.19-.16,.42-.11,.64,.05,.22,.18,.41,.38,.53,.19,.12,.42,.16,.64,.11,.22-.05,.41-.18,.53-.38,.25-.4,.13-.92-.27-1.17h0c-.14-.09-.29-.13-.45-.13Z"/></g></g><g><g><g><rect class="cls-2" x="21.54" y="42.52" width="15.79" height="8.75" transform="translate(58.87 93.79) rotate(180)"/><path class="cls-9" d="M37.33,51.42h-15.79c-.08,0-.15-.07-.15-.15v-8.75c0-.08,.07-.15,.15-.15h15.79c.08,0,.15,.07,.15,.15v8.75c0,.08-.07,.15-.15,.15Zm-15.64-.3h15.49v-8.45h-15.49v8.45Z"/></g><g><rect class="cls-2" x="22.02" y="42.52" width="15.79" height="8.75" transform="translate(59.83 93.79) rotate(180)"/><path class="cls-9" d="M37.81,51.42h-15.79c-.08,0-.15-.07-.15-.15v-8.75c0-.08,.07-.15,.15-.15h15.79c.08,0,.15,.07,.15,.15v8.75c0,.08-.07,.15-.15,.15Zm-15.64-.3h15.49v-8.45h-15.49v8.45Z"/></g></g><g><polygon class="cls-4" points="29.98 43.87 27.36 48.41 32.6 48.41 29.98 43.87"/><path class="cls-9" d="M32.6,48.56h-5.24c-.05,0-.1-.03-.13-.08s-.03-.1,0-.15l2.62-4.54c.05-.09,.21-.09,.26,0l2.62,4.54s.03,.1,0,.15-.08,.08-.13,.08Zm-4.98-.3h4.72l-2.36-4.09-2.36,4.09Z"/></g></g><g><g><g><rect class="cls-2" x="91.26" y="58.24" width="15.79" height="8.75"/><path class="cls-9" d="M107.05,67.14h-15.79c-.08,0-.15-.07-.15-.15v-8.75c0-.08,.07-.15,.15-.15h15.79c.08,0,.15,.07,.15,.15v8.75c0,.08-.07,.15-.15,.15Zm-15.64-.3h15.49v-8.45h-15.49v8.45Z"/></g><g><rect class="cls-2" x="90.78" y="58.24" width="15.79" height="8.75"/><path class="cls-9" d="M106.57,67.14h-15.79c-.08,0-.15-.07-.15-.15v-8.75c0-.08,.07-.15,.15-.15h15.79c.08,0,.15,.07,.15,.15v8.75c0,.08-.07,.15-.15,.15Zm-15.64-.3h15.49v-8.45h-15.49v8.45Z"/></g></g><g><polygon class="cls-6" points="98.39 59.9 99.23 61.6 101.1 61.87 99.75 63.19 100.07 65.06 98.39 64.18 96.72 65.06 97.04 63.19 95.68 61.87 97.56 61.6 98.39 59.9"/><path class="cls-9" d="M100.07,65.21s-.05,0-.07-.02l-1.6-.84-1.6,.84c-.05,.03-.11,.02-.16-.01-.05-.03-.07-.09-.06-.15l.31-1.79-1.3-1.27s-.06-.1-.04-.16c.02-.05,.07-.09,.12-.1l1.79-.26,.8-1.63c.03-.05,.08-.08,.14-.08h0c.06,0,.11,.03,.14,.08l.8,1.63,1.79,.26c.06,0,.1,.05,.12,.1,.02,.05,0,.11-.04,.16l-1.3,1.27,.31,1.79c0,.06-.01,.11-.06,.15-.03,.02-.06,.03-.09,.03Zm-4.06-3.23l1.14,1.11s.05,.08,.04,.13l-.27,1.56,1.4-.74s.1-.02,.14,0l1.4,.74-.27-1.56s0-.1,.04-.13l1.14-1.11-1.57-.23s-.09-.04-.11-.08l-.7-1.42-.7,1.42s-.06,.08-.11,.08l-1.57,.23Z"/></g></g><g><g><g><g><path class="cls-8" d="M61.11,42.69s-6.11,1.7-6.37,2.28-3.72,6.85-3.72,6.85l3.08,4.46,2.65-3.45,.96,8.18s-1.17,1.91-.74,2.76c.42,.85,1.17,1.17,1.17,1.17h13.91s.85-1.01,.64-2.34c-.21-1.33-.58-2.97-.58-2.97l-.05-4.67,1.59-4.88,7.8-.05-1.33-5.47s-5.42-1.17-5.79-1.38c-.37-.21-2.23-.58-3.13-.58h-2.55l-7.06-.05-.48,.16Z"/><path class="cls-8" d="M72.05,65.08h-13.91s-.04,0-.06-.01c-.03-.01-.8-.35-1.24-1.24-.42-.85,.54-2.55,.72-2.86l-.91-7.76-2.43,3.16s-.07,.06-.12,.06c-.05,0-.09-.03-.12-.07l-3.08-4.46s-.04-.11,0-.16c.03-.06,3.45-6.27,3.71-6.84,.27-.6,5.01-1.96,6.46-2.37l.47-.16s.03-.01,.05,0l7.06,.05h2.55c.93,0,2.82,.38,3.21,.6,.26,.15,3.66,.91,5.74,1.36,.06,.01,.1,.06,.12,.11l1.33,5.47s0,.09-.03,.13c-.03,.04-.07,.06-.12,.06l-7.7,.05-1.55,4.76,.05,4.63c.04,.17,.38,1.72,.58,2.97,.22,1.38-.63,2.41-.67,2.46-.03,.03-.07,.05-.12,.05Zm-13.88-.3h13.8c.16-.22,.73-1.09,.56-2.16-.21-1.31-.58-2.95-.58-2.96,0-.01,0-.02,0-.03l-.05-4.67s0-.03,0-.05l1.59-4.88c.02-.06,.08-.1,.14-.1l7.61-.05-1.26-5.19c-.87-.19-5.37-1.17-5.74-1.38-.33-.19-2.13-.56-3.06-.56h-2.55l-7.04-.05-.45,.15s0,0,0,0c-2.94,.82-6.09,1.87-6.27,2.2-.25,.55-3.25,6.01-3.68,6.78l2.91,4.21,2.53-3.29s.1-.07,.16-.05c.06,.02,.1,.07,.11,.13l.96,8.18s0,.07-.02,.1c-.31,.51-1.05,1.98-.74,2.61,.35,.7,.94,1.02,1.07,1.08Zm2.94-22.1h0Z"/></g><g><path class="cls-8" d="M56.76,52.98c-.05,0-.1-.03-.13-.08l-2.12-3.82c-.04-.07-.01-.17,.06-.21,.07-.04,.17-.01,.21,.06l1.55,2.79-.84-3.23c-.02-.08,.03-.16,.11-.18,.08-.02,.16,.03,.18,.11l1.13,4.38c.02,.07-.02,.15-.09,.18-.02,0-.04,.01-.06,.01Z"/><path class="cls-8" d="M55.4,47.75c-.07,0-.13-.05-.15-.11l-.19-.72c-.02-.08,.03-.16,.11-.18,.08-.02,.16,.03,.18,.11l.19,.72c.02,.08-.03,.16-.11,.18-.01,0-.03,0-.04,0Z"/><path class="cls-8" d="M53.56,51.2s-.05,0-.07-.02l-.9-.5c-.07-.04-.1-.13-.06-.21,.04-.07,.13-.1,.21-.06l.9,.5c.07,.04,.1,.13,.06,.21-.03,.05-.08,.08-.13,.08Z"/><path class="cls-8" d="M56.75,52.98s-.05,0-.07-.02l-2.71-1.51c-.07-.04-.1-.13-.06-.21,.04-.07,.13-.1,.21-.06l2.71,1.51c.07,.04,.1,.13,.06,.21-.03,.05-.08,.08-.13,.08Z"/><path class="cls-8" d="M73.64,50.22s-.04,0-.06-.01c-.07-.03-.11-.11-.09-.18l1.17-4.35c.02-.08,.1-.13,.19-.11,.08,.02,.13,.1,.11,.19l-.83,3.09,1.72-3.2c.04-.07,.13-.1,.2-.06,.07,.04,.1,.13,.06,.2l-2.34,4.35c-.03,.05-.08,.08-.13,.08Z"/><path class="cls-8" d="M77.97,47.58c-.05,0-.1-.03-.13-.07-.04-.07-.02-.16,.05-.21l.72-.44c.07-.04,.16-.02,.21,.05,.04,.07,.02,.16-.05,.21l-.72,.44s-.05,.02-.08,.02Z"/><path class="cls-8" d="M73.64,50.22c-.05,0-.1-.03-.13-.07-.04-.07-.02-.16,.05-.21l3.55-2.17c.07-.04,.16-.02,.21,.05,.04,.07,.02,.16-.05,.21l-3.55,2.17s-.05,.02-.08,.02Z"/><path class="cls-8" d="M67.83,57.05s-.09-.02-.12-.06c-.05-.07-.04-.16,.03-.21l.65-.51c.07-.05,.16-.04,.21,.03,.05,.07,.04,.16-.03,.21l-.65,.51s-.06,.03-.09,.03Z"/><path class="cls-8" d="M60.52,62.75s-.09-.02-.12-.06c-.05-.07-.04-.16,.03-.21l6.8-5.31c.07-.05,.16-.04,.21,.03,.05,.07,.04,.16-.03,.21l-6.8,5.31s-.06,.03-.09,.03Z"/><path class="cls-8" d="M60.52,61.79s-.09-.02-.12-.06c-.05-.07-.03-.16,.04-.21l3.82-2.71c.07-.05,.16-.03,.21,.04,.05,.07,.03,.16-.04,.21l-3.82,2.71s-.06,.03-.09,.03Z"/></g></g><g><g><g><polygon class="cls-5" points="62.38 38.86 62.06 43.06 65.2 46.56 67.9 43.22 67.06 39.08 62.38 38.86"/><path class="cls-9" d="M65.2,46.71s-.08-.02-.11-.05l-3.13-3.5s-.04-.07-.04-.11l.32-4.19c0-.08,.06-.14,.16-.14l4.67,.21c.07,0,.13,.05,.14,.12l.85,4.14s0,.09-.03,.13l-2.71,3.34s-.07,.05-.11,.06h0Zm-2.98-3.71l2.97,3.32,2.55-3.15-.81-3.96-4.41-.2-.3,3.98Z"/></g><g><path class="cls-9" d="M67.06,39.08l-4.67-.21-.08,1.06c.7,.81,2.1,2.58,2.66,2.72,.47,.12,1.69-1.24,2.37-2.22l-.28-1.35Z"/><path class="cls-9" d="M65.02,42.8s-.06,0-.09-.01c-.48-.12-1.34-1.11-2.33-2.29-.15-.18-.29-.35-.41-.48-.03-.03-.04-.07-.04-.11l.08-1.06c0-.08,.06-.14,.16-.14l4.67,.21c.07,0,.13,.05,.14,.12l.28,1.35s0,.08-.02,.12c-.42,.62-1.74,2.29-2.44,2.29Zm-2.56-2.93c.11,.13,.23,.28,.37,.44,.65,.78,1.75,2.09,2.17,2.19,.3,.07,1.37-.96,2.17-2.11l-.24-1.17-4.41-.2-.06,.85Z"/></g><g><polygon class="cls-2" points="61.53 40.51 64.45 44.23 62.44 48.1 60.58 42.74 61.53 40.51"/><path class="cls-9" d="M62.44,48.25s0,0-.01,0c-.06,0-.11-.04-.13-.1l-1.86-5.36s-.01-.07,0-.11l.96-2.23s.07-.08,.12-.09c.05,0,.11,.01,.14,.06l2.92,3.72s.04,.11,.02,.16l-2.02,3.88c-.03,.05-.08,.08-.13,.08Zm-1.7-5.51l1.72,4.98,1.81-3.48-2.7-3.44-.83,1.94Z"/></g><g><polygon class="cls-2" points="68.38 40.51 65.46 44.23 67.48 48.1 69.34 42.74 68.38 40.51"/><path class="cls-9" d="M67.48,48.25c-.06,0-.11-.03-.13-.08l-2.02-3.88c-.03-.05-.02-.12,.02-.16l2.92-3.72s.08-.06,.14-.06c.05,0,.1,.04,.12,.09l.96,2.23s.02,.07,0,.11l-1.86,5.36c-.02,.06-.07,.1-.13,.1,0,0,0,0-.01,0Zm-1.84-4.01l1.81,3.48,1.72-4.98-.83-1.94-2.7,3.44Z"/></g></g><g><g><path class="cls-5" d="M60.53,33.39s-.58-1.22-1.11-.27,1.17,2.87,1.38,2.87-.27-2.6-.27-2.6Z"/><path class="cls-9" d="M60.79,36.15c-.26,0-.9-.8-1.21-1.32-.3-.51-.6-1.24-.31-1.77,.17-.3,.37-.45,.59-.44,.44,.01,.76,.64,.79,.72,0,.01,0,.02,.01,.04,.3,1.64,.39,2.56,.25,2.71-.03,.03-.09,.07-.14,.07Zm-.93-3.23c-.13,0-.24,.16-.31,.29-.12,.21-.11,.5,.01,.86,.24,.71,.85,1.43,1.14,1.69,0-.4-.15-1.4-.32-2.31-.09-.18-.32-.52-.52-.53,0,0,0,0,0,0Z"/></g><g><path class="cls-5" d="M68.97,33.39s.58-1.22,1.11-.27-1.17,2.87-1.38,2.87,.27-2.6,.27-2.6Z"/><path class="cls-9" d="M68.7,36.15s-.11-.03-.14-.07c-.13-.16-.05-1.07,.25-2.71,0-.01,0-.03,.01-.04,.03-.07,.35-.7,.79-.72,.22,0,.43,.14,.59,.44,.29,.53,0,1.25-.31,1.77-.31,.53-.95,1.32-1.21,1.32Zm.11-.24h0Zm.3-2.47c-.17,.91-.31,1.92-.32,2.31,.29-.26,.9-.99,1.14-1.69,.13-.36,.13-.65,.01-.86-.07-.13-.19-.29-.31-.29,0,0,0,0,0,0-.2,0-.43,.35-.52,.53Z"/></g><g><g><path class="cls-5" d="M60.16,29.36c.04,.87,.35,7,.84,8.28,.53,1.38,2.97,3.61,4.14,3.5,1.17-.11,3.24-2.71,3.5-3.66,.24-.86,.43-6.91,.47-8.12h-8.96Z"/><path class="cls-9" d="M65.07,41.3c-1.27,0-3.65-2.18-4.2-3.6-.49-1.29-.8-7.16-.85-8.33,0-.04,.01-.08,.04-.11,.03-.03,.07-.05,.11-.05h8.96s.08,.02,.11,.05c.03,.03,.04,.07,.04,.11-.04,1.21-.23,7.28-.48,8.16-.28,1.02-2.4,3.66-3.64,3.77-.03,0-.06,0-.09,0Zm-4.75-11.79c.06,1.2,.36,6.87,.83,8.08,.51,1.32,2.88,3.51,3.99,3.41,1.09-.1,3.12-2.64,3.37-3.55,.18-.64,.36-4.64,.46-7.93h-8.65Z"/></g><path class="cls-9" d="M62.45,34.74c-.65,0-1-.37-1.03-.39-.06-.06-.05-.16,0-.21,.06-.06,.16-.05,.21,0,.03,.03,.68,.69,1.93-.08,.07-.04,.16-.02,.21,.05,.04,.07,.02,.16-.05,.21-.51,.31-.94,.42-1.29,.42Z"/><path class="cls-9" d="M67.2,34.74c-.35,0-.78-.1-1.29-.42-.07-.04-.09-.14-.05-.21,.04-.07,.14-.09,.21-.05,1.25,.77,1.91,.11,1.93,.08,.06-.06,.15-.06,.21,0,.06,.06,.06,.15,0,.21-.02,.02-.38,.39-1.03,.39Z"/><path class="cls-9" d="M64.93,36.91c-.06,0-.12,0-.18-.02-.47-.09-.69-.5-.69-.51-.04-.07-.01-.17,.06-.2,.07-.04,.16-.01,.2,.06,0,0,.17,.3,.49,.36,.28,.05,.61-.08,.98-.4,.06-.05,.16-.05,.21,.02,.05,.06,.05,.16-.02,.21-.37,.32-.73,.49-1.06,.49Z"/><path class="cls-9" d="M65.47,38.27h-.96c-.08,0-.15-.07-.15-.15s.07-.15,.15-.15h.96c.08,0,.15,.07,.15,.15s-.07,.15-.15,.15Z"/><path class="cls-9" d="M61.22,33.11c-.08,0-.15-.03-.21-.09-.12-.12-.12-.31,0-.43s.63-.46,2.55-.14c.16,.03,.28,.18,.25,.35-.03,.16-.18,.28-.35,.25-1.56-.26-2-.04-2.04-.01-.06,.05-.12,.07-.19,.07Z"/><path class="cls-9" d="M68.17,33.11c-.07,0-.14-.02-.19-.07-.04-.02-.48-.25-2.04,.01-.16,.03-.32-.08-.35-.25-.03-.16,.08-.32,.25-.35,1.92-.32,2.43,.02,2.55,.14s.12,.31,0,.43c-.06,.06-.14,.09-.21,.09Z"/></g></g></g></g><g><path class="cls-5" d="M81.39,44.39s5.73-12.05,6.32-12.11c.58-.05,1.27,.74,1.06,1.81s-3.13,11.26-3.77,13.38-1.49,2.97-2.18,2.71c-.69-.27-1.43-5.79-1.43-5.79Z"/><path class="cls-9" d="M83.07,50.37c-.1,0-.21-.02-.3-.06-.72-.28-1.35-4.59-1.53-5.91,0-.03,0-.06,.01-.09,2.16-4.53,5.86-12.14,6.44-12.19,.29-.03,.6,.11,.84,.38,.36,.4,.51,1,.38,1.6-.21,1.05-3.09,11.12-3.77,13.39-.44,1.47-1.03,2.45-1.65,2.76-.14,.07-.28,.1-.42,.1Zm-1.53-5.96c.35,2.6,.96,5.48,1.33,5.62,.15,.06,.32,.05,.48-.04,.54-.26,1.08-1.2,1.49-2.57,.68-2.27,3.56-12.32,3.77-13.37,.1-.51-.02-1.01-.31-1.34-.17-.19-.39-.3-.57-.29-.54,.38-4.07,7.51-6.2,11.98Z"/></g><g><path class="cls-2" d="M48.86,51.81s2.93,6.66,3.61,6.54c.68-.12,2.7-2.14,2.79-2.53,.09-.39-1.26-2.58-2.62-3.59-1.36-1-1.8-1.36-2.01-1.32-.21,.04-1.44,.68-1.78,.9Z"/><path class="cls-9" d="M52.44,58.5c-.21,0-.65-.27-2.16-3.32-.81-1.63-1.55-3.3-1.55-3.32-.03-.07,0-.15,.06-.19,.3-.2,1.58-.88,1.84-.92,.24-.04,.54,.17,1.62,.98l.5,.37c1.36,1.01,2.79,3.25,2.67,3.75-.11,.47-2.18,2.52-2.92,2.65-.02,0-.04,0-.07,0Zm-3.38-6.64c1.36,3.07,2.99,6.26,3.41,6.33,.59-.1,2.58-2.08,2.66-2.42,.05-.29-1.17-2.41-2.56-3.43l-.5-.37c-.8-.59-1.28-.94-1.39-.93-.14,.03-1.16,.54-1.62,.81Z"/></g><g><path class="cls-2" d="M79.64,44.01s-.53,3.56-.05,4.99c.48,1.43,.96,1.65,1.75,1.7,.8,.05,1.96-.16,2.18-.69,.21-.53-1.7-5.73-1.91-6.11-.21-.37-1.27-.32-1.96,.11Z"/><path class="cls-9" d="M81.59,50.86c-.09,0-.18,0-.26,0-.89-.06-1.4-.34-1.89-1.8-.48-1.45,.03-4.91,.05-5.06,0-.04,.03-.08,.07-.11,.51-.31,1.26-.46,1.75-.33,.2,.05,.35,.15,.42,.28,.16,.27,2.18,5.6,1.92,6.24-.23,.57-1.27,.79-2.07,.79Zm-1.81-6.76c-.07,.51-.47,3.58-.05,4.85,.47,1.42,.93,1.55,1.62,1.6,.82,.06,1.86-.18,2.03-.6,.16-.47-1.63-5.5-1.9-5.97-.03-.06-.12-.11-.24-.14-.35-.09-.97-.01-1.46,.26Z"/></g><g><path class="cls-5" d="M38.83,50.2c-.61-.43-1.32-.79-1.32-.79,0,0-.85-.23-1.04-1.01-.19-.78,.9-1.02,.9-1.02,.7-.01,12.58,5.1,12.58,5.1,2.01,2.29,2.37,4.98,2.43,5.34,.06,.37-.23,.53-.44,.56-.21,.04-3.78-1.55-4.84-2.12-2.26-1.22-7.6-5.63-7.6-5.63l-.67-.42Z"/><path class="cls-9" d="M51.95,58.54c-.4,0-4.1-1.7-4.92-2.14-2.25-1.22-7.41-5.47-7.63-5.65l-.65-.41s0,0,0,0c-.55-.39-1.2-.73-1.29-.78-.13-.04-.93-.31-1.13-1.11-.05-.23-.02-.44,.09-.62,.27-.43,.9-.57,.92-.58,.01,0,.02,0,.03,0,.74,0,11.42,4.58,12.64,5.11,.02,0,.04,.02,.05,.04,1.26,1.43,2.13,3.33,2.46,5.35v.06c.06,.27-.05,.44-.15,.54-.1,.1-.25,.17-.4,.2,0,0,0,0-.02,0Zm-13.04-8.46l.66,.42c.07,.05,5.37,4.42,7.6,5.63,1.07,.58,4.46,2.08,4.76,2.11,.07-.01,.16-.06,.22-.11,.07-.07,.09-.16,.08-.27v-.07c-.33-1.95-1.17-3.79-2.38-5.18-4.72-2.03-11.86-5.02-12.47-5.07-.09,.02-.54,.15-.72,.44-.07,.12-.09,.24-.05,.39,.16,.68,.92,.89,.93,.9,0,0,.02,0,.03,.01,.03,.01,.72,.37,1.34,.8Z"/></g><g><g><path class="cls-5" d="M33.45,51.92s-.51,.78-1.04,1.12c-.53,.34-1.24,.56-1.01,.72,.23,.16,.49,.26,1.04,.02,.55-.24,1.2-.5,1.2-.5,0,0,.57-1.53-.18-1.35Z"/><path class="cls-9" d="M31.86,54.08c-.24,0-.41-.09-.56-.19-.1-.07-.11-.16-.11-.2,.01-.18,.23-.29,.59-.47,.17-.09,.37-.19,.54-.3,.5-.32,.99-1.07,1-1.07,.02-.03,.05-.06,.09-.06,.24-.06,.38,.03,.45,.11,.3,.34-.02,1.26-.09,1.44-.01,.04-.05,.07-.09,.09,0,0-.65,.26-1.19,.5-.26,.11-.46,.16-.63,.16Zm-.31-.39c.17,.1,.38,.15,.82-.04,.45-.2,.96-.41,1.14-.48,.15-.43,.24-.94,.12-1.07-.02-.02-.05-.03-.1-.03-.13,.19-.57,.81-1.05,1.11-.18,.12-.39,.22-.56,.31-.13,.06-.29,.15-.37,.2Z"/></g><g><path class="cls-5" d="M33.35,52.19s-.48,1.52-1.08,2.02c-.61,.5-1.48,.9-.91,1,.56,.1,.91-.16,1.67-.64s.99-.86,.88-1.78c-.11-.92-.23-1.05-.55-.6Z"/><path class="cls-9" d="M31.58,55.38c-.08,0-.17,0-.26-.02-.07-.01-.26-.05-.3-.21-.04-.21,.2-.37,.6-.65,.18-.12,.37-.26,.55-.4,.56-.47,1.03-1.93,1.04-1.95,0-.01,.01-.03,.02-.04,.13-.19,.28-.35,.46-.31,.19,.05,.28,.28,.36,.98,.11,.95-.11,1.4-.95,1.93l-.16,.1c-.56,.36-.91,.58-1.36,.58Zm-.22-.32s0,0,0,0c.46,.08,.76-.1,1.4-.51l.16-.1c.74-.47,.91-.8,.81-1.64-.05-.46-.11-.63-.14-.7-.02,.02-.06,.07-.12,.15-.07,.2-.53,1.57-1.12,2.07-.18,.15-.39,.29-.57,.42-.15,.1-.33,.23-.43,.32Z"/></g><g><path class="cls-5" d="M33.4,51.64s-.04,1.74-.16,2.5-1.55,2.2-.95,2.24c.6,.04,1.66-1.52,1.91-2.11,.24-.59,.42-.72,.23-1.23-.19-.51-.89-1.97-1.03-1.4Z"/><path class="cls-9" d="M32.32,56.53s-.02,0-.04,0c-.16-.01-.23-.09-.26-.15-.11-.22,.08-.53,.46-1.1,.26-.4,.56-.85,.61-1.16,.11-.74,.16-2.46,.16-2.48,0-.01,0-.02,0-.03,.05-.2,.18-.24,.24-.24,0,0,0,0,0,0,.45,0,1.06,1.62,1.07,1.63,.17,.46,.07,.67-.09,1.02-.04,.09-.09,.19-.14,.31-.19,.46-1.26,2.2-2.02,2.2Zm-.02-.28h0Zm0-.02h0c.49,0,1.5-1.37,1.76-2.01,.05-.13,.1-.23,.15-.32,.15-.33,.21-.45,.08-.79-.18-.49-.55-1.21-.74-1.39,0,.31-.06,1.77-.16,2.46-.06,.37-.36,.83-.65,1.28-.17,.26-.43,.65-.44,.79Z"/></g><g><circle class="cls-9" cx="36.5" cy="56.21" r="2.56"/><path class="cls-9" d="M36.5,58.92c-1.5,0-2.71-1.22-2.71-2.71s1.22-2.71,2.71-2.71,2.71,1.22,2.71,2.71-1.22,2.71-2.71,2.71Zm0-5.13c-1.33,0-2.41,1.08-2.41,2.41s1.08,2.41,2.41,2.41,2.41-1.08,2.41-2.41-1.08-2.41-2.41-2.41Z"/></g><g><path class="cls-5" d="M38.48,47.84s-1.58-.86-2.32-.29c-.74,.57-2.41,3.24-2.95,3.78-.55,.54,.48,1.9,.83,3.07s.07,2.11,.68,1.91c.61-.2,.36-.8,.4-2,.04-1.19-.44-2.25-.42-2.4,.02-.15,1.22-.95,2-.74s1.17,.74,1.12,1.34c-.04,.6-.49,2.31-.26,2.76,.23,.46,.64,.58,.9-.25,.25-.83,.92-2.38,1.06-3,.14-.62-1.23-3.4-1.23-3.4"/><path class="cls-9" d="M34.56,56.48c-.07,0-.14-.02-.2-.06-.2-.13-.23-.43-.27-.84-.03-.32-.08-.72-.2-1.15-.11-.38-.3-.78-.48-1.17-.39-.83-.75-1.62-.31-2.05,.22-.21,.64-.81,1.09-1.44,.67-.94,1.43-2,1.88-2.35,.81-.63,2.42,.24,2.49,.28,.07,.04,.1,.13,.06,.21-.04,.07-.13,.1-.21,.06-.42-.23-1.62-.72-2.16-.3-.42,.32-1.16,1.37-1.82,2.29-.48,.67-.89,1.24-1.12,1.48-.29,.29,.03,.98,.37,1.71,.19,.4,.38,.81,.5,1.21,.14,.46,.18,.87,.21,1.21,.03,.28,.06,.57,.13,.62,.02,.01,.07,0,.13-.01,.32-.11,.33-.33,.3-1,0-.25-.02-.53,0-.86,.03-.82-.19-1.56-.33-2-.07-.25-.1-.34-.09-.41,0-.04,.02-.15,.39-.39,.17-.11,1.08-.67,1.79-.47,.81,.22,1.28,.79,1.23,1.5-.01,.2-.07,.49-.13,.83-.11,.63-.28,1.59-.15,1.86,.09,.17,.2,.28,.29,.27,.09,0,.22-.14,.33-.5,.12-.39,.32-.92,.52-1.44,.23-.6,.47-1.22,.54-1.55,.09-.41-.7-2.24-1.22-3.3-.04-.07,0-.17,.07-.2,.07-.04,.17,0,.2,.07,.14,.29,1.39,2.85,1.24,3.5-.08,.35-.31,.95-.55,1.59-.2,.52-.4,1.05-.51,1.42-.17,.57-.42,.7-.59,.72-.22,.02-.44-.14-.58-.44-.17-.33-.05-1.09,.12-2.05,.06-.32,.11-.62,.12-.8,.04-.56-.34-1-1.01-1.18-.65-.18-1.65,.45-1.81,.63,.01,.04,.05,.16,.08,.27,.13,.43,.37,1.23,.34,2.1-.01,.32,0,.59,0,.83,.02,.65,.04,1.12-.51,1.3-.07,.02-.14,.04-.2,.04Z"/></g><g><path class="cls-9" d="M35.16,58.4c-.73-.45-1.22-1.26-1.22-2.19,0-1.39,1.1-2.51,2.47-2.56"/><path class="cls-9" d="M35.16,58.55s-.05,0-.08-.02c-.81-.5-1.3-1.36-1.3-2.32,0-1.47,1.15-2.66,2.62-2.71,.08,0,.15,.06,.16,.15,0,.08-.06,.15-.15,.16-1.3,.05-2.33,1.1-2.33,2.41,0,.85,.43,1.61,1.15,2.06,.07,.04,.09,.14,.05,.21-.03,.05-.08,.07-.13,.07Z"/></g></g><g><g><path class="cls-5" d="M93.48,34.19s.82,.45,1.45,.5,1.36-.09,1.23,.16c-.12,.25-.31,.46-.91,.51-.6,.05-1.29,.12-1.29,.12,0,0-1.23-1.08-.48-1.28Z"/><path class="cls-9" d="M93.95,35.62s-.07-.01-.1-.04c-.15-.13-.87-.79-.76-1.23,.03-.11,.11-.25,.35-.31,.04-.01,.08,0,.11,.01,0,0,.79,.43,1.39,.48,.2,.02,.42,.01,.61,0,.4,0,.64-.01,.74,.14,.02,.04,.06,.12,0,.23-.14,.28-.36,.54-1.03,.59-.59,.04-1.28,.12-1.29,.12,0,0-.01,0-.02,0Zm-.49-1.27s-.07,.04-.08,.07c-.04,.17,.28,.58,.62,.89,.19-.02,.74-.08,1.23-.11,.48-.04,.65-.18,.75-.35-.1-.01-.28,0-.43,0-.2,0-.42,0-.64,0-.56-.04-1.25-.38-1.45-.48Z"/></g><g><path class="cls-5" d="M93.69,34.38s1.14,1.11,1.91,1.27,1.73,.1,1.28,.45c-.45,.35-.88,.29-1.77,.23-.89-.06-1.28-.3-1.62-1.16-.34-.86-.29-1.03,.2-.79Z"/><path class="cls-9" d="M95.97,36.52c-.2,0-.42-.02-.68-.04h-.19c-.99-.08-1.4-.38-1.75-1.27-.26-.66-.29-.9-.14-1.03,.14-.13,.35-.05,.55,.06,.01,0,.03,.02,.04,.03,.01,.01,1.11,1.08,1.83,1.23,.22,.04,.46,.07,.67,.09,.48,.05,.78,.09,.83,.29,.05,.16-.11,.29-.16,.33-.31,.24-.6,.31-1,.31Zm-2.55-2.09c0,.07,.04,.25,.21,.68,.31,.78,.61,1,1.49,1.06h.19c.76,.07,1.11,.1,1.48-.2,0,0,0,0,0,0-.12-.03-.35-.06-.52-.08-.22-.02-.47-.05-.7-.1-.76-.15-1.81-1.14-1.97-1.29-.09-.05-.15-.06-.18-.07Z"/></g><g><path class="cls-5" d="M93.39,33.91s.86,1.51,1.32,2.13c.46,.62,2.4,1.21,1.89,1.53-.51,.32-2.19-.56-2.68-.96-.49-.4-.71-.43-.78-.97-.08-.54-.15-2.16,.25-1.72Z"/><path class="cls-9" d="M96.3,37.79c-.8,0-2.14-.79-2.47-1.06-.1-.08-.19-.15-.27-.21-.31-.23-.5-.37-.57-.86,0-.02-.23-1.75,.18-1.95,.06-.03,.19-.06,.33,.1,0,0,.01,.02,.02,.03,0,.01,.86,1.51,1.31,2.11,.18,.24,.66,.5,1.08,.73,.6,.33,.92,.51,.93,.76,0,.07-.02,.17-.15,.26-.1,.06-.23,.09-.38,.09Zm-3.01-3.75c-.08,.25-.07,1.06,0,1.58,.05,.36,.16,.44,.45,.66,.08,.06,.18,.13,.28,.22,.55,.45,2.11,1.2,2.5,.95,0,0,0,0,0,0-.07-.11-.48-.34-.76-.49-.47-.26-.95-.52-1.18-.82-.42-.56-1.15-1.82-1.3-2.09Z"/></g><g><rect class="cls-1" x="90.36" y="37.66" width="3.95" height="3.95"/><path class="cls-9" d="M94.31,41.76h-3.95c-.08,0-.15-.07-.15-.15v-3.95c0-.08,.07-.15,.15-.15h3.95c.08,0,.15,.07,.15,.15v3.95c0,.08-.07,.15-.15,.15Zm-3.8-.3h3.65v-3.65h-3.65v3.65Z"/></g><g><path class="cls-5" d="M87.12,32.96s.99-1.51,1.91-1.35,3.65,1.72,4.39,1.93c.74,.22,.47,1.9,.72,3.1,.24,1.2,.94,1.9,.3,2s-.69-.54-1.29-1.57c-.6-1.03-.67-2.19-.77-2.31-.09-.12-1.52-.26-2.11,.29-.59,.55-.68,1.2-.36,1.71s1.52,1.81,1.54,2.31c.01,.51-.29,.82-.91,.2-.62-.62-1.94-1.67-2.35-2.15s-.52-3.58-.52-3.58"/><path class="cls-9" d="M91.13,39.77c-.17,0-.39-.09-.69-.39-.28-.28-.71-.65-1.12-1.01-.52-.45-1.01-.87-1.24-1.14-.44-.5-.54-3.35-.55-3.67,0-.08,.06-.15,.15-.16,.1,0,.15,.06,.16,.15,.04,1.18,.2,3.16,.48,3.48,.22,.25,.72,.69,1.21,1.11,.42,.36,.85,.74,1.14,1.03,.26,.27,.45,.32,.53,.29,.08-.03,.13-.18,.12-.38,0-.3-.61-1.06-1.01-1.57-.21-.27-.4-.51-.5-.67-.38-.59-.23-1.32,.38-1.9,.54-.51,1.6-.45,1.81-.43,.44,.04,.51,.13,.53,.16,.04,.06,.07,.15,.12,.41,.09,.45,.25,1.21,.66,1.92,.17,.29,.29,.54,.4,.76,.3,.61,.41,.8,.74,.74,.07-.01,.11-.03,.12-.05,.04-.08-.07-.35-.17-.61-.13-.31-.29-.7-.38-1.17-.08-.41-.11-.86-.13-1.3-.04-.81-.09-1.57-.48-1.68-.32-.09-.95-.41-1.69-.77-.96-.48-2.16-1.07-2.68-1.16-.68-.11-1.5,.89-1.76,1.29-.05,.07-.14,.09-.21,.04-.07-.05-.09-.14-.04-.21,.04-.06,1.06-1.59,2.06-1.42,.56,.1,1.73,.67,2.77,1.19,.69,.34,1.35,.67,1.64,.75,.6,.18,.65,1.04,.7,1.96,.02,.43,.05,.87,.13,1.26,.09,.44,.24,.81,.36,1.11,.16,.38,.27,.66,.16,.87-.06,.11-.17,.18-.34,.2-.57,.1-.78-.32-1.06-.91-.11-.22-.23-.46-.39-.74-.44-.75-.6-1.57-.69-2.01-.02-.1-.05-.22-.06-.27-.22-.09-1.4-.17-1.89,.3-.51,.48-.63,1.05-.33,1.52,.1,.15,.29,.39,.49,.64,.6,.76,1.06,1.37,1.07,1.75,0,.33-.1,.58-.31,.66-.05,.02-.1,.03-.17,.03Z"/></g><g><polyline class="cls-1" points="92.34 37.66 94.31 37.66 94.31 39.65"/><path class="cls-9" d="M94.31,39.81c-.08,0-.15-.07-.15-.15v-1.84h-1.82c-.08,0-.15-.07-.15-.15s.07-.15,.15-.15h1.97c.08,0,.15,.07,.15,.15v2c0,.08-.07,.15-.15,.15Z"/></g></g><g><path class="cls-9" d="M58.14,64.93l-.94,3.51-10.04-.43s6.07,4.99,9.03,6c2.96,1.01,7.01,2.1,10.4,1.81,3.4-.29,6.72-.94,10.11-2.6s5.42-4.91,5.42-4.91h-9.61l-.47-3.37h-13.91Z"/><path class="cls-9" d="M65.42,76.01c-2.54,0-5.66-.62-9.28-1.86-2.95-1.01-8.83-5.82-9.08-6.02-.05-.04-.07-.11-.05-.17,.02-.06,.08-.1,.15-.1l9.92,.43,.91-3.39c.02-.07,.08-.11,.15-.11h13.91c.08,0,.14,.06,.15,.13l.45,3.24h9.48c.05,0,.11,.03,.13,.08,.03,.05,.03,.11,0,.15-.02,.03-2.09,3.31-5.48,4.97-2.99,1.47-6.13,2.27-10.17,2.62-.38,.03-.77,.05-1.18,.05Zm-17.81-7.83c1.34,1.08,6.14,4.83,8.63,5.68,4.17,1.42,7.65,2.03,10.34,1.8,4-.34,7.1-1.14,10.06-2.59,2.79-1.37,4.67-3.86,5.2-4.63h-9.33c-.08,0-.14-.06-.15-.13l-.45-3.24h-13.66l-.91,3.4c-.02,.07-.08,.12-.15,.11l-9.58-.41Z"/></g><g><g><path class="cls-2" d="M72.45,73.02s2.31,.17,3.97-.26c1.66-.43,2.86,.39,3.02,1.94,.15,1.55-.63,2.98-2.69,3.13-2.06,.16-5.01-1.2-5.01-1.2,0,0-.81-2.08,.71-3.62Z"/><path class="cls-9" d="M76.4,78c-2.04,0-4.61-1.17-4.73-1.22-.04-.02-.06-.05-.08-.08,0-.02-.83-2.19,.75-3.78,.03-.03,.07-.05,.12-.04,.02,0,2.3,.16,3.92-.25,.88-.23,1.66-.13,2.25,.28,.55,.38,.88,1,.96,1.79,.09,.9-.13,1.71-.62,2.29-.49,.59-1.26,.94-2.21,1.01-.12,0-.24,.01-.36,.01Zm-4.55-1.47c.42,.19,3.03,1.3,4.88,1.16,.88-.07,1.55-.37,2-.9,.43-.52,.63-1.25,.55-2.07-.07-.7-.36-1.24-.83-1.57-.51-.36-1.21-.44-2-.24-1.52,.39-3.54,.29-3.95,.27-1.24,1.31-.76,3.02-.65,3.35Z"/></g><g><path class="cls-2" d="M74.79,77.58s1.91,.46,2.83-.48c.92-.94,1.1-2.3,.82-3.36-.2-.74-.79-1-1.13-1.09,1.2,.01,2.02,.79,2.14,2.06,.15,1.55-.63,2.98-2.69,3.13-.73,.06-1.57-.08-2.36-.28l.4,.02Z"/><path class="cls-9" d="M76.41,78c-.59,0-1.27-.1-2.05-.29-.08-.02-.12-.09-.11-.17,.01-.08,.07-.13,.16-.13l.4,.02s.02,0,.03,0c.02,0,1.84,.43,2.69-.44,.95-.98,1.01-2.34,.78-3.22-.18-.67-.72-.9-1.03-.98-.07-.02-.12-.09-.11-.17,.01-.08,.08-.13,.15-.13,1.28,.02,2.16,.86,2.29,2.19,.09,.9-.13,1.71-.62,2.29-.49,.59-1.26,.94-2.21,1.01-.11,0-.23,.01-.35,.01Zm1.78-5.01c.17,.17,.31,.41,.39,.71,.34,1.25,0,2.63-.85,3.51-.2,.21-.44,.35-.7,.45,.74-.11,1.32-.4,1.71-.87,.43-.52,.63-1.25,.55-2.07-.08-.84-.48-1.44-1.1-1.73Z"/></g><g><path class="cls-2" d="M71.81,73.66s1.15,.51,2.11,.49c.95-.03,1.35,.82,.76,1.41-.59,.59-3.07-.1-3.28-.25-.22-.15-.15-1.21,.42-1.64Z"/><path class="cls-9" d="M73.77,75.93c-1,0-2.31-.4-2.47-.51-.14-.1-.18-.32-.18-.49-.01-.45,.17-1.07,.6-1.4,.04-.03,.1-.04,.15-.02,.01,0,1.13,.5,2.04,.47,.53-.01,.95,.22,1.12,.61,.15,.35,.06,.75-.25,1.06-.2,.2-.58,.27-1.01,.27Zm-1.94-2.1c-.26,.25-.38,.66-.41,.95-.02,.24,.02,.37,.05,.39,.22,.14,2.58,.77,3.09,.27,.22-.22,.29-.49,.19-.72-.12-.27-.44-.44-.83-.42-.83,.02-1.79-.34-2.08-.46Z"/></g></g><g><path class="cls-9" d="M61.03,67.61c-3.63-1.61-7.21-3.48-10.47-5.62-1.72-1.13-3.44-1.56-4.93-.35-1.49,1.21-1.41,3.87-.2,5.24,1.21,1.37,4.97,2.74,8.53,4.22,3.56,1.49,10.76,3.21,12.83,3.76,2.07,.55,2.66,.9,3.17,1.37,.51,.47,1.78,.41,1.78,.41,0,0-.01-1.58,.34-2.33,.35-.74,.59-1.25,.59-1.25,0,0-.63-.47-1.21-.9-.59-.43-.74-.12-1.96-.9-1.34-.86-2.98-1.38-4.46-1.97-1.33-.53-2.67-1.09-4.01-1.68Z"/><path class="cls-9" d="M71.59,76.79c-.36,0-1.29-.04-1.74-.45-.44-.41-.95-.77-3.1-1.33-.33-.09-.78-.2-1.33-.34-2.98-.76-8.51-2.16-11.52-3.42-.57-.24-1.14-.47-1.71-.7-3-1.23-5.83-2.38-6.88-3.56-.67-.76-1.03-1.94-.94-3.07,.08-1,.49-1.85,1.15-2.39,1.38-1.13,3.05-1.01,5.11,.34,2.98,1.96,6.5,3.85,10.45,5.61,1.27,.57,2.62,1.13,4,1.68,.32,.13,.65,.25,.99,.38,1.2,.45,2.44,.92,3.5,1.6,.66,.43,1,.52,1.27,.59,.22,.06,.42,.11,.7,.32,.59,.43,1.21,.9,1.21,.9,.06,.04,.08,.12,.05,.18,0,0-.24,.51-.59,1.25-.33,.7-.32,2.25-.32,2.26,0,.08-.06,.15-.14,.15-.01,0-.06,0-.15,0Zm-23.99-15.73c-.69,0-1.31,.23-1.88,.69-.6,.49-.97,1.26-1.04,2.18-.09,1.06,.24,2.15,.86,2.85,1,1.12,3.8,2.27,6.77,3.48,.57,.23,1.14,.47,1.71,.7,2.99,1.25,8.51,2.65,11.48,3.41,.55,.14,1.01,.26,1.33,.34,2.03,.54,2.68,.89,3.23,1.4,.33,.31,1.11,.37,1.52,.37,0-.42,.05-1.61,.35-2.24,.25-.54,.45-.95,.53-1.14-.2-.15-.67-.5-1.11-.83-.23-.17-.38-.21-.59-.27-.29-.08-.65-.17-1.35-.63-1.03-.67-2.26-1.13-3.44-1.57-.34-.13-.67-.25-.99-.38-1.39-.55-2.74-1.12-4.01-1.68-3.97-1.76-7.5-3.66-10.49-5.63-1.07-.7-2.02-1.05-2.87-1.05Z"/></g><g><g><path class="cls-2" d="M54.67,73.43s-2.31-.14-3.9-.79-2.89,0-3.25,1.52c-.36,1.52,.22,3.03,2.24,3.47,2.02,.43,5.13-.51,5.13-.51,0,0,1.08-1.95-.22-3.68Z"/><path class="cls-9" d="M50.99,77.89c-.44,0-.87-.03-1.27-.12-.93-.2-1.64-.65-2.05-1.3-.4-.64-.51-1.48-.3-2.35,.18-.77,.6-1.34,1.19-1.65,.64-.33,1.42-.32,2.26,.02,1.55,.63,3.83,.78,3.85,.78,.04,0,.08,.02,.11,.06,1.34,1.79,.24,3.83,.23,3.85-.02,.03-.05,.06-.09,.07-.1,.03-2.1,.63-3.94,.63Zm-1.4-5.35c-.32,0-.62,.07-.89,.21-.52,.26-.87,.76-1.04,1.45-.19,.8-.1,1.55,.27,2.12,.37,.59,1,.98,1.86,1.16,1.81,.39,4.55-.36,4.99-.48,.15-.31,.86-1.95-.19-3.41-.41-.03-2.42-.2-3.88-.8-.39-.16-.77-.24-1.12-.24Z"/></g><g><path class="cls-2" d="M51.73,77.63s-1.96,.2-2.74-.86c-.78-1.06-.78-2.43-.35-3.44,.3-.71,.92-.88,1.27-.93-1.19-.15-2.1,.51-2.4,1.75-.36,1.52,.22,3.03,2.24,3.47,.72,.15,1.57,.13,2.37,.05l-.39-.03Z"/><path class="cls-9" d="M50.98,77.88c-.47,0-.89-.04-1.25-.12-.93-.2-1.64-.65-2.05-1.3-.4-.64-.51-1.48-.3-2.35,.31-1.31,1.29-2.02,2.56-1.86,.08,0,.13,.07,.13,.15,0,.08-.06,.14-.13,.15-.31,.04-.88,.2-1.15,.84-.35,.83-.48,2.2,.33,3.29,.72,.97,2.58,.8,2.6,.8,0,0,.02,0,.03,0l.39,.03c.08,0,.14,.07,.14,.15s-.06,.14-.13,.15c-.42,.05-.81,.07-1.17,.07Zm-1.99-5.26c-.66,.2-1.13,.75-1.33,1.57-.19,.8-.1,1.55,.27,2.12,.33,.52,.86,.89,1.58,1.09-.24-.13-.46-.31-.63-.54-.73-.99-.88-2.4-.37-3.59,.12-.29,.3-.5,.48-.65Z"/></g><path class="cls-9" d="M53.68,76.18c-.71,0-1.41-.1-1.68-.45-.27-.35-.31-.75-.11-1.08,.22-.36,.68-.54,1.19-.45,.89,.15,2.07-.19,2.08-.19,.05-.02,.11,0,.15,.04,.38,.38,.47,1.02,.4,1.46-.03,.17-.09,.38-.24,.46-.14,.07-.97,.21-1.8,.21Zm-.85-1.7c-.3,0-.55,.12-.68,.32-.13,.22-.1,.5,.09,.74,.43,.57,2.86,.27,3.1,.15,.02-.02,.08-.14,.1-.38,.02-.29-.05-.72-.27-1-.31,.08-1.31,.31-2.13,.17-.07-.01-.14-.02-.21-.02Z"/></g><g><path class="cls-9" d="M57.48,72.85s13.37-5.49,18.13-8.09,8.24-1.81,8.24,1.01-3.9,4.7-7.01,6.07-15.17,4.19-16.55,4.41-1.59,.29-1.59,.29c0,0-.72,.79-.94,.87s-3.18-.43-3.18-.43c0,0,.72-1.52,.51-2.17-.22-.65-.43-1.37-.43-1.37,0,0,1.66-1.23,2.82-.58Z"/><path class="cls-9" d="M57.7,77.56c-.48,0-2.13-.27-3.13-.44-.05,0-.09-.04-.11-.08s-.02-.09,0-.13c.19-.41,.66-1.57,.5-2.05-.22-.64-.43-1.37-.44-1.38-.02-.06,0-.13,.05-.17,.07-.05,1.7-1.24,2.92-.62,1.02-.42,13.52-5.58,18.05-8.06,2.98-1.62,5.69-2.04,7.24-1.12,.8,.47,1.22,1.26,1.22,2.26,0,2.83-3.66,4.69-7.1,6.21-3.13,1.38-15.2,4.2-16.58,4.42-1.07,.17-1.43,.25-1.53,.27-.21,.22-.75,.8-.97,.88-.02,0-.06,.01-.12,.01Zm-2.89-.7c1.32,.22,2.75,.43,2.92,.4,.1-.03,.53-.45,.87-.82,.02-.02,.04-.03,.06-.04,.02,0,.27-.08,1.61-.29,1.37-.22,13.4-3.02,16.51-4.4,3.35-1.48,6.92-3.28,6.92-5.93,0-.9-.37-1.59-1.07-2-1.46-.87-4.06-.45-6.94,1.12-4.72,2.58-18.02,8.04-18.15,8.1-.04,.02-.09,.01-.13,0-.91-.51-2.22,.28-2.57,.51,.07,.22,.24,.77,.4,1.26,.19,.57-.24,1.66-.43,2.1Z"/></g></g><g><g><rect class="cls-9" x="99.1" y="43.43" width="7.95" height="6.83"/><path class="cls-9" d="M107.05,50.41h-7.95c-.08,0-.15-.07-.15-.15v-6.83c0-.08,.07-.15,.15-.15h7.95c.08,0,.15,.07,.15,.15v6.83c0,.08-.07,.15-.15,.15Zm-7.8-.3h7.65v-6.53h-7.65v6.53Z"/></g><g><rect class="cls-7" x="99.1" y="44.8" width="7.95" height="5.45"/><path class="cls-9" d="M107.05,50.41h-7.95c-.08,0-.15-.07-.15-.15v-5.45c0-.08,.07-.15,.15-.15h7.95c.08,0,.15,.07,.15,.15v5.45c0,.08-.07,.15-.15,.15Zm-7.8-.3h7.65v-5.15h-7.65v5.15Z"/></g><g><rect class="cls-2" x="84.86" y="42.52" width="15.79" height="8.75"/><path class="cls-9" d="M100.65,51.42h-15.79c-.08,0-.15-.07-.15-.15v-8.75c0-.08,.07-.15,.15-.15h15.79c.08,0,.15,.07,.15,.15v8.75c0,.08-.07,.15-.15,.15Zm-15.64-.3h15.49v-8.45h-15.49v8.45Z"/></g><g><rect class="cls-2" x="84.38" y="42.52" width="15.79" height="8.75"/><path class="cls-9" d="M100.17,51.42h-15.79c-.08,0-.15-.07-.15-.15v-8.75c0-.08,.07-.15,.15-.15h15.79c.08,0,.15,.07,.15,.15v8.75c0,.08-.07,.15-.15,.15Zm-15.64-.3h15.49v-8.45h-15.49v8.45Z"/></g><g><rect class="cls-1" x="89.67" y="44.63" width="3.95" height="3.95"/><path class="cls-9" d="M93.63,48.73h-3.95c-.08,0-.15-.07-.15-.15v-3.95c0-.08,.07-.15,.15-.15h3.95c.08,0,.15,.07,.15,.15v3.95c0,.08-.07,.15-.15,.15Zm-3.8-.3h3.65v-3.65h-3.65v3.65Z"/></g></g><g><g><g><rect class="cls-9" x="21.54" y="59.15" width="7.95" height="6.83" transform="translate(51.03 125.12) rotate(180)"/><path class="cls-9" d="M29.49,66.13h-7.95c-.08,0-.15-.07-.15-.15v-6.83c0-.08,.07-.15,.15-.15h7.95c.08,0,.15,.07,.15,.15v6.83c0,.08-.07,.15-.15,.15Zm-7.8-.3h7.65v-6.53h-7.65v6.53Z"/></g><g><rect class="cls-7" x="21.54" y="60.52" width="7.95" height="5.45" transform="translate(51.03 126.5) rotate(180)"/><path class="cls-9" d="M29.49,66.13h-7.95c-.08,0-.15-.07-.15-.15v-5.45c0-.08,.07-.15,.15-.15h7.95c.08,0,.15,.07,.15,.15v5.45c0,.08-.07,.15-.15,.15Zm-7.8-.3h7.65v-5.15h-7.65v5.15Z"/></g><g><rect class="cls-2" x="27.94" y="58.24" width="15.79" height="8.75" transform="translate(71.68 125.23) rotate(180)"/><path class="cls-9" d="M43.74,67.14h-15.79c-.08,0-.15-.07-.15-.15v-8.75c0-.08,.07-.15,.15-.15h15.79c.08,0,.15,.07,.15,.15v8.75c0,.08-.07,.15-.15,.15Zm-15.64-.3h15.49v-8.45h-15.49v8.45Z"/></g><g><rect class="cls-2" x="28.42" y="58.24" width="15.79" height="8.75" transform="translate(72.64 125.23) rotate(180)"/><path class="cls-9" d="M44.22,67.14h-15.79c-.08,0-.15-.07-.15-.15v-8.75c0-.08,.07-.15,.15-.15h15.79c.08,0,.15,.07,.15,.15v8.75c0,.08-.07,.15-.15,.15Zm-15.64-.3h15.49v-8.45h-15.49v8.45Z"/></g></g><g><circle class="cls-10" cx="36.71" cy="62.69" r="2.52"/><path class="cls-9" d="M36.71,65.37c-1.48,0-2.68-1.2-2.68-2.68s1.2-2.68,2.68-2.68,2.68,1.2,2.68,2.68-1.2,2.68-2.68,2.68Zm0-5.05c-1.31,0-2.37,1.06-2.37,2.37s1.06,2.37,2.37,2.37,2.37-1.06,2.37-2.37-1.06-2.37-2.37-2.37Z"/></g></g></svg>