<?xml version="1.0" encoding="UTF-8"?><svg id="Camada_1" xmlns="http://www.w3.org/2000/svg" viewBox="0 0 141.56 90.26"><defs><style>.cls-1,.cls-2,.cls-3{opacity:.1;}.cls-1,.cls-4,.cls-5,.cls-6{fill:#fff;}.cls-7{fill:#007cff;}.cls-8{fill:#f0f0f0;}.cls-9{fill:#f5f5f5;}.cls-10{fill:#ff5551;}.cls-11{fill:#e7e7e7;}.cls-12{fill:#ececec;}.cls-13{fill:#fafafa;}.cls-14{fill:#ff978d;}.cls-15{fill:#e1e1e1;}.cls-16{fill:#1a2e35;}.cls-3,.cls-17{isolation:isolate;}.cls-18,.cls-17{opacity:.2;}.cls-19,.cls-6{opacity:.3;}.cls-20{opacity:.9;}.cls-5{opacity:.8;}</style></defs><rect class="cls-12" x="109.21" y="81.76" width="7.63" height=".06"/><rect class="cls-12" x="87.49" y="82.39" width="2" height=".06"/><rect class="cls-12" x="104.56" y="79.62" width="4.42" height=".06"/><rect class="cls-12" x="25.26" y="80.01" width="9.95" height=".06"/><rect class="cls-12" x="37.27" y="80.01" width="1.46" height=".06"/><rect class="cls-12" x="43.47" y="80.98" width="21.59" height=".06"/><path class="cls-12" d="M67.79,67.78H23.3c-.73,0-1.32-.59-1.32-1.32V3.92c0-.73,.59-1.32,1.32-1.32h44.49c.73,0,1.32,.59,1.32,1.32v62.54c0,.73-.59,1.32-1.32,1.32ZM23.3,2.66c-.69,0-1.26,.56-1.26,1.26v62.54c0,.69,.56,1.26,1.26,1.26h44.49c.69,0,1.26-.56,1.26-1.26V3.92c0-.69-.56-1.26-1.26-1.26H23.3Z"/><path class="cls-12" d="M117.63,67.78h-44.49c-.73,0-1.32-.59-1.32-1.32V3.92c0-.73,.59-1.32,1.32-1.32h44.49c.73,0,1.32,.59,1.32,1.32v62.54c0,.73-.59,1.32-1.32,1.32ZM73.13,2.66c-.69,0-1.26,.56-1.26,1.26v62.54c0,.69,.56,1.26,1.26,1.26h44.49c.69,0,1.26-.56,1.26-1.26V3.92c0-.69-.56-1.26-1.26-1.26h-44.49Z"/><rect class="cls-12" x="13.18" y="78.05" width="115.21" height=".06"/><path class="cls-12" d="M85.82,5.8v.03s-.04-.01-.06-.02c.02,0,.04-.01,.06-.02Z"/><path class="cls-12" d="M85.75,5.82s-.04,0-.06,.02v-.03s.04,0,.06,.02Z"/><g><g><g id="coffee_machine"><g><g><polygon class="cls-8" points="30.51 46.58 37.35 46.58 38.42 39.98 29.43 39.98 30.51 46.58"/><polygon class="cls-15" points="29.46 40.18 31.83 40.18 32.24 46.57 30.51 46.58 29.46 40.18"/><rect class="cls-12" x="27.29" y="35.04" width="13.15" height="5.14" rx="2.57" ry="2.57" transform="translate(67.74 75.22) rotate(180)"/><path class="cls-15" d="M27.25,37.09v1.03c0,1.14,.91,2.04,2.26,2.04h2.56c-1.34,0-2.04-.91-2.04-2.04v-1.03c0-1.14,.9-2.07,2.04-2.07h-2.76c-1.13,0-2.05,.93-2.05,2.07Z"/></g><g><rect class="cls-15" x="32.7" y="41.86" width="2.47" height="1.41"/><rect class="cls-13" x="33.73" y="41.86" width="1.44" height="1.41"/><path class="cls-15" d="M27.35,47.44c0,.23,.09,.44,.25,.6,.15,.15,.37,.25,.6,.25h11.46c.47,0,.85-.38,.85-.85,0-.23-.09-.45-.25-.6-.15-.15-.37-.25-.6-.25h-11.46c-.47,0-.85,.38-.85,.85Z"/><path class="cls-9" d="M31.82,47.44c0,.23,.09,.44,.25,.6,.15,.15,.37,.25,.6,.25h6.99c.47,0,.85-.38,.85-.85,0-.23-.09-.45-.25-.6-.15-.15-.37-.25-.6-.25h-6.99c-.47,0-.85,.38-.85,.85Z"/><path class="cls-15" d="M32.64,37.62c0,.71,.58,1.28,1.28,1.28,.12,0,.25-.02,.36-.05,.53-.16,.92-.65,.92-1.23s-.39-1.08-.92-1.23c-.11-.03-.23-.05-.36-.05-.71,0-1.28,.58-1.28,1.28Z"/><path class="cls-13" d="M33.36,37.62c0,.58,.39,1.08,.92,1.23,.53-.16,.92-.65,.92-1.23s-.39-1.08-.92-1.23c-.53,.16-.92,.65-.92,1.23Z"/><rect class="cls-15" x="31.9" y="40.19" width="4.11" height="1.64"/><rect class="cls-13" x="33.16" y="40.19" width="2.85" height="1.64"/><path class="cls-15" d="M30.61,37.61c0,.3,.24,.54,.54,.54s.54-.24,.54-.54-.24-.54-.54-.54-.54,.24-.54,.54Z"/><path class="cls-15" d="M28.76,37.61c0,.3,.24,.54,.54,.54s.54-.24,.54-.54-.24-.54-.54-.54-.54,.24-.54,.54Z"/><path class="cls-15" d="M37.88,37.61c0,.3,.24,.54,.54,.54s.54-.24,.54-.54-.24-.54-.54-.54-.54,.24-.54,.54Z"/><rect class="cls-13" x="30.63" y="42.35" width="2.06" height=".64" transform="translate(63.31 85.34) rotate(180)"/></g></g></g><g><path class="cls-15" d="M31.9,40.38h4.1c.11,0,.19-.09,.19-.19s-.09-.19-.19-.19h-4.1c-.11,0-.19,.09-.19,.19s.09,.19,.19,.19Z"/><path class="cls-13" d="M30.42,37.61c0-.4,.33-.73,.73-.73s.73,.33,.73,.73-.33,.73-.73,.73-.73-.33-.73-.73Zm.39,0c0,.19,.16,.35,.35,.35s.35-.16,.35-.35-.16-.35-.35-.35-.35,.16-.35,.35Z"/><path class="cls-13" d="M28.57,37.61c0-.4,.33-.73,.73-.73s.73,.33,.73,.73-.33,.73-.73,.73-.73-.33-.73-.73Zm.39,0c0,.19,.16,.35,.35,.35s.35-.16,.35-.35-.16-.35-.35-.35-.35,.16-.35,.35Z"/><path class="cls-13" d="M37.69,37.61c0-.4,.33-.73,.73-.73s.73,.33,.73,.73-.33,.73-.73,.73-.73-.33-.73-.73Zm.39,0c0,.19,.16,.35,.35,.35s.35-.16,.35-.35-.16-.35-.35-.35-.35,.16-.35,.35Z"/><path class="cls-11" d="M33.95,37.2c.11,0,.19-.09,.19-.19v-.64c0-.11-.09-.19-.19-.19s-.19,.09-.19,.19v.64c0,.11,.09,.19,.19,.19Z"/></g></g><g><g><rect class="cls-8" x="42.95" y="48.22" width="17.59" height="29.78"/><rect class="cls-11" x="42.95" y="48.22" width="18.39" height="2.22"/></g><g><path class="cls-11" d="M58.83,76.81h-14.65v-24.91h14.65v24.91Zm-14.46-.19h14.27v-24.54h-14.27v24.54Z"/><path class="cls-13" d="M58.83,76.92h-14.65c-.06,0-.12-.05-.12-.12v-24.91c0-.06,.05-.12,.12-.12h14.65c.06,0,.12,.05,.12,.12v24.91c0,.06-.05,.12-.12,.12Zm-14.35-.42h14.04v-24.31h-14.04v24.31Z"/></g><rect class="cls-15" x="45.15" y="61.37" width="1.13" height="3.46"/><g><rect class="cls-8" x="25.48" y="48.22" width="17.59" height="29.78" transform="translate(68.56 126.21) rotate(180)"/><rect class="cls-11" x="24.68" y="48.22" width="18.39" height="2.22" transform="translate(67.76 98.66) rotate(180)"/></g><g><path class="cls-11" d="M27.19,51.89h14.65v24.91h-14.65v-24.91Zm14.46,.19h-14.27v24.54h14.27v-24.54Z"/><path class="cls-13" d="M41.84,76.92h-14.65c-.06,0-.12-.05-.12-.12v-24.91c0-.06,.05-.12,.12-.12h14.65c.06,0,.12,.05,.12,.12v24.91c0,.06-.05,.12-.12,.12Zm-14.35-.42h14.04v-24.31h-14.04v24.31Z"/></g><rect class="cls-15" x="39.74" y="61.37" width="1.13" height="3.46" transform="translate(80.61 126.21) rotate(180)"/></g></g><g><g><rect class="cls-13" x="97.06" y="9.5" width="17.98" height="64.05"/><g><rect class="cls-15" x="94.46" y="84.77" width="2.88" height="2.88"/><rect class="cls-15" x="93.02" y="51.95" width="22.48" height="23.93"/><polygon class="cls-15" points="97.34 46.52 97.34 56.27 99.11 56.27 109.41 56.27 111.18 56.27 111.18 46.52 97.34 46.52"/><rect class="cls-13" x="94.46" y="53.39" width="2.88" height="2.88"/><rect class="cls-13" x="100.03" y="53.39" width="2.88" height="2.88"/><rect class="cls-13" x="105.61" y="53.39" width="2.88" height="2.88"/><rect class="cls-8" x="111.18" y="53.39" width="2.88" height="2.88"/><rect class="cls-8" x="94.46" y="58.62" width="2.88" height="2.88"/><rect class="cls-8" x="100.03" y="58.62" width="2.88" height="2.88"/><rect class="cls-13" x="105.61" y="58.62" width="2.88" height="2.88"/><rect class="cls-13" x="111.18" y="58.62" width="2.88" height="2.88"/><rect class="cls-8" x="94.46" y="63.85" width="2.88" height="2.88"/><rect class="cls-13" x="100.03" y="63.85" width="2.88" height="2.88"/><rect class="cls-13" x="105.61" y="63.85" width="2.88" height="2.88"/><rect class="cls-13" x="100.03" y="48.87" width="2.88" height="2.88"/><rect class="cls-8" x="105.61" y="48.87" width="2.88" height="2.88"/><rect class="cls-8" x="111.18" y="63.85" width="2.88" height="2.88"/><rect class="cls-13" x="94.46" y="69.08" width="2.88" height="2.88"/><rect class="cls-8" x="100.03" y="69.08" width="2.88" height="2.88"/><rect class="cls-8" x="105.61" y="69.08" width="2.88" height="2.88"/><rect class="cls-13" x="111.18" y="69.08" width="2.88" height="2.88"/><rect class="cls-8" x="94.46" y="74.31" width="2.88" height="1.57"/><rect class="cls-13" x="100.03" y="74.31" width="2.88" height="1.57"/><rect class="cls-13" x="105.61" y="74.31" width="2.88" height="1.57"/><rect class="cls-8" x="111.18" y="74.31" width="2.88" height="1.57"/></g><rect class="cls-1" x="97.02" y="9.5" width="17.98" height="64.05"/><g class="cls-19"><polygon class="cls-4" points="113.25 9.5 107.51 9.5 101.24 73.55 106.98 73.55 113.25 9.5"/></g><rect class="cls-15" x="96.91" y="8.73" width="18.29" height="1.55"/><rect class="cls-12" x="96.91" y="73.02" width="18.29" height="1.55"/><path class="cls-12" d="M96.08,7.22V75.88h19.83V7.22h-19.83Zm18.31,1.51V74.37h-16.8V8.73h16.8Z"/></g><g><rect class="cls-13" x="77.44" y="9.5" width="17.98" height="64.05"/><g><rect class="cls-11" x="78.69" y="54.36" width="15.38" height="18.87"/><polygon class="cls-11" points="92.73 56.45 89.15 56.45 88.17 56.45 87.18 56.45 87.18 58.42 88.17 58.42 89.15 58.42 92.73 58.42 92.73 56.45"/><polygon class="cls-13" points="92.73 60.26 89.15 60.26 88.17 60.26 87.18 60.26 87.18 62.23 88.17 62.23 89.15 62.23 92.73 62.23 92.73 60.26"/><polygon class="cls-11" points="92.73 64.08 89.15 64.08 88.17 64.08 87.18 64.08 87.18 66.05 88.17 66.05 89.15 66.05 92.73 66.05 92.73 64.08"/><polygon class="cls-13" points="92.73 67.89 89.15 67.89 87.63 67.89 87.18 67.89 87.18 69.86 87.63 69.86 89.15 69.86 92.73 69.86 92.73 67.89"/><polygon class="cls-13" points="85.57 56.45 82 56.45 81.01 56.45 80.03 56.45 80.03 58.42 81.01 58.42 82 58.42 85.57 58.42 85.57 56.45"/><polygon class="cls-13" points="85.57 60.26 82 60.26 80.61 60.26 80.03 60.26 80.03 62.23 80.61 62.23 82 62.23 85.57 62.23 85.57 60.26"/><polygon class="cls-11" points="85.57 64.08 82 64.08 81.01 64.08 80.03 64.08 80.03 66.05 81.01 66.05 82 66.05 85.57 66.05 85.57 64.08"/><polygon class="cls-13" points="85.57 67.89 82 67.89 81.01 67.89 80.03 67.89 80.03 69.86 81.01 69.86 82 69.86 85.57 69.86 85.57 67.89"/></g><rect class="cls-1" x="77.38" y="9.5" width="17.98" height="64.05"/><g class="cls-19"><polygon class="cls-4" points="93.63 9.5 87.9 9.5 81.63 73.55 87.36 73.55 93.63 9.5"/></g><rect class="cls-15" x="77.29" y="8.73" width="18.29" height="1.55"/><rect class="cls-12" x="77.29" y="73.02" width="18.29" height="1.55"/><path class="cls-12" d="M95.37,66.73v-5.23h-.59v12.05h.59v-4.47h.06v-2.35h-.06Zm0,0v-5.23h-.59v12.05h.59v-4.47h.06v-2.35h-.06Zm0,0v-5.23h-.59v12.05h.59v-4.47h.06v-2.35h-.06ZM76.47,7.22V75.88h19.82V7.22h-19.82Zm18.31,1.51V74.37h-16.8V8.73h16.8Zm.59,58v-5.23h-.59v12.05h.59v-4.47h.06v-2.35h-.06Zm0,0v-5.23h-.59v12.05h.59v-4.47h.06v-2.35h-.06Z"/></g></g><g><rect class="cls-9" x="31.7" y="7.3" width="28.29" height="11.6"/><rect class="cls-4" x="43.69" y="13.05" width="3.69" height=".81"/><rect class="cls-15" x="32.68" y="14.58" width="26.34" height="4.32"/><polygon class="cls-12" points="58.64 16.26 33.05 16.26 32.74 14.59 58.96 14.59 58.64 16.26"/><polygon class="cls-9" points="33.05 16.26 58.64 16.26 58.96 17.48 32.74 17.48 33.05 16.26"/></g><g><path class="cls-7" d="M106.72,49.12c-2.71,3.29-6.44,5.56-10.16,7.64-3.72,2.08-7.56,4.07-10.69,6.97-3.38,3.13-5.75,7.17-8.54,10.83-2.02,2.64-4.77,5.32-8.08,5.09-1.83-.13-3.47-1.14-4.87-2.32-2.84-2.39-5.01-5.58-6.18-9.1-1.61-4.81-1.65-10.63-5.53-13.9-2-1.69-4.68-2.33-7.29-2.53-2.61-.2-5.24,0-7.84-.25-2.6-.25-5.27-1.03-7.15-2.85-1.88-1.82-2.73-4.87-1.43-7.15,1.69-2.95,4.99-4.74,8.22-5.83,3.22-1.09,6.66-1.87,9.34-3.96,2.58-2.02,4.18-5.05,5.29-8.13,1.11-3.08,1.81-6.31,3.03-9.35,1.05-2.61,2.62-5.22,5.16-6.44,3.56-1.71,7.98-.09,10.76,2.72,2.77,2.81,4.3,6.58,5.91,10.18,1.61,3.6,3.49,7.29,6.69,9.6,2.19,1.59,5.15,1.79,7.85,1.58,2.7-.2,5.38-.71,8.09-.66s5.4,.87,7.52,2.55c7.11,5.66,2.65,12.01-.06,15.3Z"/><g class="cls-20"><path class="cls-4" d="M106.72,49.12c-2.71,3.29-6.44,5.56-10.16,7.64-3.72,2.08-7.56,4.07-10.69,6.97-3.38,3.13-5.75,7.17-8.54,10.83-2.02,2.64-4.77,5.32-8.08,5.09-1.83-.13-3.47-1.14-4.87-2.32-2.84-2.39-5.01-5.58-6.18-9.1-1.61-4.81-1.65-10.63-5.53-13.9-2-1.69-4.68-2.33-7.29-2.53-2.61-.2-5.24,0-7.84-.25-2.6-.25-5.27-1.03-7.15-2.85-1.88-1.82-2.73-4.87-1.43-7.15,1.69-2.95,4.99-4.74,8.22-5.83,3.22-1.09,6.66-1.87,9.34-3.96,2.58-2.02,4.18-5.05,5.29-8.13,1.11-3.08,1.81-6.31,3.03-9.35,1.05-2.61,2.62-5.22,5.16-6.44,3.56-1.71,7.98-.09,10.76,2.72,2.77,2.81,4.3,6.58,5.91,10.18,1.61,3.6,3.49,7.29,6.69,9.6,2.19,1.59,5.15,1.79,7.85,1.58,2.7-.2,5.38-.71,8.09-.66s5.4,.87,7.52,2.55c7.11,5.66,2.65,12.01-.06,15.3Z"/></g></g><g><path class="cls-7" d="M72.51,49.48c-.06,0-.12-.05-.12-.12s.05-.12,.12-.12c.71,0,1.22-.18,1.57-.54,.41-.43,.59-1.12,.55-2.12,0-.06,.05-.12,.11-.12,.06,0,.12,.05,.12,.11,.04,1.07-.16,1.81-.61,2.29-.39,.4-.97,.61-1.73,.61Z"/><path class="cls-7" d="M76.01,46.81s-.06-.01-.08-.03l-1.19-1.19-1.19,1.19s-.12,.05-.16,0-.05-.12,0-.16l1.27-1.27s.12-.05,.16,0l1.27,1.27s.05,.12,0,.16c-.02,.02-.05,.03-.08,.03Z"/><g><path class="cls-7" d="M95.93,48.82s0,0,0,0c-.06,0-.11-.06-.11-.12,.22-2.74-.44-5.3-1.76-6.83-.85-.99-1.92-1.53-3.18-1.63-.06,0-.11-.06-.11-.12,0-.06,.06-.11,.12-.11,1.32,.1,2.45,.67,3.34,1.71,1.36,1.58,2.04,4.2,1.82,7,0,.06-.06,.11-.11,.11Z"/><path class="cls-7" d="M91.3,41.57s-.06-.01-.08-.03l-1.27-1.27s-.03-.05-.03-.08,.01-.06,.03-.08l1.27-1.27s.12-.05,.16,0c.05,.04,.05,.12,0,.16l-1.18,1.19,1.19,1.18s.05,.12,0,.16c-.02,.02-.05,.03-.08,.03Z"/></g><g><path class="cls-7" d="M75.19,39.26s-.04,0-.06-.02c-.06-.03-.07-.1-.04-.16,.62-1.09,1.7-1.87,3.1-2.25,2.3-.62,5.37-.11,7.83,1.31,.06,.03,.07,.1,.04,.16-.03,.06-.1,.07-.16,.04-2.4-1.39-5.41-1.89-7.65-1.28-1.34,.36-2.36,1.1-2.96,2.14-.02,.04-.06,.06-.1,.06Z"/><path class="cls-7" d="M74.89,40.05s-.09-.03-.11-.08l-.6-1.69c-.02-.06,.01-.13,.07-.15,.06-.02,.13,.01,.15,.07l.56,1.58,1.58-.56c.06-.02,.13,.01,.15,.07,.02,.06-.01,.13-.07,.15l-1.69,.6s-.03,0-.04,0Z"/></g><g><path class="cls-7" d="M44.16,41.58s-.02,0-.02,0c-.06-.01-.1-.07-.09-.14,.46-2.23,9.52-1.49,9.91-1.46,.06,0,.11,.06,.11,.12,0,.06-.06,.11-.12,.11-2.57-.22-9.32-.4-9.66,1.28-.01,.05-.06,.09-.11,.09Z"/><path class="cls-7" d="M53.53,41.54s-.06-.01-.08-.03c-.04-.05-.04-.12,0-.16l1.19-1.18-1.18-1.19s-.04-.12,0-.16c.05-.04,.12-.04,.16,0l1.27,1.27s.04,.12,0,.16l-1.27,1.27s-.05,.03-.08,.03Z"/></g></g><g><g><path class="cls-7" d="M53.65,84.53h-18.34c-.54,0-.98-.41-1.03-.95l-2.56-29.25c-.05-.61,.42-1.13,1.03-1.13h18.76c1.78,0,3.26,1.36,3.41,3.13l2.14,24.47c.18,2-1.4,3.72-3.41,3.72Z"/><path class="cls-6" d="M53.81,84.53h-18.26c-.68,0-1.24-.52-1.3-1.19l-2.51-28.71c-.07-.76,.53-1.42,1.3-1.42h18.6c1.7,0,3.11,1.3,3.26,2.99l2.17,24.77c.17,1.91-1.34,3.56-3.26,3.56Z"/></g><g><path class="cls-7" d="M81.7,82.44c0,.57-.23,1.09-.61,1.47-.38,.38-.9,.61-1.47,.61h-29.08c-.08,0-.16,0-.24-.01v-.06s-.36-4-.36-4c.19-.06,.39-.09,.59-.09h29.08c1.15,0,2.08,.93,2.08,2.08Z"/><path class="cls-6" d="M81.7,82.44c0,.57-.23,1.09-.61,1.47-.38,.38-.9,.61-1.47,.61h-29.08c-.08,0-.16,0-.24-.01v-.06s-.36-4-.36-4c.19-.06,.39-.09,.59-.09h29.08c1.15,0,2.08,.93,2.08,2.08Z"/></g><path class="cls-7" d="M62.31,82.44c0,.57-.23,1.09-.61,1.47-.38,.38-.9,.61-1.47,.61h-26.48c-.08,0-.16,0-.24-.01v-.06s-.36-4-.36-4l-2.19-25.08c-.1-1.15,.75-2.08,1.9-2.08,.57,0,1.11,.23,1.52,.61,.41,.38,.69,.9,.74,1.47l2.19,24.99h22.92c1.15,0,2.08,.93,2.08,2.08Z"/></g><g><path class="cls-7" d="M57.06,80.13c-.73-.33-1.51-.53-2.3-.7-4.07-.91-7.46-1.03-13.69,.73-.79,.22-1.89,.35-2.25-.38-.29-.6,.06-1.67,.64-1.89-.81-2.31-1.46-6.22-1.15-8.65-.45-.23-.79-.71-.77-1.21,.04-1.19,2.84-.64,3.71-.11,4.02-.96,8.43-.82,12.4,.34,.42-.21,.84-.47,1.31-.53,.46-.06,.98,.04,1.3,.39s.35,.96,0,1.26c.76,1.12,1.42,5.61,1.23,8.53-.02,.38,.44,.64,.59,.99,.15,.36,.18,.8-.06,1.1-.18,.23-.65,.28-.94,.14Z"/><path class="cls-5" d="M57.06,80.13c-.73-.33-1.51-.53-2.3-.7-4.07-.91-7.46-1.03-13.69,.73-.79,.22-1.89,.35-2.25-.38-.29-.6,.06-1.67,.64-1.89-.81-2.31-1.46-6.22-1.15-8.65-.45-.23-.79-.71-.77-1.21,.04-1.19,2.84-.64,3.71-.11,4.02-.96,8.43-.82,12.4,.34,.42-.21,.84-.47,1.31-.53,.46-.06,.98,.04,1.3,.39s.35,.96,0,1.26c.76,1.12,1.42,5.61,1.23,8.53-.02,.38,.44,.64,.59,.99,.15,.36,.18,.8-.06,1.1-.18,.23-.65,.28-.94,.14Z"/></g><g><g id="freepik--Character--inject-582"><path class="cls-14" d="M56.79,57.75l-.64,.71s.02,0,.02-.03c0-.05-3.85-4.41-4.58-6.02l.8-.83c.96,1.15,4.43,3.87,5.06,4.45,.38,.35,.69,.77,.93,1.23,.15,.29,.24,.61,.28,.94,.29,2.25-8.16,2.77-8.16,2.77-.09-.02-.16-.03-.28-.06-.74-.2-1.18-.97-.98-1.71,.19-.69,.86-1.12,1.56-1.01,0,0,5.07-.07,6-.44Z"/><path class="cls-7" d="M49.41,58.06c.16,1.37,1.09,3.54,1.73,4.77l3.34-.95s-.16-2.6-.24-3.81c0,0-3.06,.12-4.82-.01Z"/><path class="cls-3" d="M49.41,58.06c.16,1.37,1.09,3.54,1.73,4.77l3.34-.95s-.16-2.6-.24-3.81c0,0-3.06,.12-4.82-.01Z"/><g><path class="cls-14" d="M51.59,52.42l-.91-1.94,2.04-.32c.12,.73-.15,1.63-.15,1.63l-.98,.63Z"/><path class="cls-14" d="M50.83,48.75l.93-.12c.32-.04,.55-.02,.67,.23,.02,.04,.03,.07,.04,.11l.27,1.2-2.04,.32-.15-1.2c-.03-.22,.08-.44,.28-.53Z"/></g><g><g><polygon class="cls-14" points="86.44 80.05 86.96 80.31 87.15 80.4 88.9 81.26 89.08 81.35 88.85 83.41 88.84 83.5 88.68 83.45 87.96 83.22 86.47 82.74 86.14 82.64 85.44 82.41 85.59 82.07 86.44 80.06 86.44 80.05"/><polygon class="cls-18" points="87.15 80.4 86.19 82.53 86.14 82.64 85.44 82.41 85.59 82.07 86.44 80.06 86.96 80.31 87.15 80.4"/><path class="cls-14" d="M93.11,79.64c-.1,.17-.19,.34-.29,.5,0,0,0,0,0,0,0,0,0,0,0,0,0,0,0,.02-.01,.02-.04,.07-.15,.25-.29,.49-.04,.07-.09,.14-.13,.22-.07,.11-.14,.24-.22,.36-.05,.09-.1,.17-.15,.25-.11,.19-.21,.36-.31,.53-.61,1.07-.79,1.5-1.26,2.36-.12,.21-.39,.29-.6,.18,0,0-1.94-1.25-1.89-1.33l.94-1.95c.08-.13,1.97-.77,3.52-2.62,.29-.35,1.2,.08,.68,.99Z"/></g><g id="_Group_"><g><g><polygon class="cls-14" points="87.64 78.35 90.42 79.8 89.83 81.57 89.82 81.66 89.67 81.61 86.63 80.56 86.78 80.23 87.64 78.36 87.64 78.35"/><polygon class="cls-18" points="89.26 79.19 88.02 81.04 86.63 80.56 86.78 80.23 87.64 78.36 89.26 79.19"/><path class="cls-14" d="M94.54,78.9c-.12,.14-.24,.28-.36,.42,0,0,0,0,0,0,0,0,0,0,0,0,0,0-.01,.01-.01,.02-.05,.06-.18,.21-.36,.41-.05,.06-.11,.12-.16,.18-.08,.1-.17,.2-.26,.3-.06,.07-.12,.14-.19,.21-.13,.16-.26,.3-.38,.44-.76,.9-1,1.27-1.58,1.99-.15,.17-.41,.21-.59,.07,0,0-1.58-1.48-1.52-1.55l1.22-1.67c.1-.11,1.96-.4,3.73-1.86,.33-.28,1.09,.27,.46,1.03Z"/><path class="cls-1" d="M94.54,78.9c-.12,.14-.24,.28-.35,.42,0,0,0,0,0,0,0,0,0,0,0,0,0,0-.01,.01-.01,.02-.05,.06-.18,.21-.36,.41-.05,.06-.11,.12-.16,.18-.08,.1-.17,.2-.26,.3-.07,.07-.12,.14-.19,.21-.14,.16-.26,.3-.38,.44-.76,.9-1,1.27-1.58,1.99-.15,.17-.41,.2-.59,.07,0,0-1.38-1.29-1.51-1.51l-2.51-.87,.15-.33,.86-1.88h0s2.69,1.4,2.69,1.4l.02-.03c.1-.11,1.96-.4,3.73-1.86,.33-.28,1.09,.27,.45,1.03Z"/></g><path class="cls-16" d="M88.99,78.6l-1.44,2.25-7.27-2.12c-6.33-1.02-8.27-3.55-8.27-3.55-4.18,1.4-15.43,2.85-18.07,1.63-2.26-1.05-3.5-3.23-3.5-3.23l6.58-2.77s8.86-.4,14.62,.16c1.95,.19,3.84,.77,5.55,1.69l11.81,5.94Z"/><path class="cls-2" d="M88.99,78.6l-1.44,2.25-7.27-2.12c-6.33-1.02-8.27-3.55-8.27-3.55-4.18,1.4-15.43,2.85-18.07,1.63-2.26-1.05-3.5-3.23-3.5-3.23l6.58-2.77s8.86-.4,14.62,.16c1.95,.19,3.84,.77,5.55,1.69l11.81,5.94Z"/></g></g><g id="_Group_-2"><path class="cls-16" d="M86.62,79.77l-.07,.16-.16,.39-.81,1.9-.14,.33-.12,.28-.72-.24-4.29-1.42c-3.12-.61-8.91-3.87-8.91-3.87-4.08,1.85-18.82,5.21-21.81,2.8-.55-.44-1.06-1.08-1.48-1.73-.79-1.23-1.27-2.52-1.11-2.78l2.94-1.41c1.63-.78,4.85-1.35,8.22-1.75,4.79-.57,9.87-.78,11.05-.74,1.75,.06,3.45,.54,4.95,1.4l12.47,6.67Z"/></g></g><path class="cls-7" d="M46.68,74.5l-1.22-1.33c-1.6-1.74-3.01-3.63-4.12-5.6-.06-.1-.12-.2-.18-.31,0,0,0-.01-.01-.02-1.1-2.02-1.87-4.12-2.2-6.21,0-.04-.01-.08-.01-.12-.12-1.22,.72-2.34,1.95-2.55,.64-.11,1.37-.22,2.1-.29,1.52-.17,3.04-.23,4.57-.18,.85,.05,1.64,.13,2.25,.21,.57,.08,3.08,3.66,2.9,6.48-.05,.83,2.21,3.5,3.55,5.29,.48,.64-9.57,4.63-9.57,4.63Z"/><path class="cls-16" d="M59.06,70.76s-.5,.76-.9,1.68c-3.37,.4-6.59,.97-8.22,1.75l-2.94,1.41c-.16,.25,.32,1.55,1.11,2.78-1.39-1.79-1.93-4.35-1.93-4.35l9.81-4.49,3.06,1.22Z"/><path class="cls-3" d="M41.71,68.2c-.17-.27-.35-.58-.54-.93,0,0,0-.01-.01-.02-1.1-2.02-1.87-4.12-2.2-6.21,0-.04-.01-.08-.01-.12l6.33,1.19s-1.72,4.66-3.56,6.09Z"/><path class="cls-16" d="M47.37,52.91c.19,.76,.39,1.52,.42,2.3,.03,.78-.1,1.59-.53,2.25-.42,.66-1.17,1.13-1.95,1.11-.55-.02-1.07-.28-1.54-.57-1.87-1.19-3.25-3.13-3.76-5.29-.32-1.33-.25-2.89,.68-3.89,.75-.81,1.89-1.09,2.96-1.34,1.18-.27,2.25,.73,2.81,1.81,.56,1.07,.6,2.46,.9,3.63Z"/><path class="cls-14" d="M43.24,52.92c.34,1.46,.75,4.14-.25,5.16,0,0,2.02,1.89,3.91,1.81,1.89-.08,.67-1.99,.67-1.99-1.66-.33-1.66-1.54-1.43-2.7l-2.9-2.28Z"/><path class="cls-17" d="M44.42,53.86l1.72,1.35c-.06,.27-.1,.54-.11,.82-.63-.07-1.59-.59-1.69-1.24-.03-.31,0-.62,.08-.93Z"/><path class="cls-14" d="M40.39,52.41c1.59,1.88,2.22,2.71,3.97,2.98,2.63,.41,4.59-1.96,3.6-4.27-.9-2.08-3.34-4.81-5.86-4.16-1.8,.46-2.88,2.29-2.42,4.09,.13,.5,.37,.97,.72,1.37Z"/><path class="cls-14" d="M41.34,52.99c.35,.32,.81,.5,1.28,.48,.63-.02,.75-.64,.42-1.13-.3-.45-1-.97-1.55-.7-.55,.27-.57,.95-.15,1.35Z"/><path class="cls-16" d="M42.37,52.55c.54,1.75,2.11,5.93,2.27,5.93-2.2,.1-5.75-3.3-6.25-5.95-.17-.91-.17-1.89,.14-2.75,.3-.86,.93-1.56,1.67-1.71,.28-.06,.8,.44,.84,.14,.06-.52,.13,.47,1.34,4.34Z"/><path class="cls-16" d="M39.92,48.71c1.44-.76,2.21,.76,2.21,.76,1.15,.02,3.18-1.7,2.95-1.92-.61-.58-1.97-1.08-2.97-.75-1,.33-2.21,1.03-2.19,1.91Z"/><path class="cls-16" d="M44.01,50.96c.12,.16,.3,.22,.41,.15,.11-.08,.09-.27-.03-.43-.12-.16-.3-.22-.41-.15-.11,.08-.09,.27,.03,.43Z"/><path class="cls-16" d="M45.82,49.61c.12,.16,.3,.23,.4,.15,.1-.08,.09-.27-.03-.43-.12-.16-.3-.23-.41-.15-.11,.08-.09,.27,.03,.43Z"/><path class="cls-16" d="M45.75,49.22l.3-.4s.03,.45-.3,.4Z"/><path class="cls-10" d="M45.32,50.26c.47,.19,.97,.31,1.48,.37-.02,.25-.15,.48-.36,.63l-1.12-1Z"/><path class="cls-16" d="M46.29,52.41s.01-.05,0-.07c-.02-.01-.04-.01-.05,0-.4,.31-.93,.41-1.42,.28-.03,0-.05,0-.06,.03,0,.02,0,.05,.03,.06,.52,.15,1.08,.05,1.51-.29h0Z"/><path class="cls-16" d="M42.96,50.65s.03-.04,.03-.06c.02-.31,.19-.58,.45-.74,.05-.03,.07-.09,.04-.13-.03-.05-.08-.07-.13-.04,0,0,0,0,0,0-.32,.19-.52,.53-.55,.9,0,.05,.03,.1,.09,.11,0,0,0,0,0,0,.03,0,.05,0,.08-.03Z"/><path class="cls-16" d="M46.13,48.18s.03-.04,.03-.07c0-.05-.04-.1-.09-.1h0c-.37-.04-.73,.11-.97,.4-.03,.05,0,.11,.04,.13,.04,.02,.09,.01,.12-.02,.2-.23,.5-.35,.81-.32,.03,0,.05,0,.07-.03Z"/><path class="cls-16" d="M43.94,50.57l.3-.4s.03,.45-.3,.4Z"/></g><path class="cls-14" d="M42.18,60.46c.61,1.59,3.12,6.9,3.32,7.24,.1,.18,.2,.35,.31,.51l.15,.23s.06,.09,.1,.13c.92,.84,6.58,.53,7.35,1.18,.08,.29,.27,.79,.01,.95,0,0-8.93,2.39-10.01-.23-.02-.04-.04-.06-.06-.09l-.05-.08-.1-.16c-.15-.2-3.54-6.53-4.16-8.24-.27-.72,.1-1.51,.81-1.78,.72-.27,2.06-.46,2.33,.26h0v.05Z"/><g><path class="cls-14" d="M52.09,70.74l2.38,.84,.36-2.34s-1.92,.1-2.85,.62l.1,.88Z"/><path class="cls-14" d="M55.94,71.41l.05-.5c.06-.69-.33-1.33-.97-1.59l-.18-.07-.36,2.34,1.06,.15c.2,.03,.38-.11,.41-.31,0,0,0-.01,0-.02Z"/></g><path class="cls-7" d="M40.95,58.74c-.68-.14-1.41,.22-1.81,.79-.4,.57-.51,1.3-.44,2s.32,1.35,.58,2,.53,1.29,.68,1.97c1.52-.63,4.02-1.99,4.02-1.99,0,0-.71-2.54-1.42-3.64-.36-.56-.96-.99-1.61-1.13Z"/><path class="cls-1" d="M60.23,80.36h-22.92l-2.19-24.99c-.05-.57-.33-1.09-.74-1.47-.41-.38-.95-.61-1.52-.61-1.15,0-2,.93-1.9,2.08l2.19,25.08,.35,4v.06c.09,0,.16,.01,.24,.01h26.48c.57,0,1.09-.23,1.47-.61,.38-.38,.61-.9,.61-1.47,0-1.15-.93-2.08-2.08-2.08Z"/></g><g><g><g><g><g><path class="cls-7" d="M105.31,76.69s0,0-.01,0c-.05,0-.09-.05-.08-.1,0-.02,.01-.19,.03-.5,.02-.46,.06-1.42,.05-2.7,0-.02,0-.04,0-.06-.02-1.43-.09-2.84-.23-4.2-.12-1.26-.3-2.48-.53-3.64-.21-1.04-.45-2.03-.74-2.94,0,0,0,0,0,0h0c-.04-.14-.09-.28-.14-.43-.04-.12-.08-.23-.12-.35-.11-.3-.2-.59-.28-.86-.18-.59-.35-1.18-.48-1.75-.08-.34-.16-.68-.22-1-.25-1.26-.39-2.5-.42-3.7-.01-.49,0-.98,.02-1.45,.03-.52,.08-1.02,.16-1.48,0-.04,.01-.07,.02-.1v-.05s.02-.04,.03-.06c.03-.04,.09-.04,.13,0,.02,.02,.03,.06,.03,.09h0s0,.05,0,.05c0,.03-.01,.07-.02,.1-.08,.46-.13,.95-.16,1.46-.03,.47-.03,.95-.02,1.44,.03,1.19,.17,2.43,.42,3.67,.06,.32,.13,.65,.22,.99,.14,.57,.3,1.15,.48,1.73,.08,.27,.18,.55,.28,.85,.04,.12,.08,.23,.12,.35,.05,.14,.09,.29,.14,.43,0,0,0,0,0,0h0c.28,.91,.53,1.91,.74,2.96,.23,1.16,.41,2.39,.53,3.65,.13,1.36,.21,2.77,.23,4.21,0,.02,0,.04,0,.06,.01,1.28-.02,2.25-.05,2.7-.01,.31-.03,.5-.03,.51,0,.05-.04,.08-.09,.08Z"/><g><path class="cls-7" d="M102.43,51.42s0,0,0,0t0,0c.15-.15,.32-.28,.5-.38,.2-.12,.41-.21,.63-.27"/><path class="cls-7" d="M102.43,51.51s-.02,0-.04,0c-.05-.02-.07-.07-.05-.12,0-.01,.01-.02,.02-.03,0,0,0,0,0,0h0c.15-.15,.33-.28,.52-.4,.21-.12,.43-.22,.66-.28,.05-.01,.1,.01,.11,.06,.01,.05-.01,.1-.06,.11-.21,.06-.41,.15-.61,.26-.18,.11-.34,.23-.48,.37,0,0,0,0,0,0-.02,.02-.04,.03-.07,.03Z"/></g><path class="cls-7" d="M102.25,53.11s-.04,0-.06-.02l-.61-.51s-.04-.09-.01-.13c.03-.04,.09-.04,.13-.01l.61,.51s.04,.09,.01,.13c-.02,.02-.04,.03-.07,.03Z"/><path class="cls-7" d="M103.35,60.99s-.09-.05-.09-.09h0c.03-.18,.07-.34,.12-.5,.08-.22,.19-.44,.34-.63,.1-.14,.23-.28,.37-.4,.04-.03,.1-.03,.13,0,.03,.04,.03,.1,0,.13-.13,.11-.24,.23-.34,.37-.13,.18-.24,.38-.31,.59-.05,.14-.09,.29-.11,.44,0,.05-.04,.08-.09,.09h0Z"/><path class="cls-7" d="M103.89,62.62s-.07-.02-.08-.05c-.17-.38-.51-.69-.91-.82-.05-.02-.07-.07-.06-.11,.02-.05,.07-.07,.11-.06,.44,.15,.82,.49,1.01,.92,.02,.05,0,.1-.05,.12-.01,0-.02,0-.04,0Z"/><g><path class="cls-7" d="M105.28,70.71c-.21-.23-.4-1.13-.5-1.61-.02-.12-.04-.21-.06-.28"/><path class="cls-7" d="M105.28,70.8s-.05-.01-.07-.03c-.21-.23-.38-.97-.52-1.65-.02-.11-.04-.21-.06-.28-.01-.05,.02-.1,.07-.11,.05-.01,.1,.02,.11,.07,.02,.07,.04,.17,.06,.29,.09,.44,.28,1.36,.48,1.57,.03,.04,.03,.09,0,.13-.02,.02-.04,.02-.06,.02Z"/></g></g><path class="cls-7" d="M102.87,59.25s-.09-.04-.09-.08c-.01-.15-.24-3.65,1.69-5.05,.04-.03,.1-.02,.13,.02,.03,.04,.02,.1-.02,.13-1.85,1.34-1.62,4.85-1.61,4.89,0,.05-.03,.09-.08,.1,0,0,0,0,0,0Z"/><g><path class="cls-7" d="M103.03,66.87c-.22,.85,1.65,2.36,1.65,2.36,0,0,2.37-.4,2.59-1.25,.22-.85-.44-2.19-1.62-2.5-1.17-.31-2.41,.54-2.63,1.39Z"/><path class="cls-7" d="M100.58,56.81c.27,.88,2,1.43,2,1.43,0,0,1.13-1.43,.86-2.31-.27-.88-1.25-1.82-2.05-1.57-.79,.24-1.09,1.57-.82,2.45Z"/><path class="cls-7" d="M105.21,59.45c-.22,.18-.45,.36-.71,.45-.27,.09-.59,.05-.79-.15-.24-.25-.2-.67-.07-.99,.26-.64,1.27-1.76,2.09-1.49,1.19,.39-.02,1.77-.52,2.18Z"/><path class="cls-7" d="M102.88,61.17c.16,.18,.34,.42,.26,.65-.07,.21-.31,.31-.53,.29-.22-.02-.41-.14-.59-.26-.43-.27-1.3-.83-.78-1.42,.54-.61,1.3,.35,1.64,.74Z"/><path class="cls-7" d="M105.99,53c.18,.01,.36,.12,.4,.3,.04,.2-.12,.39-.28,.52-.4,.33-1.59,1.24-1.9,.43-.29-.77,1.23-1.29,1.78-1.25Z"/><path class="cls-7" d="M103.6,50.39c.26,.01,.51-.09,.76-.09,.26,0,.55,.2,.5,.45-.04,.23-.33,.32-.56,.35-.4,.04-.81,.03-1.21-.03-.09-.01-.19-.04-.25-.11-.11-.15,.05-.36,.22-.42,.17-.06,.37-.05,.53-.15h0Z"/><path class="cls-7" d="M101.18,52.25c-.26,.02-.51-.08-.76-.07-.26,.01-.54,.21-.49,.46,.05,.23,.33,.32,.57,.34,.4,.03,.81,.02,1.21-.06,.09-.02,.19-.04,.25-.12,.11-.15-.05-.36-.23-.42-.17-.06-.37-.04-.53-.14h0Z"/></g></g><path class="cls-7" d="M102.36,51.76s0,0,0,0c-.05,0-.09-.05-.08-.1,.04-.5-.02-.97-.11-1-.05-.01-.08-.06-.06-.11,.01-.05,.06-.08,.11-.06,.29,.08,.27,.86,.24,1.19,0,.05-.04,.08-.09,.08Z"/><path class="cls-7" d="M102.53,50.59c-.17-.34-.35-.7-.67-.9-.32-.21-.81-.2-1.02,.11-.23,.35,.04,.86,.43,1.03,.39,.17,.84,.09,1.25,.01,0-.06,0-.13,0-.19v-.06Z"/></g><g><g><g><path class="cls-7" d="M105.59,79.75s-.01,0-.02,0c-.05,0-.08-.06-.07-.11,.61-3.25,2.46-4.66,2.48-4.68,.04-.03,.1-.02,.13,.02,.03,.04,.02,.1-.02,.13-.02,.01-1.81,1.39-2.41,4.57,0,.04-.05,.07-.09,.07Z"/><path class="cls-7" d="M107.5,75.64s-.07-.02-.09-.06c-.02-.05,0-.1,.05-.12,.01,0,.37-.13,.96-.03,.05,0,.08,.06,.07,.1,0,.05-.06,.08-.1,.07-.53-.09-.86,.02-.86,.03-.01,0-.02,0-.03,0Z"/><path class="cls-7" d="M107.09,76.15s-.09-.04-.09-.09c-.06-1.24,.59-2.21,.62-2.25,.03-.04,.08-.05,.13-.02,.04,.03,.05,.08,.02,.13,0,0-.65,.96-.59,2.13,0,.05-.04,.09-.09,.1,0,0,0,0,0,0Z"/><path class="cls-7" d="M106.44,77.21s-.05,0-.06-.03c-.04-.03-.04-.09,0-.13,.02-.02,.53-.53,1.26-.31,.05,.02,.07,.07,.06,.11-.01,.05-.07,.07-.11,.06-.62-.19-1.07,.25-1.07,.26-.02,.02-.04,.03-.07,.03Z"/><path class="cls-7" d="M106.11,77.95s-.07-.02-.08-.05c-.01-.03-.3-.64-.19-1.54,0-.05,.05-.09,.1-.08,.05,0,.09,.05,.08,.1-.1,.84,.17,1.43,.18,1.44,.02,.05,0,.1-.04,.12-.01,0-.03,0-.04,0Z"/></g><g><path class="cls-7" d="M105.78,78.68s-.07,.08,.19,.1c.64,.04,1.77,.03,2.18-.51,.58-.78-.81-.74-.69-1.17,.12-.43,1.64-.04,1.91-.65,.28-.62-.81-.52-.77-.84,.04-.32,1.2,.13,1.56-.53,.36-.65-.63-.32-.48-.59,.15-.27,1.39-1.38,.87-1.64-.52-.27-1.68,.89-2.07,1.01-.39,.12-.52-1.05-1.02-.67-.51,.38-.11,2.15-.71,2.35-.45,.15-.22-.47-.77-.46-.75,.01-.93,2.48-.19,3.62Z"/><g class="cls-19"><path class="cls-4" d="M105.78,78.68s-.07,.08,.19,.1c.64,.04,1.77,.03,2.18-.51,.58-.78-.81-.74-.69-1.17,.12-.43,1.64-.04,1.91-.65,.28-.62-.81-.52-.77-.84,.04-.32,1.2,.13,1.56-.53,.36-.65-.63-.32-.48-.59,.15-.27,1.39-1.38,.87-1.64-.52-.27-1.68,.89-2.07,1.01-.39,.12-.52-1.05-1.02-.67-.51,.38-.11,2.15-.71,2.35-.45,.15-.22-.47-.77-.46-.75,.01-.93,2.48-.19,3.62Z"/></g></g></g><g><g><path class="cls-7" d="M105.52,79.83s-.08-.03-.09-.07c-.71-2.7-2.57-4.4-2.59-4.42-.04-.03-.04-.09,0-.13,.03-.04,.09-.04,.13,0,.02,.02,1.92,1.75,2.65,4.51,.01,.05-.02,.1-.06,.11,0,0-.02,0-.02,0Z"/><path class="cls-7" d="M103.94,76.66s-.01,0-.02,0c0,0-.01,0-.02,0h-.01c-.32-.12-.67-.17-.99-.15-.05,0-.09-.03-.1-.08,0-.05,.03-.09,.08-.1,.35-.02,.72,.04,1.07,.16,0,0,0,0,.01,0,.04,.01,.07,.06,.06,.1,0,.04-.05,.07-.09,.07Zm.03-.18s.02,0,.02,0c0,0-.01,0-.02,0Zm0,0h0Z"/><path class="cls-7" d="M104.3,77.1s0,0,0,0c-.05,0-.09-.05-.09-.1,.05-1.03-.52-1.86-.52-1.87-.03-.04-.02-.1,.02-.13,.04-.03,.1-.02,.13,.02,.02,.04,.61,.89,.56,1.98,0,.05-.04,.09-.09,.09Z"/><path class="cls-7" d="M104.68,77.69s-.04,0-.06-.02c-.02-.01-.4-.36-.94-.19-.05,.02-.1-.01-.11-.06-.01-.05,.01-.1,.06-.11,.65-.2,1.1,.21,1.12,.23,.04,.03,.04,.09,0,.13-.02,.02-.04,.03-.07,.03Z"/><path class="cls-7" d="M105.17,78.68s-.03,0-.04,0c-.05-.02-.06-.08-.04-.12,0,0,.24-.53,.15-1.27,0-.05,.03-.1,.08-.1,.05,0,.1,.03,.1,.08,.1,.79-.16,1.34-.17,1.37-.02,.03-.05,.05-.08,.05Z"/></g><g><path class="cls-7" d="M105.47,79.37c-.49,.03-1.36-.39-1.71-.82-.36-.44,.6-.2,.49-.55-.11-.35-1.27-.04-1.51-.54-.24-.5,.61-.42,.56-.68-.04-.26-.91-.17-1.22-.7-.3-.53,.48-.26,.35-.48-.13-.22-1.13-1.12-.74-1.34,.39-.21,1.34,.73,1.65,.83,.31,.1,.35-.59,.75-.28,.41,.31,.18,1.74,.65,1.91,.35,.12,.18-.52,.58-.37,.71,.26,.35,3.01,.15,3.02Z"/><g class="cls-18"><path class="cls-4" d="M105.47,79.37c-.49,.03-1.36-.39-1.71-.82-.36-.44,.6-.2,.49-.55-.11-.35-1.27-.04-1.51-.54-.24-.5,.61-.42,.56-.68-.04-.26-.91-.17-1.22-.7-.3-.53,.48-.26,.35-.48-.13-.22-1.13-1.12-.74-1.34,.39-.21,1.34,.73,1.65,.83,.31,.1,.35-.59,.75-.28,.41,.31,.18,1.74,.65,1.91,.35,.12,.18-.52,.58-.37,.71,.26,.35,3.01,.15,3.02Z"/></g></g></g></g></g><g><path class="cls-16" d="M109.42,80.33c0,2.39,1.06,4.34-4.34,4.34-4.79,0-4.34-1.94-4.34-4.34s1.94-3.07,4.34-3.07,4.34,.68,4.34,3.07Z"/><rect class="cls-16" x="100.29" y="77.21" width="9.6" height="2.38"/></g></g><g><g><g><path class="cls-4" d="M55.17,41.06c-.41,0-.81-.15-1.14-.41-.38-.31-.62-.75-.67-1.23-.1-1,.63-1.9,1.63-2.01,.49-.05,.96,.09,1.34,.4,.38,.31,.62,.75,.67,1.23,.05,.49-.09,.96-.4,1.34-.31,.38-.75,.62-1.23,.67-.07,0-.14,.01-.2,0Z"/><path class="cls-7" d="M55.18,41.18h-.01c-.44,0-.86-.15-1.21-.44-.4-.33-.65-.79-.71-1.31-.11-1.07,.67-2.02,1.74-2.13,.52-.05,1.02,.1,1.43,.43,.4,.33,.65,.79,.71,1.31,.05,.52-.1,1.02-.43,1.43-.33,.4-.79,.65-1.31,.71-.07,0-.14,.01-.21,.01Zm0-.23c.06,0,.13,0,.19,0,.46-.05,.87-.27,1.15-.62,.29-.36,.42-.8,.38-1.26-.05-.46-.27-.87-.62-1.15-.36-.29-.8-.42-1.26-.38-.94,.1-1.63,.94-1.53,1.88,.05,.46,.27,.87,.62,1.15,.31,.25,.67,.38,1.07,.38h0Z"/></g><g><path class="cls-4" d="M51.51,44.24c-.26,0-.51-.09-.71-.26-.24-.19-.39-.47-.42-.77-.06-.63,.39-1.2,1.02-1.26,.3-.03,.6,.06,.84,.25,.24,.19,.39,.47,.42,.77,.03,.31-.06,.6-.25,.84-.19,.24-.47,.39-.77,.42-.04,0-.09,0-.13,0Z"/><path class="cls-7" d="M51.52,44.35h-.01c-.29,0-.56-.1-.79-.28-.26-.21-.43-.51-.46-.85-.07-.69,.43-1.32,1.13-1.39,.34-.03,.67,.07,.93,.28,.26,.21,.43,.52,.46,.85,.03,.34-.06,.66-.28,.93-.21,.26-.52,.43-.85,.46-.04,0-.09,0-.13,0Zm0-2.3s-.07,0-.1,0c-.57,.06-.98,.57-.92,1.13,.03,.27,.16,.52,.38,.7,.18,.15,.41,.23,.64,.23,0,0,0,0,.01,0,.03,0,.07,0,.1,0,.27-.03,.52-.16,.7-.38,.17-.21,.25-.48,.23-.76-.03-.27-.16-.52-.38-.7-.19-.15-.41-.23-.65-.23Z"/></g></g><g><path class="cls-4" d="M75.29,38.99c-3.95,.65-8.02-.62-10.9-3.42-.14,.03-.28,.05-.42,.08-6.08,1.01-11.85-3.12-12.86-9.2-1.01-6.08,3.12-11.85,9.2-12.86,.36-.06,.73-.1,1.1-.13,2.06-3.31,7.85-4.84,12.76-4.84,6.92,0,10.95,2.44,13.97,5.9,3.94,2.01,5.02,5.71,5.36,8.53,.69,5.8-3.4,11.95-10.29,13.09-.65,.11-1.33,.16-2.01,.17-1.7,1.39-3.75,2.32-5.93,2.68Z"/><path class="cls-7" d="M73.25,39.27c-3.28,0-6.49-1.27-8.89-3.57-.12,.02-.24,.05-.36,.07-2.97,.49-5.96-.21-8.42-1.96-2.46-1.76-4.08-4.36-4.57-7.34-.49-2.97,.21-5.96,1.96-8.42,1.76-2.46,4.36-4.08,7.34-4.57,.34-.06,.7-.1,1.06-.12,2.13-3.34,7.97-4.84,12.83-4.84,6.13,0,10.46,1.83,14.04,5.92,3.13,1.61,4.9,4.43,5.4,8.61,.35,2.89-.5,5.94-2.32,8.38-1.93,2.58-4.79,4.3-8.06,4.84-.65,.11-1.31,.16-1.99,.17-1.71,1.39-3.77,2.31-5.95,2.68-.69,.11-1.38,.17-2.06,.17Zm-8.85-3.82s.06,.01,.08,.03c2.85,2.77,6.89,4.03,10.8,3.39l.02,.11-.02-.11c2.15-.36,4.19-1.27,5.87-2.65,.02-.02,.05-.03,.07-.03,.67,0,1.34-.06,1.99-.17,7.21-1.19,10.84-7.53,10.19-12.96-.49-4.11-2.22-6.87-5.3-8.44-.01,0-.02-.02-.03-.03-3.53-4.05-7.81-5.86-13.88-5.86-4.82,0-10.6,1.48-12.66,4.78-.02,.03-.05,.05-.09,.05-.37,.02-.74,.07-1.09,.12-2.91,.48-5.46,2.07-7.19,4.48s-2.41,5.33-1.92,8.25c.48,2.91,2.07,5.46,4.48,7.19,2.41,1.72,5.33,2.41,8.25,1.92,.14-.02,.28-.05,.41-.08,0,0,.02,0,.02,0Z"/></g><g><path class="cls-4" d="M44.16,35.38c-1.15,.19-2.34-.18-3.18-1-.04,0-.08,.02-.12,.02-1.78,.29-3.46-.91-3.75-2.69-.29-1.78,.91-3.46,2.69-3.75,.1-.02,.21-.03,.32-.04,.54-1.33,1.75-2.29,3.16-2.53,1.8-.3,3.6,.64,4.4,2.27,.99,.55,1.66,1.51,1.85,2.62,.33,2.01-1.03,3.92-3.04,4.25-.19,.03-.39,.05-.59,.05-.5,.41-1.1,.68-1.73,.78Z"/><path class="cls-7" d="M43.56,35.54c-.96,0-1.91-.37-2.62-1.04-.02,0-.04,0-.07,.01-.89,.15-1.78-.06-2.52-.59-.73-.53-1.22-1.31-1.37-2.19-.3-1.84,.94-3.58,2.78-3.88,.08-.01,.17-.02,.26-.03,.57-1.33,1.79-2.3,3.22-2.53,1.83-.3,3.68,.64,4.5,2.3,1,.57,1.69,1.55,1.88,2.69,.34,2.07-1.06,4.04-3.14,4.38-.18,.03-.37,.05-.56,.05-.51,.4-1.11,.67-1.75,.78h0c-.2,.03-.41,.05-.62,.05Zm.6-.16h0Zm-3.18-1.11s.06,.01,.08,.03c.81,.79,1.96,1.15,3.08,.97h0c.61-.1,1.19-.36,1.68-.76,.02-.02,.05-.03,.07-.03,.19,0,.38-.02,.57-.05,.94-.16,1.77-.67,2.32-1.45,.56-.78,.78-1.73,.62-2.67-.18-1.08-.83-2.01-1.79-2.54-.02-.01-.04-.03-.05-.05-.77-1.59-2.53-2.5-4.27-2.21-1.37,.23-2.55,1.17-3.07,2.46-.02,.04-.06,.07-.1,.07-.11,0-.21,.02-.31,.04-1.71,.28-2.88,1.91-2.59,3.62,.28,1.71,1.91,2.87,3.62,2.59,.04,0,.08-.01,.12-.02,0,0,.02,0,.02,0Z"/></g><g><path class="cls-4" d="M97.4,43.68c-1.23,.2-2.5-.19-3.4-1.07-.04,0-.09,.02-.13,.02-1.9,.31-3.7-.97-4.01-2.87-.31-1.9,.97-3.7,2.87-4.01,.11-.02,.23-.03,.34-.04,.58-1.42,1.87-2.45,3.38-2.7,1.92-.32,3.85,.68,4.7,2.43,1.06,.59,1.78,1.61,1.98,2.81,.36,2.15-1.1,4.19-3.25,4.54-.2,.03-.41,.05-.63,.05-.53,.43-1.17,.72-1.85,.84Z"/><path class="cls-7" d="M96.76,43.85c-1.03,0-2.04-.39-2.8-1.11-.03,0-.05,0-.08,.01-.95,.16-1.9-.07-2.69-.63-.78-.56-1.3-1.39-1.46-2.34-.16-.95,.07-1.9,.63-2.69,.56-.78,1.39-1.3,2.34-1.46,.09-.02,.19-.03,.28-.04,.6-1.42,1.91-2.45,3.44-2.71,1.96-.32,3.93,.69,4.81,2.46,1.07,.61,1.8,1.65,2,2.87,.37,2.21-1.14,4.31-3.35,4.67-.2,.03-.4,.05-.6,.05-.54,.43-1.19,.72-1.87,.83-.22,.04-.44,.05-.66,.05Zm-2.76-1.35s.06,.01,.08,.03c.87,.85,2.11,1.23,3.3,1.03h0c.66-.11,1.28-.39,1.8-.81,.02-.02,.05-.03,.07-.03,.21,0,.41-.02,.61-.05,2.09-.35,3.5-2.32,3.16-4.41-.19-1.16-.89-2.15-1.92-2.72-.02-.01-.04-.03-.05-.05-.83-1.7-2.71-2.68-4.58-2.37-1.47,.24-2.73,1.25-3.29,2.63-.02,.04-.06,.07-.1,.07-.11,0-.23,.02-.33,.04-.89,.15-1.67,.63-2.19,1.37-.53,.73-.73,1.63-.59,2.51,.15,.89,.63,1.67,1.37,2.19,.73,.52,1.63,.73,2.51,.59,.04,0,.08-.01,.13-.02,0,0,.02,0,.02,0Z"/></g><circle class="cls-7" cx="61.28" cy="23.43" r="1.62"/><circle class="cls-7" cx="57.09" cy="27.77" r="1.62"/><circle class="cls-7" cx="43.64" cy="30.43" r="1.62"/><circle class="cls-16" cx="87.76" cy="23.43" r="1.62"/><circle class="cls-7" cx="61.24" cy="27.77" r="1.62"/><path class="cls-16" d="M72.71,23.57c0,.89-.72,1.62-1.62,1.62s-1.62-.72-1.62-1.62,.72-1.62,1.62-1.62,1.62,.72,1.62,1.62Z"/><path class="cls-16" d="M72.71,27.9c0,.89-.72,1.62-1.62,1.62s-1.62-.72-1.62-1.62,.72-1.62,1.62-1.62,1.62,.72,1.62,1.62Z"/><circle class="cls-16" cx="71.09" cy="32.55" r="1.62"/><circle class="cls-7" cx="83.61" cy="23.43" r="1.62"/><circle class="cls-7" cx="83.61" cy="27.77" r="1.62"/><circle class="cls-7" cx="87.76" cy="27.77" r="1.62"/><circle class="cls-7" cx="96.9" cy="38.35" r="1.62"/><path class="cls-7" d="M76.15,17.6h-6.08c-.06,0-.12-.05-.12-.12s.05-.12,.12-.12h6.08c.06,0,.12,.05,.12,.12s-.05,.12-.12,.12Z"/><path class="cls-7" d="M62.78,17.6h-5.41c-.06,0-.12-.05-.12-.12s.05-.12,.12-.12h5.41c.06,0,.12,.05,.12,.12s-.05,.12-.12,.12Z"/><path class="cls-7" d="M88.28,17.6h-5.19c-.06,0-.12-.05-.12-.12s.05-.12,.12-.12h5.19c.06,0,.12,.05,.12,.12s-.05,.12-.12,.12Z"/></g><g><path class="cls-7" d="M73.43,32.66c-.06,0-.12-.05-.12-.12s.05-.12,.12-.12c.71,0,1.22-.18,1.57-.54,.41-.43,.59-1.12,.55-2.12,0-.06,.05-.12,.11-.12,.06,0,.12,.05,.12,.11,.04,1.07-.16,1.81-.61,2.29-.39,.4-.97,.61-1.73,.61Z"/><path class="cls-7" d="M76.93,29.99s-.06-.01-.08-.03l-1.19-1.19-1.19,1.19s-.12,.05-.16,0-.05-.12,0-.16l1.27-1.27s.12-.04,.16,0l1.27,1.27s.05,.12,0,.16c-.02,.02-.05,.03-.08,.03Z"/><g><path class="cls-7" d="M96.85,32s0,0,0,0c-.06,0-.11-.06-.11-.12,.22-2.74-.44-5.3-1.76-6.83-.85-.99-1.92-1.53-3.18-1.63-.06,0-.11-.06-.11-.12,0-.06,.06-.11,.12-.11,1.32,.1,2.45,.67,3.34,1.71,1.36,1.58,2.04,4.2,1.82,7,0,.06-.06,.11-.11,.11Z"/><path class="cls-7" d="M92.22,24.75s-.06-.01-.08-.03l-1.27-1.27s-.03-.05-.03-.08,.01-.06,.03-.08l1.27-1.27s.12-.05,.16,0c.05,.04,.05,.12,0,.16l-1.18,1.19,1.19,1.18s.05,.12,0,.16c-.02,.02-.05,.03-.08,.03Z"/></g><g><path class="cls-7" d="M76.12,22.43s-.04,0-.06-.02c-.06-.03-.07-.1-.04-.16,.62-1.09,1.7-1.87,3.1-2.25,2.3-.62,5.37-.11,7.83,1.31,.06,.03,.07,.1,.04,.16-.03,.06-.1,.07-.16,.04-2.4-1.39-5.41-1.89-7.65-1.28-1.34,.36-2.36,1.1-2.96,2.14-.02,.04-.06,.06-.1,.06Z"/><path class="cls-7" d="M75.81,23.23s-.09-.03-.11-.08l-.6-1.69c-.02-.06,.01-.13,.07-.15,.06-.02,.13,.01,.15,.07l.56,1.58,1.58-.56c.06-.02,.13,.01,.15,.07,.02,.06-.01,.13-.07,.15l-1.69,.6s-.03,0-.04,0Z"/></g><g><path class="cls-7" d="M45.08,24.76s-.02,0-.02,0c-.06-.01-.1-.07-.09-.14,.46-2.23,9.52-1.49,9.91-1.46,.06,0,.11,.06,.11,.12,0,.06-.06,.11-.12,.11-2.57-.22-9.32-.41-9.66,1.28-.01,.05-.06,.09-.11,.09Z"/><path class="cls-7" d="M54.46,24.72s-.06-.01-.08-.03c-.04-.05-.04-.12,0-.16l1.19-1.18-1.18-1.19s-.04-.12,0-.16c.05-.04,.12-.05,.16,0l1.27,1.27s.04,.12,0,.16l-1.27,1.27s-.05,.03-.08,.03Z"/></g></g></svg>