<?xml version="1.0" encoding="UTF-8"?><svg id="Camada_1" xmlns="http://www.w3.org/2000/svg" viewBox="0 0 136.41 91"><defs><style>.cls-1,.cls-2{fill:#ececec;}.cls-3{fill:#ffbf9d;}.cls-4{fill:#ff9a6c;}.cls-5{fill:#e8505b;}.cls-6{fill:#e1e1e1;}.cls-7{fill:#375a64;}.cls-8{fill:#1a2e35;}.cls-9{opacity:.2;}.cls-10{opacity:.3;}.cls-11{opacity:.4;}.cls-12{opacity:.5;}.cls-13{fill:#f5f5f5;}.cls-13,.cls-2{fill-rule:evenodd;}</style></defs><g><g><path class="cls-1" d="M36.84,32.09s-1.17-.96-3,1.88c-1.83,2.84-2.59,4.51-2.59,4.51,0,0-.47,.59-.86,.13-.39-.45-.86-1.68-1.61-1.54-.78,.14-1.12,.96-1.1,2.22,.02,1.26-.05,4.03-.05,4.28,0,.25-.18,.59-.5,.32-.31-.27-2.04-2.64-3.12-1.75-1.07,.89-.45,4.39-.39,4.78,.06,.38-.03,.54-.22,.61-.19,.07-.69-.78-1.21-1.43-.52-.65-1.23-1.32-1.81-.76-.58,.56-1,3.1,1,7.5l1.06,1.98,2.25,.11c4.84-.07,6.95-1.54,7.21-2.3,.26-.76-.65-1.12-1.46-1.31-.81-.19-1.8-.28-1.81-.48-.01-.2,.09-.35,.46-.46,.37-.11,3.81-1.04,4.15-2.4,.34-1.35-2.54-1.9-2.91-2.07-.38-.17-.14-.48,.08-.59,.22-.11,2.7-1.35,3.84-1.88,1.15-.52,1.75-1.18,1.54-1.95-.2-.74-1.51-.64-2.09-.8-.58-.16-.25-.83-.25-.83,0,0,1.18-1.4,2.97-4.27,1.78-2.87,.38-3.53,.38-3.53"/><path class="cls-6" d="M22.06,55.19c1.32-2.1,3.72-5.81,5.77-8.99,2.05-3.19,3.9-6.07,5.22-8.17,.66-1.05,1.2-1.9,1.57-2.49,.18-.29,.33-.52,.43-.68,.05-.07,.09-.13,.11-.17,.03-.04,.04-.06,.04-.06,0,0-.01,.02-.03,.06-.03,.04-.06,.1-.11,.18-.1,.16-.24,.39-.42,.68-.36,.59-.89,1.45-1.55,2.5-1.32,2.1-3.16,5-5.21,8.18-2.05,3.19-4.46,6.89-5.78,8.98"/><path class="cls-6" d="M29.37,38.81s.02,.06,.04,.16c.02,.1,.05,.25,.08,.43,.06,.37,.14,.88,.22,1.44,.07,.56,.14,1.06,.18,1.45,.02,.17,.04,.32,.06,.44,.01,.1,.02,.16,.02,.16,0,0-.02-.06-.04-.16-.02-.1-.05-.25-.08-.43-.06-.37-.13-.88-.2-1.44-.07-.56-.14-1.06-.19-1.44-.02-.17-.04-.32-.06-.44-.01-.1-.02-.16-.01-.16Z"/><path class="cls-6" d="M30.17,42.95s1.04-.22,2.33-.45c1.29-.23,2.34-.41,2.35-.39,0,.02-1.04,.22-2.33,.45-1.29,.23-2.34,.41-2.34,.39Z"/><path class="cls-6" d="M26.8,47.7s.06,0,.17,0c.12,.01,.27,.03,.45,.05,.38,.04,.9,.09,1.48,.13,.58,.04,1.1,.05,1.48,.06,.18,0,.33,0,.45,.01,.11,0,.17,0,.17,.01,0,0-.06,.01-.17,.02-.11,0-.26,0-.45,.01-.38,0-.91,0-1.49-.04-.58-.04-1.1-.1-1.48-.15-.19-.03-.34-.05-.45-.07-.1-.02-.16-.03-.16-.04Z"/><path class="cls-6" d="M25.26,44.12s.03,.05,.07,.13c.05,.1,.11,.23,.18,.38,.15,.32,.35,.76,.57,1.25,.22,.49,.41,.94,.55,1.26,.06,.15,.12,.28,.16,.38,.04,.09,.05,.14,.05,.15,0,0-.03-.05-.07-.13-.05-.1-.11-.23-.18-.38-.15-.32-.35-.76-.57-1.25-.22-.49-.41-.94-.55-1.26-.06-.15-.12-.28-.16-.38-.04-.09-.05-.14-.05-.15Z"/><path class="cls-6" d="M21.76,47.93s.04,.06,.09,.17c.06,.13,.14,.29,.23,.48,.19,.41,.46,.97,.74,1.6,.29,.63,.54,1.19,.72,1.61,.09,.2,.16,.36,.21,.49,.05,.12,.07,.18,.07,.18,0,0-.04-.06-.09-.17-.06-.13-.14-.29-.23-.48-.19-.41-.46-.97-.74-1.6-.29-.63-.54-1.19-.72-1.61-.09-.2-.16-.36-.21-.49-.05-.12-.07-.18-.07-.18Z"/><path class="cls-6" d="M23.81,52.34s.08,0,.21,0c.15,.01,.34,.02,.57,.04,.48,.03,1.15,.08,1.88,.1,.74,.03,1.4,.04,1.89,.04,.23,0,.42,0,.57,0,.14,0,.21,0,.21,0,0,0-.07,.01-.21,.02-.13,0-.33,.01-.57,.02-.48,.01-1.15,.01-1.89-.02-.74-.03-1.4-.08-1.88-.12-.24-.02-.43-.04-.57-.06-.13-.02-.21-.03-.21-.03Z"/></g><g><g><path class="cls-6" d="M18.45,40.05s.02,.36-.06,1.03c-.09,.66-.3,1.66-.94,2.76l-.02-.04h0s.04,0,.04,0l-.02,.04c-1.36,2.41-3.4,6.03-5.85,10.37l-.04,.06-.04-.06c-1.86-2.97-3.96-6.32-6.18-9.86-.1-.17-.21-.33-.3-.49l-.05-.08h.09s0,0,0,0l-.04,.07c-.47-.81-.79-1.7-.93-2.6-.07-.45-.11-.91-.09-1.35,.01-.22,.02-.45,.04-.67,.03-.22,.07-.44,.1-.66,.34-1.74,1.28-3.27,2.52-4.31,.62-.52,1.32-.92,2.03-1.19l.27-.1,.13-.05,.14-.04c.18-.05,.36-.1,.54-.14,.37-.06,.73-.13,1.09-.13,.36-.03,.71,0,1.06,.02,.17,.01,.34,.05,.51,.08,.08,.01,.17,.03,.25,.04,.08,.02,.16,.04,.24,.06,.16,.04,.32,.09,.48,.13,.15,.06,.3,.12,.45,.17,.07,.03,.15,.05,.22,.09,.07,.04,.14,.07,.21,.11,.14,.07,.28,.14,.41,.21,1.06,.62,1.85,1.42,2.4,2.22,.55,.8,.86,1.59,1.05,2.24,.08,.33,.16,.62,.18,.88,.04,.26,.07,.48,.07,.66,0,.18,.01,.31,.01,.41,0,.09,0,.14,0,.14,0,0,0-.05-.01-.14,0-.09-.01-.23-.02-.41,0-.18-.04-.4-.08-.65-.03-.26-.11-.55-.19-.88-.19-.65-.5-1.43-1.05-2.22-.55-.79-1.34-1.58-2.39-2.19-.14-.07-.27-.14-.41-.21-.07-.03-.14-.07-.21-.1-.07-.03-.15-.06-.22-.09-.15-.06-.3-.11-.45-.17-.16-.04-.31-.08-.47-.13-.08-.02-.16-.04-.24-.06-.08-.01-.17-.03-.25-.04-.17-.02-.33-.06-.5-.07-.34-.02-.69-.05-1.05-.02-.36,0-.71,.08-1.08,.13-.18,.05-.36,.09-.54,.14l-.14,.04-.13,.05-.27,.1c-.71,.28-1.39,.67-2.01,1.18-1.22,1.04-2.15,2.54-2.49,4.26-.03,.22-.07,.43-.1,.65-.01,.22-.02,.44-.04,.66-.02,.44,.02,.89,.09,1.34,.14,.89,.45,1.77,.92,2.57l.04,.07h-.09s0,0,0,0l.04-.08c.1,.15,.2,.32,.3,.49,2.21,3.54,4.31,6.89,6.17,9.86h-.08c2.46-4.32,4.51-7.94,5.88-10.35l.02,.04h-.05s.02-.04,.02-.04c.64-1.09,.86-2.08,.96-2.74,.05-.33,.06-.59,.07-.76,0-.08,0-.15,0-.2,0-.04,0-.07,0-.07Z"/><path class="cls-6" d="M15.83,39.97s0-.03,0-.07c0-.05,0-.13-.02-.22,0-.05,0-.1,0-.16,0-.06-.02-.12-.03-.19-.02-.14-.04-.3-.1-.47-.08-.35-.25-.77-.5-1.21-.26-.44-.64-.9-1.15-1.29-.51-.39-1.16-.71-1.9-.85-.74-.13-1.58-.11-2.38,.19-.2,.06-.39,.16-.59,.26-.19,.11-.38,.21-.56,.36-.18,.13-.35,.28-.51,.43-.15,.17-.31,.33-.44,.52-.27,.37-.51,.79-.65,1.24-.15,.45-.23,.93-.24,1.43,0,.49,.08,.97,.23,1.43,.14,.46,.37,.87,.64,1.25,.13,.19,.29,.36,.44,.53,.17,.15,.33,.31,.51,.44,.17,.14,.37,.25,.55,.36,.2,.09,.39,.2,.59,.26,.8,.31,1.63,.33,2.38,.21,.75-.13,1.4-.46,1.91-.84,.52-.39,.9-.84,1.16-1.28,.26-.44,.43-.85,.51-1.21,.05-.17,.08-.33,.1-.47,.01-.07,.02-.13,.03-.19,0-.06,0-.11,.01-.16,0-.09,.01-.16,.02-.22,0-.05,0-.07,0-.07s0,.03,0,.07c0,.05,0,.13,0,.22,0,.05,0,.1,0,.16,0,.06-.02,.12-.03,.19-.02,.14-.04,.3-.09,.48-.08,.36-.24,.78-.5,1.23-.26,.45-.64,.91-1.16,1.31-.52,.39-1.18,.73-1.94,.86-.75,.13-1.61,.11-2.42-.2-.21-.07-.4-.17-.6-.26-.19-.11-.39-.22-.57-.36-.19-.13-.35-.29-.52-.45-.16-.17-.32-.34-.45-.54-.27-.38-.51-.81-.66-1.27-.15-.46-.23-.96-.23-1.46,0-.5,.09-.99,.24-1.46,.15-.47,.39-.89,.66-1.27,.13-.19,.3-.36,.45-.53,.17-.15,.34-.31,.53-.44,.18-.14,.38-.25,.57-.36,.2-.1,.4-.2,.6-.26,.82-.3,1.67-.32,2.42-.19,.76,.14,1.41,.48,1.93,.87,.52,.4,.9,.87,1.16,1.31,.26,.45,.42,.87,.49,1.23,.05,.18,.07,.34,.09,.48,0,.07,.02,.13,.02,.19,0,.06,0,.11,0,.16,0,.09,0,.16,0,.22,0,.05,0,.07,0,.07Z"/></g><polygon class="cls-6" points="11.17 42.09 8.52 40.24 9.16 39.31 10.94 40.56 13.25 37.63 14.13 38.33 11.17 42.09"/></g><path class="cls-13" d="M85.48,7.79c.78,.1,1.54,.3,2.26,.6l1.66-1.39,2.85,2.17-.9,1.97c.47,.61,.87,1.29,1.18,2.02l2.16,.19,.48,3.55-2.03,.76c-.1,.79-.3,1.54-.6,2.26l1.39,1.66-2.17,2.85-1.97-.9c-.61,.47-1.29,.87-2.02,1.18l-.19,2.16-3.55,.48-.76-2.03c-.79-.1-1.54-.3-2.26-.6l-1.66,1.39-2.85-2.17,.9-1.97c-.47-.61-.87-1.29-1.18-2.02l-2.16-.19-.48-3.55,2.03-.76c.1-.79,.3-1.54,.6-2.26l-1.39-1.66,2.17-2.85,1.97,.9c.61-.47,1.29-.87,2.02-1.18l.19-2.16,3.55-.48,.76,2.03h0Zm-1.07,4.9c-2.44,.09-4.18,2.37-3.61,4.75,.42,1.76,2.06,3,3.86,2.94,2.44-.09,4.18-2.37,3.61-4.74-.42-1.76-2.05-3.01-3.86-2.94Z"/><path class="cls-2" d="M53.15,19.14c.51,.06,1,.2,1.47,.39l1.08-.9,1.85,1.41-.58,1.28c.31,.4,.57,.84,.76,1.31l1.4,.12,.31,2.3-1.32,.49c-.06,.51-.2,1-.39,1.47l.9,1.08-1.41,1.85-1.28-.58c-.4,.31-.84,.57-1.31,.76l-.12,1.4-2.31,.31-.49-1.32c-.51-.06-1-.2-1.47-.39l-1.08,.9-1.85-1.41,.58-1.28c-.31-.4-.57-.84-.76-1.31l-1.4-.12-.31-2.3,1.32-.49c.06-.51,.2-1,.39-1.47l-.9-1.08,1.41-1.85,1.28,.58c.4-.31,.84-.57,1.31-.76l.12-1.4,2.3-.31,.49,1.32h0Zm-.69,3.18c-1.59,.06-2.71,1.54-2.35,3.08,.27,1.14,1.34,1.95,2.51,1.91,1.58-.06,2.71-1.54,2.34-3.08-.27-1.14-1.33-1.95-2.51-1.91Z"/><g><path class="cls-1" d="M72.49,35.99s.34,.13,.83,.55c.48,.42,1.1,1.21,1.29,2.37,.09,.58,.07,1.24-.14,1.89-.22,.65-.6,1.31-1.19,1.82-.29,.26-.63,.48-1,.65-.37,.18-.77,.3-1.19,.35-.84,.12-1.75-.04-2.54-.47-.79-.44-1.41-1.11-1.76-1.89-.18-.38-.3-.79-.35-1.19-.06-.4-.05-.81,.01-1.19,.11-.77,.47-1.45,.9-1.99,.44-.54,.99-.9,1.52-1.14,1.08-.47,2.09-.37,2.7-.19,.62,.19,.91,.41,.91,.41-.01,.03-.32-.17-.94-.32-.6-.15-1.57-.22-2.61,.25-.51,.23-1.03,.59-1.44,1.11-.4,.51-.74,1.16-.84,1.9-.06,.36-.06,.75,0,1.13,.05,.38,.16,.77,.33,1.13,.33,.73,.92,1.37,1.67,1.78,.75,.4,1.6,.56,2.4,.45,.4-.05,.78-.16,1.13-.32,.35-.16,.67-.36,.95-.61,.56-.48,.93-1.11,1.15-1.72,.21-.62,.24-1.25,.16-1.81-.16-1.12-.74-1.9-1.19-2.33-.46-.44-.79-.59-.77-.62Z"/><path class="cls-1" d="M76.79,32.74s0-.05,.03-.14c.03-.1,.06-.24,.11-.42,.1-.38,.25-.93,.45-1.64l.02,.04c-.85-.46-1.96-1.06-3.31-1.79h.07c-.45,.5-.96,1.08-1.5,1.69l-.03,.03h-.04c-.74-.19-1.56-.29-2.42-.27h-.05s-.02-.04-.02-.04c-.35-.62-.72-1.29-1.11-1.98l.1,.04c-1.14,.33-2.34,.69-3.61,1.06l.07-.09c.04,.7,.09,1.48,.14,2.27v.06s-.05,.03-.05,.03c-.65,.39-1.31,.9-1.89,1.52l-.04,.04-.06-.02c-.68-.19-1.42-.41-2.18-.62l.12-.05c-.57,1.04-1.18,2.15-1.8,3.3l-.02-.13c.53,.47,1.11,.98,1.7,1.5l.05,.04-.02,.06c-.18,.74-.28,1.57-.26,2.41v.07s-.06,.03-.06,.03c-.62,.35-1.3,.72-1.99,1.1l.05-.13c.33,1.14,.69,2.37,1.05,3.61l-.12-.08c.72-.04,1.49-.09,2.27-.14h.07s.04,.06,.04,.06c.4,.66,.91,1.31,1.51,1.89h0s0,0,0,0c.01,.05-.03-.12,.03,.12h0s0,0,0,0h0s0,.03,0,.03v.03s-.03,.07-.03,.07l-.04,.14-.08,.27-.16,.55c-.1,.36-.21,.73-.31,1.09l-.06-.13c1.11,.61,2.21,1.21,3.3,1.81l-.14,.02c.51-.57,1.01-1.14,1.51-1.7l.05-.05,.07,.02c.8,.2,1.61,.28,2.41,.26h.07s.03,.06,.03,.06c.37,.67,.74,1.33,1.1,1.99l-.13-.05c1.23-.36,2.44-.71,3.61-1.05l-.08,.11c-.05-.77-.09-1.53-.14-2.27v-.06s.05-.03,.05-.03c.71-.43,1.35-.94,1.89-1.51l.04-.04,.06,.02c.75,.22,1.47,.42,2.18,.63l-.11,.05c.64-1.16,1.24-2.25,1.81-3.29l.02,.11c-.6-.53-1.16-1.03-1.7-1.51l-.04-.03v-.05c.22-.84,.3-1.65,.28-2.41v-.05s.04-.02,.04-.02c.72-.4,1.37-.76,1.99-1.1l-.03,.08c-.4-1.4-.74-2.59-1.04-3.61l.05,.04c-.91,.05-1.65,.09-2.27,.12h-.02s-.01-.02-.01-.02c-.42-.71-.82-1.18-1.09-1.48-.13-.14-.24-.25-.31-.33-.07-.08-.1-.11-.1-.11,0,0,.04,.03,.12,.1,.07,.07,.18,.17,.32,.32,.28,.3,.69,.76,1.13,1.47l-.03-.02c.62-.04,1.36-.09,2.27-.15h.04s.01,.04,.01,.04c.3,1.02,.65,2.21,1.07,3.6l.02,.05-.05,.03c-.61,.34-1.26,.71-1.98,1.11l.04-.07c.02,.78-.05,1.6-.26,2.46l-.03-.08c.54,.48,1.1,.97,1.7,1.5l.05,.05-.03,.06c-.57,1.04-1.17,2.14-1.8,3.3l-.04,.07-.07-.02c-.71-.2-1.44-.41-2.18-.62l.1-.03c-.56,.59-1.21,1.11-1.93,1.55l.05-.09c.05,.74,.09,1.5,.14,2.27v.08s-.08,.02-.08,.02c-1.17,.34-2.38,.7-3.61,1.06l-.08,.02-.04-.08c-.36-.65-.73-1.31-1.1-1.99l.1,.06c-.82,.02-1.65-.07-2.47-.27l.11-.03c-.5,.56-1,1.13-1.5,1.7l-.06,.07-.08-.04c-1.08-.59-2.18-1.2-3.3-1.81l-.08-.04,.03-.09c.1-.36,.21-.72,.31-1.09l.16-.55,.08-.27,.04-.14,.02-.07v-.03s.01-.02,.01-.02h0s0-.01,0-.01h0c.06,.23,.02,.06,.03,.11h0s0,0,0,0c-.62-.59-1.14-1.26-1.55-1.93l.11,.06c-.78,.05-1.55,.09-2.27,.14h-.09s-.03-.08-.03-.08c-.36-1.24-.72-2.47-1.05-3.61l-.03-.09,.08-.04c.69-.38,1.37-.76,1.99-1.1l-.06,.1c-.02-.86,.08-1.71,.27-2.46l.03,.11c-.59-.52-1.17-1.04-1.7-1.51l-.06-.06,.04-.08c.63-1.14,1.24-2.26,1.81-3.29l.04-.07,.08,.02c.76,.22,1.51,.43,2.18,.63l-.1,.03c.6-.63,1.27-1.15,1.93-1.55l-.05,.09c-.05-.79-.09-1.57-.13-2.27v-.07s.07-.02,.07-.02c1.27-.37,2.47-.71,3.61-1.04l.06-.02,.03,.06c.38,.7,.75,1.37,1.1,1.99l-.07-.04c.87-.02,1.7,.09,2.45,.28l-.07,.02c.54-.61,1.05-1.18,1.51-1.69l.03-.04,.04,.02c1.34,.74,2.44,1.36,3.29,1.83h.03s0,.04,0,.04c-.21,.7-.37,1.24-.48,1.61-.05,.18-.1,.31-.13,.42-.03,.09-.05,.14-.05,.14Z"/></g><g><polygon class="cls-1" points="85.63 36.51 82.35 23.49 95.68 23.27 85.63 36.51"/><rect class="cls-1" x="97.78" y="22.76" width="7.57" height="30.62" transform="translate(9.84 95.96) rotate(-52.81)"/></g></g><g><path class="cls-5" d="M109.46,69.81l1.69,3.84s-3.33,3.01-3.09,3.75l7.56-3.01-2.39-6.09-3.77,1.52Z"/><path class="cls-12" d="M109.46,69.81l1.69,3.84s-3.33,3.01-3.09,3.75l7.56-3.01-2.39-6.09-3.77,1.52Z"/><path class="cls-8" d="M115.63,74.38l-.27-.6-7.15,3.12s-.28,.28-.15,.5l7.56-3.01Z"/><path class="cls-5" d="M122.77,75.24l2.12,3.62s-2.97,3.37-2.64,4.08l7.17-3.86-3.07-5.78-3.57,1.94Z"/><path class="cls-12" d="M122.77,75.24l2.12,3.62s-2.97,3.37-2.64,4.08l7.17-3.86-3.07-5.78-3.57,1.94Z"/><path class="cls-8" d="M129.42,79.08l-.33-.57-6.75,3.91s-.24,.31-.09,.52l7.17-3.86Z"/><g><g><g><path class="cls-3" d="M113.53,24.47l-4.65,.36-.15-2.6s-1.87-.03-2.15-1.86c-.28-1.83-.55-6.08-.55-6.08h0c1.99-1.21,4.49-1.25,6.52-.1l.3,.17,.69,10.1Z"/><path class="cls-4" d="M108.72,22.2s1.17-.07,2.29-1.02c0,0-.41,1.44-2.26,1.53l-.04-.52Z"/></g><g><path class="cls-3" d="M112.88,16.29s1.21-.55,1.34,.71c.14,1.26-1.16,1.14-1.16,1.1,0-.04-.18-1.81-.18-1.81Z"/><path class="cls-4" d="M113.39,17.58s.02,.01,.06,.03c.04,.01,.1,.02,.16-.01,.13-.06,.22-.29,.2-.51,0-.11-.04-.22-.1-.31-.05-.09-.11-.15-.18-.15-.07,0-.11,.04-.12,.07-.01,.04,0,.06,0,.06,0,0-.03-.02-.02-.07,0-.03,.01-.06,.04-.08,.03-.03,.07-.05,.12-.05,.1,0,.19,.08,.25,.17,.06,.09,.1,.21,.11,.34,.02,.25-.08,.51-.26,.58-.09,.03-.16,.01-.2-.01-.04-.03-.05-.05-.05-.06Z"/></g><g><g><g><path class="cls-8" d="M106.81,17.17c.01,.14,.14,.24,.29,.23,.15-.01,.25-.14,.24-.27-.01-.14-.14-.24-.29-.23-.15,.01-.25,.14-.24,.27Z"/><path class="cls-8" d="M106.73,16.82s.21-.15,.5-.18c.28-.04,.51,.07,.53,.03,.01-.02-.03-.07-.13-.13-.1-.05-.26-.1-.43-.07-.18,.03-.31,.11-.39,.19-.08,.08-.1,.14-.08,.16Z"/></g><g><path class="cls-8" d="M109.55,16.85c.01,.14,.14,.24,.29,.23,.15-.01,.25-.14,.24-.27-.01-.14-.14-.24-.29-.23-.15,.01-.25,.14-.24,.27Z"/><path class="cls-8" d="M109.51,16.48s.22-.15,.5-.18c.28-.04,.51,.07,.53,.03,.01-.02-.03-.07-.13-.13-.1-.05-.26-.1-.43-.07-.18,.03-.31,.11-.39,.19-.08,.08-.1,.14-.08,.16Z"/></g><path class="cls-8" d="M108.78,18.71s-.18-.02-.47-.02c-.07,0-.14,0-.16-.05-.02-.05,0-.13,.02-.22,.04-.18,.09-.38,.14-.58,.19-.82,.31-1.49,.28-1.5-.03,0-.21,.65-.4,1.47-.04,.2-.09,.4-.13,.58-.02,.09-.05,.18,0,.29,.03,.05,.09,.08,.13,.09,.05,0,.09,0,.12,0,.29-.02,.47-.05,.46-.06Z"/><path class="cls-8" d="M109.63,18.79s0,.31-.23,.56c-.23,.25-.56,.27-.56,.31,0,.02,.08,.05,.22,.03,.14-.01,.33-.09,.47-.24,.14-.16,.18-.34,.18-.47,0-.13-.05-.2-.07-.2Z"/></g><path class="cls-8" d="M109.28,15.39c.04,.07,.31,0,.65,0,.34-.01,.62,.05,.65-.03,.01-.04-.04-.1-.16-.16-.12-.06-.3-.11-.5-.1-.2,0-.38,.06-.49,.13-.11,.07-.17,.13-.15,.17Z"/><path class="cls-8" d="M106.72,15.99c.06,.06,.24-.04,.48-.07,.23-.04,.44-.02,.47-.09,.02-.04-.02-.1-.12-.14-.09-.05-.24-.08-.4-.05-.16,.03-.29,.11-.36,.18-.07,.08-.09,.15-.06,.18Z"/></g></g><path class="cls-8" d="M104.96,13.25c-.05-.22,0-.48,.16-.64,.17-.16,.45-.19,.63-.04-.13-.29,.07-.68,.39-.75,.3-.06,.58,.13,.88,.17,.29,.04,.59-.07,.84-.22,.26-.15,.49-.33,.75-.47,.54-.29,1.2-.36,1.79-.18,.59,.18,1.1,.59,1.4,1.13,.38-.18,.87-.04,1.16,.26,.29,.3,.42,.74,.43,1.17,0,.29-.04,.57-.09,.85,0,.02,0,.05,.01,.07,.12,1.01,.18,2.21-.25,2.28-.75,.12-.77-1.32-.77-1.32-.97-.23-.82-1.65-1.08-1.83-.26-.18-.81-.59-2.6,.66-.69,.49-1.69,.62-2.25,.57-.02,0-.03,0-.05,0,0,0,0,0-.01,0,0,0-.01,0-.02,0-.18-.02-.36-.06-.52-.14-.19-.09-.37-.21-.47-.4-.1-.18-.11-.43,.02-.59-.17-.16-.31-.35-.36-.58Z"/></g><polygon class="cls-1" points="108.72 23.82 108.93 31.1 113.46 21.35 113.34 20.45 108.72 23.82"/><g><path class="cls-8" d="M111.73,45.58c-.17,.05-9.59,9.59-9.38,11.3,.21,1.71,6.92,14.4,6.92,14.4l4.79-2.36-4.49-11.12,.06-.69,5.49-4.5-.29-7.23-3.09,.2Z"/><path class="cls-8" d="M113.76,47.46c.11,.17,1.74,15.15,2.18,15.92,.44,.78,7,13.56,7,13.56l4.87-1.96-5.94-14.06,.68-13.3-.37-3.76-7.35,1.51-1.06,2.08Z"/><path class="cls-7" d="M115.85,63.11s-.01-.05-.03-.15c-.02-.11-.04-.25-.07-.43-.06-.39-.14-.93-.24-1.59-.2-1.36-.46-3.21-.76-5.26-.28-2.05-.54-3.91-.73-5.27-.09-.67-.16-1.21-.21-1.6-.02-.18-.04-.33-.05-.44-.01-.1-.01-.15-.01-.15,0,0,.01,.05,.03,.15,.02,.11,.04,.25,.07,.43,.06,.39,.14,.93,.24,1.59,.2,1.36,.46,3.21,.76,5.26,.28,2.05,.54,3.91,.73,5.27,.09,.67,.16,1.21,.21,1.6,.02,.18,.04,.33,.05,.44,.01,.1,.01,.15,.01,.15Z"/><path class="cls-7" d="M121.74,60.5s-.1,.54-.28,1.19c-.18,.65-.36,1.17-.38,1.16-.03,0,.1-.54,.28-1.19,.18-.65,.36-1.17,.38-1.16Z"/><path class="cls-7" d="M122.47,63.89s-.12-.12-.27-.37c-.14-.24-.3-.61-.39-1.03-.09-.42-.09-.82-.06-1.1,.03-.28,.08-.45,.09-.45,.03,0-.11,.69,.07,1.52,.17,.83,.58,1.4,.55,1.42Z"/><path class="cls-7" d="M107.99,56.18s.4,.14,.79,.49c.39,.35,.58,.73,.56,.74-.03,.02-.26-.32-.63-.66-.37-.34-.73-.54-.72-.57Z"/><path class="cls-7" d="M108.73,55.74s.26,.19,.46,.53c.21,.33,.29,.64,.26,.65-.03,.01-.15-.27-.35-.6-.2-.32-.4-.56-.38-.58Z"/></g><g><path class="cls-5" d="M109.38,33.89l1.21,5.98,.98,8.34s4.04-.56,5.77-1.11c2-.63,6.35-1.17,6.35-1.17l-.73,.73c1.56-.44,2.55-1.92,2.55-1.92-2.68-2.49-4.97-7.61-4.97-7.61l-2.04-10.13s-.31-1.43-.5-2.06c-.19-.64-3.28-2.68-3.71-2.94l-.27-.13-.09-.81-.32-.19-3.35,3.04c-.65,.59-1.07,1.4-1.17,2.28-.1,.92-.2,2.25-.15,3.81,.04,1.19,.44,3.89,.44,3.89Z"/><g><path class="cls-5" d="M111.68,23.53s-1.77,.95-2.08,1.75c-.31,.81,.61,9.64,.61,9.64l-6.36,.12-.02,3.79s10.1,.8,10.49,.25c.53-.74,1.15-7.64,1.15-7.64l.23-4.97s-.59-3.79-4.02-2.95Z"/><g class="cls-10"><path d="M110.59,39.87c.86,.28,1.65,.32,2.55,.24,.9-.08,1.81-.57,2.15-1.41,.26-.64,.15-1.36,.19-2.04,.03-.6,.18-1.18,.27-1.77,.09-.59-.22-1.68-.41-2.24,0,0-.23,4.1-.87,5.82-.09,.23-.2,.47-.39,.63-.23,.18-.54,.2-.83,.23-.81,.08-2.77-.06-2.77-.06"/></g><path class="cls-8" d="M115.69,27.01s0,.03,0,.09c0,.06,0,.15-.01,.26-.01,.24-.03,.58-.05,1.01-.02,.44-.05,.98-.08,1.6-.04,.63-.06,1.34-.14,2.12-.07,.79-.15,1.65-.25,2.57-.1,.92-.21,1.91-.39,2.94-.05,.26-.09,.52-.17,.78-.09,.26-.24,.51-.46,.69-.22,.18-.5,.3-.79,.28-.28,0-.56,0-.85,0-1.14-.03-2.31-.09-3.51-.15-1.8-.1-3.54-.21-5.17-.33h-.05s0-.05,0-.05c0-1.35,.02-2.61,.02-3.78v-.04s.04,0,.04,0c2.54-.05,4.65-.1,6.14-.13,.74-.01,1.32-.02,1.72-.03,.19,0,.34,0,.45,0,.1,0,.16,0,.16,0,0,0-.05,0-.15,.01-.11,0-.26,.01-.45,.02-.4,.01-.98,.03-1.72,.05-1.48,.04-3.6,.1-6.14,.17l.04-.04c0,1.17,0,2.44-.01,3.78l-.05-.05c1.63,.11,3.36,.22,5.17,.32,1.2,.07,2.37,.12,3.51,.15,.28,0,.56,.01,.84,0,.27,.02,.53-.1,.73-.26,.2-.17,.35-.4,.43-.64,.08-.25,.12-.51,.17-.76,.18-1.02,.29-2.01,.4-2.93,.1-.92,.19-1.78,.26-2.56,.08-.78,.11-1.5,.15-2.12,.04-.62,.07-1.16,.1-1.6,.03-.44,.05-.78,.07-1.01,0-.11,.02-.2,.02-.26,0-.06,0-.09,.01-.09Z"/><path class="cls-8" d="M105.08,38.77s-.05-.82-.04-1.84c0-1.01,.03-1.84,.06-1.84,.03,0,.05,.82,.04,1.84,0,1.01-.03,1.84-.06,1.84Z"/><path class="cls-8" d="M104.41,35.68s.05-.08,.17-.04c.06,.02,.12,.08,.13,.17,0,.08-.03,.18-.13,.23-.1,.04-.2,0-.26-.05-.06-.06-.08-.14-.06-.2,.03-.12,.11-.15,.11-.13,.01,.01-.04,.06-.04,.14,0,.04,.01,.09,.05,.12,.04,.03,.1,.05,.15,.02,.05-.02,.08-.08,.08-.13,0-.05-.03-.09-.06-.11-.07-.04-.13-.02-.14-.03Z"/></g><path class="cls-5" d="M118.52,27.87s3.31,4.33,3.71,5.5c.4,1.18,.09,2.87-.58,3.68s-1.22,.48-1.22,.48l-1.91-9.66Z"/><path class="cls-8" d="M120.31,37.19s-.37,.12-.83,.2c-.46,.08-.84,.12-.85,.09s.37-.12,.83-.2c.46-.08,.84-.12,.85-.09Z"/><path class="cls-8" d="M120.95,40.38s.04,.08,.09,.23c.05,.15,.13,.36,.22,.63,.2,.53,.5,1.24,.89,2,.39,.76,.8,1.42,1.11,1.89,.15,.23,.28,.42,.37,.55,.09,.13,.13,.2,.13,.21,0,0-.06-.06-.16-.18-.1-.12-.24-.31-.4-.54-.33-.46-.75-1.12-1.14-1.89-.4-.77-.69-1.49-.87-2.03-.09-.27-.16-.49-.19-.64-.04-.15-.06-.24-.05-.24Z"/><g class="cls-10"><path d="M121.17,40.89c.52,.93,1.06,1.89,1.86,2.6,.28,.25,.6,.48,.81,.79s.31,.75,.1,1.06c-.07,.11-.2,.21-.33,.18-.09-.02-.16-.1-.22-.18-1-1.28-1.75-2.75-2.2-4.31"/></g><g class="cls-10"><path d="M120.73,37.52c.45-.33,.61-.94,.54-1.5s-.32-1.06-.55-1.57c-.71-1.58-1.19-3-1.61-4.73l-.32-1.2,1.64,8.56,.3,.44Z"/></g><path class="cls-8" d="M112.55,23.14s.28-.28,.62-.62c.34-.34,.59-.64,.62-.62,.02,.02-.2,.35-.54,.69-.34,.35-.67,.56-.69,.54Z"/><path class="cls-8" d="M112.21,23.88s-.19,.08-.48,.22c-.29,.14-.68,.39-1.03,.74-.35,.35-.59,.74-.73,1.04-.14,.29-.2,.49-.22,.49,0,0,0-.05,.02-.14,.02-.09,.06-.22,.13-.37,.13-.31,.36-.71,.72-1.08,.36-.36,.76-.61,1.07-.74,.15-.07,.28-.11,.37-.13,.09-.02,.14-.03,.14-.02Z"/><path class="cls-8" d="M121.1,38.38s-.02-.03-.05-.08c-.04-.07-.08-.15-.13-.25-.12-.23-.28-.55-.48-.93h0s0,0,0,0c-.21-.95-.5-2.33-.82-3.87-.29-1.45-.56-2.76-.76-3.73-.09-.47-.16-.85-.22-1.13-.02-.12-.04-.23-.05-.31-.01-.07-.02-.11-.01-.11,0,0,.01,.04,.03,.1,.02,.08,.04,.18,.07,.3,.06,.28,.15,.66,.25,1.13,.2,.97,.48,2.27,.79,3.72,.32,1.54,.6,2.92,.78,3.87h0c.19,.38,.34,.7,.45,.94,.05,.1,.08,.19,.12,.26,.03,.06,.04,.09,.03,.09Z"/><path class="cls-8" d="M110.1,34.92s-.02-.11-.05-.31c-.02-.22-.06-.51-.09-.86-.07-.73-.17-1.73-.27-2.84-.1-1.11-.18-2.11-.24-2.84-.02-.35-.04-.64-.06-.86-.01-.2-.02-.32,0-.32,0,0,.02,.11,.05,.31,.02,.22,.06,.51,.09,.86,.07,.73,.17,1.73,.27,2.84,.1,1.11,.18,2.11,.24,2.84,.02,.35,.04,.64,.06,.86,.01,.2,.02,.32,0,.32Z"/></g><g><g><path class="cls-3" d="M103.93,35.48s-1.37-1.04-1.71-1.1c-.26-.05-1.79-.02-2.49,0-.27,0-.51,.22-.51,.49,0,.02,0,.03,0,.05,.06,.29,.33,.35,.33,.35,0,0-.36,.1-.37,.5,0,.4,.48,.48,.48,.48,0,0-.03,.02-.07,.06-.26,.26-.13,.71,.23,.8l.22,.05s-.29,.12-.29,.39c0,.52,1.18,.62,1.18,.62,0,0,2.91,.46,2.97,.44,.06-.02,.01-3.12,.01-3.12Z"/><path class="cls-3" d="M100.01,33.76c.01,.17,.05,.54,.35,.71l1.62-.06s-1.21-.42-1.38-.62c-.06-.07-.14-.16-.23-.23-.15-.11-.37,.02-.36,.21Z"/></g><path class="cls-4" d="M101.21,34.38s-.33,.06-.74,.05c-.41,0-.74-.02-.74-.05,0-.03,.33-.06,.74-.05,.41,0,.74,.02,.74,.05Z"/><path class="cls-4" d="M100.85,35.29s-.28,.08-.64,.07c-.36-.01-.64-.08-.63-.11,0-.03,.29,0,.64,0,.35,.01,.63,0,.63,.04Z"/><path class="cls-4" d="M101.67,35.17s0,.1-.1,.16c-.09,.06-.18,.05-.19,.02,0-.03,.06-.06,.13-.11,.07-.05,.13-.09,.16-.07Z"/><path class="cls-4" d="M101.03,36.31s-.31,.04-.7,.03c-.38-.01-.69-.05-.69-.08,0-.03,.31-.04,.7-.03,.39,.01,.7,.05,.69,.08Z"/><path class="cls-4" d="M101.95,35.88s.04,.03,.05,.09c0,.06,0,.16-.07,.24-.06,.08-.15,.12-.21,.12-.06,0-.1,0-.1-.02,0-.03,.14-.05,.23-.17,.09-.12,.08-.26,.11-.26Z"/><path class="cls-4" d="M101.27,37.32s-.29,.02-.63-.03c-.34-.04-.62-.1-.62-.13,0-.03,.29-.02,.63,.03,.34,.04,.62,.1,.62,.13Z"/><path class="cls-4" d="M102.18,36.81s.03,.03,.03,.1c0,.06-.03,.15-.09,.22-.12,.14-.25,.2-.27,.18-.02-.02,.09-.12,.18-.24,.1-.12,.11-.25,.14-.25Z"/></g><path class="cls-5" d="M122.4,46.74c.57-.05,1.11-.39,1.4-.89,.03-.06,.06-.13,.02-.18-.03-.03-.08-.04-.12-.04-.45,0-.91,.07-1.33,.23-.05,.02-.1,.04-.12,.09-.01,.03,0,.07,0,.11,.06,.22,.11,.44,.17,.66"/><g class="cls-11"><path d="M122.4,46.74c.57-.05,1.11-.39,1.4-.89,.03-.06,.06-.13,.02-.18-.03-.03-.08-.04-.12-.04-.45,0-.91,.07-1.33,.23-.05,.02-.1,.04-.12,.09-.01,.03,0,.07,0,.11,.06,.22,.11,.44,.17,.66"/></g><g><path class="cls-1" d="M108.72,23.82s-.67,2.24-.48,2.11,.58-.48,.58-.48l-.1-1.63Z"/><path class="cls-8" d="M108.76,24.85l-.36,.87c-.04,.09-.06,.18-.07,.28-.03,.24-.07,.69,.08,.72,.2,.04,.39-.16,.39-.16l-.03-1.72Z"/><g><path class="cls-8" d="M120.07,24.99s-3.57-1.39-5.54-.16c-1.98,1.23-2.34,3.19-3.51,3.19-2.29,0-2.22-1.62-2.22-1.62l-.49,.15c0,.33-.53,2.71,1.89,3,2.42,.29,3.43-3,5.61-3,2.18,0,3.83,1.18,3.83,1.18l1.56-.99-1.12-1.74Z"/><path class="cls-7" d="M110.92,29.51s.89-.46,1.38-1.58c.55-1.28,1.74-2.74,2.74-3.11,.99-.37,3.29-.62,4.88,.41l1.02,1.37-1.32,.86s-1.04-.57-2.33-.93c-1.64-.46-2.64,.06-3.59,.96-.06,.06-.11,.11-.16,.17-.24,.27-.91,.91-1.51,1.34-.47,.33-.89,.51-1.1,.51Z"/></g></g></g><g><path class="cls-5" d="M37.04,10.09c-2.12,.33-3.67-1.45-4.16-3.03-.46-1.46-.67-2.98-1.32-4.37C30.66,.74,28.29-.16,26.16,.02c-2.13,.18-4.28,1.25-6.17,2.26l.52,11.69s4.11-4.37,6.08-4.45c3.29-.13,3.11,5.28,6.31,6.08,0,0,4.48,1.22,7.51-2.7,1.92-2.48,2.09-5.5,2.09-5.5,0,0-1.47,2.08-5.47,2.69Z"/><path class="cls-8" d="M19.91,.34s.6,12.41,1.29,27.72c.68,15.32,1.21,27.73,1.18,27.73-.03,0-.6-12.41-1.29-27.73-.68-15.31-1.21-27.73-1.18-27.73Z"/><g class="cls-9"><path d="M31.21,6.24c.29,1.09,.95,2.55,1.56,3.51,.61,.95,1.53,1.76,2.64,1.99,.2,.04,.41,.07,.59,.15,.18,.09,.35,.26,.35,.47,0,.31-.31,.51-.58,.64-.39,.19-.79,.39-1.22,.47-.43,.08-.76,.12-1.06-.2-.25-.27-.58-.6-.77-.92-.97-1.65-1.44-4-1.52-5.86"/></g><path class="cls-8" d="M34.07,13.75s-.03-.02-.1-.05c-.06-.04-.15-.1-.25-.19-.21-.17-.5-.45-.78-.85-.29-.4-.56-.92-.78-1.52-.23-.6-.41-1.29-.58-2.01-.34-1.45-.49-2.78-.54-3.75-.03-.48-.03-.88-.03-1.15,0-.13,0-.23,0-.31,0-.07,0-.11,0-.11s0,.04,.01,.11c0,.08,0,.19,.01,.31,.01,.27,.03,.66,.06,1.15,.07,.96,.23,2.3,.57,3.74,.17,.72,.35,1.4,.57,2,.22,.6,.48,1.11,.75,1.51,.27,.4,.55,.68,.75,.86,.2,.18,.33,.26,.32,.27Z"/></g><polygon class="cls-6" points="7.15 58.26 35.11 62.84 35.11 58.26 7.15 58.26"/><polygon class="cls-6" points="39.72 68.6 67.68 73.18 67.68 68.6 39.72 68.6"/><polygon class="cls-6" points="72.07 78.5 100.03 83.07 100.03 78.5 72.07 78.5"/><polygon class="cls-6" points="104.38 86.37 132.34 90.94 132.34 86.37 104.38 86.37"/><g><rect class="cls-5" x="7.15" y="54.84" width="27.96" height="3.43"/><g class="cls-10"><rect x="26.38" y="54.84" width="8.72" height="3.43"/></g></g><g><rect class="cls-5" x="39.72" y="65.18" width="27.96" height="3.43"/><g class="cls-10"><rect x="58.96" y="65.18" width="8.72" height="3.43"/></g></g><g><rect class="cls-5" x="72.07" y="75.07" width="27.96" height="3.43"/><g class="cls-10"><rect x="91.31" y="75.07" width="8.72" height="3.43"/></g></g><g><rect class="cls-5" x="104.42" y="82.94" width="27.96" height="3.43"/><g class="cls-10"><rect x="123.66" y="82.94" width="8.72" height="3.43"/></g></g><path class="cls-1" d="M115.15,70.46c0,.42,.34,.76,.76,.76s.76-.34,.76-.76-.34-.76-.76-.76-.76,.34-.76,.76Z"/></svg>